<svg width="375" height="270" viewBox="0 0 375 270" fill="none" xmlns="http://www.w3.org/2000/svg">
<g clip-path="url(#clip0_2312_598)">
<rect width="375" height="270" fill="url(#paint0_linear_2312_598)"/>
<g clip-path="url(#clip1_2312_598)">
<g opacity="0.7">
<path d="M155.657 -372.549C93.2485 -387.055 28.6864 -378.444 -27.3847 -347.852C-87.0743 -315.305 -130.037 -261.822 -148.358 -197.21C-166.679 -132.597 -158.191 -64.6306 -124.437 -5.77636C-90.677 53.0521 -35.6962 95.693 30.3914 114.312C96.4851 132.905 165.738 125.248 225.401 92.6955C285.091 60.1488 328.053 6.66591 346.374 -57.9467C364.696 -122.559 356.208 -190.526 322.454 -249.38C288.694 -308.208 233.713 -350.849 167.625 -369.468C163.638 -370.585 159.66 -371.618 155.657 -372.549ZM-124.178 -5.93344L-123.92 -6.0905C-157.598 -64.7915 -166.096 -132.597 -147.811 -197.055C-129.525 -261.513 -86.6722 -314.886 -27.1178 -347.328C28.824 -377.842 93.2425 -386.432 155.493 -371.962C159.496 -371.032 163.448 -370.005 167.435 -368.888C233.344 -350.338 288.211 -307.805 321.89 -249.104C355.568 -190.403 364.066 -122.597 345.781 -58.139C327.495 6.31907 284.642 59.6916 225.088 92.134C169.146 122.647 104.727 131.237 42.477 116.768C38.4744 115.838 34.5221 114.81 30.5351 113.694C-35.3742 95.1435 -90.2412 52.6105 -123.92 -6.0905L-124.178 -5.93344Z" fill="#FFD600"/>
<path d="M160.697 -379.792C96.9717 -394.604 31.0582 -385.792 -26.2111 -354.583C-87.1696 -321.354 -131.031 -266.749 -149.754 -200.764C-168.478 -134.78 -159.795 -65.3832 -125.326 -5.30415C-90.8577 54.7749 -34.698 98.3142 32.7733 117.309C100.245 136.304 170.954 128.47 231.913 95.2409C292.871 62.0118 336.732 7.40763 355.43 -58.5835C374.147 -124.543 365.47 -193.965 331.001 -254.044C296.533 -314.123 240.373 -357.662 172.902 -376.657C168.868 -377.812 164.778 -378.844 160.697 -379.792ZM-125.035 -5.48084L-124.777 -5.63792C-159.17 -65.5637 -167.83 -134.819 -149.143 -200.649C-130.461 -266.454 -86.7087 -320.948 -25.9059 -354.105C34.8909 -387.235 105.489 -395.068 172.75 -376.122C240.063 -357.164 296.083 -313.739 330.476 -253.813C364.869 -193.887 373.529 -124.632 354.842 -58.8015C336.16 7.00319 292.408 61.4969 231.605 94.6536C170.823 127.842 100.257 135.655 32.9434 116.697C-34.37 97.7389 -90.3896 54.3136 -124.783 -5.61216L-125.035 -5.48084Z" fill="#FAD501"/>
<path d="M165.72 -387.067C100.678 -402.185 33.4196 -393.197 -25.0276 -361.339C-87.2285 -327.421 -131.995 -271.67 -151.114 -204.338C-170.208 -137.001 -161.362 -66.1548 -126.179 -4.85098C-90.9961 56.4529 -33.6898 100.91 35.1651 120.281C104.014 139.677 176.207 131.672 238.408 97.7549C300.609 63.8373 345.375 8.08616 364.489 -59.2197C383.602 -126.526 374.736 -197.403 339.553 -258.707C304.37 -320.011 247.064 -364.468 178.209 -383.839C174.07 -385.018 169.907 -386.094 165.72 -387.067ZM-125.894 -5.00192L-125.636 -5.159C-160.737 -66.3353 -169.566 -137.014 -150.509 -204.198C-131.451 -271.381 -86.7737 -326.99 -24.7284 -360.835C37.3373 -394.648 109.36 -402.638 178.057 -383.304C246.754 -363.97 303.92 -319.627 339.022 -258.45C374.123 -197.274 382.952 -126.595 363.895 -59.412C344.837 7.77126 300.16 63.38 238.114 97.2252C176.049 131.038 104.052 139.035 35.3292 119.695C-33.3414 100.367 -90.5077 56.0235 -125.636 -5.159L-125.894 -5.00192Z" fill="#F5D403"/>
<path d="M170.815 -394.299C140.69 -401.301 109.917 -403.242 79.1761 -400.071C42.8876 -396.317 8.21943 -385.563 -23.8518 -368.069C-55.923 -350.576 -83.4761 -327.445 -105.764 -299.262C-127.3 -272.045 -142.996 -241.298 -152.476 -207.913C-161.957 -174.527 -164.709 -140.12 -160.688 -105.714C-156.504 -70.102 -145.193 -36.0101 -127.04 -4.3725L-126.781 -4.52956L-127.04 -4.3725C-108.907 27.2333 -85.0136 54.4771 -56.0451 76.6026C-28.0688 97.9817 3.4246 113.663 37.5756 123.284C71.7266 132.905 106.827 135.933 141.893 132.302C178.182 128.548 212.85 117.794 244.921 100.3C276.993 82.8071 304.546 59.6758 326.834 31.4931C348.37 4.27586 364.065 -26.4708 373.546 -59.8564C383.027 -93.2419 385.779 -127.649 381.758 -162.055C377.573 -197.667 366.263 -231.759 348.109 -263.396C329.976 -295.002 306.083 -322.246 277.115 -344.372C249.138 -365.751 217.645 -381.432 183.494 -391.053C179.296 -392.219 175.054 -393.313 170.815 -394.299ZM50.4451 125.95C46.2056 124.964 41.9636 123.87 37.7396 122.698C-32.3614 102.956 -90.6802 57.7206 -126.496 -4.68051C-162.313 -67.0817 -171.331 -139.216 -151.877 -207.746C-132.423 -276.276 -86.8667 -333.038 -23.5586 -367.54C39.7496 -402.041 113.203 -410.215 183.33 -390.467C253.431 -370.725 311.75 -325.49 347.566 -263.088C383.382 -200.687 392.4 -128.553 372.946 -60.0229C353.493 8.50701 307.936 65.2689 244.628 99.7707C185.132 132.2 116.672 141.343 50.4451 125.95Z" fill="#F0D304"/>
<path d="M175.864 -401.568C145.134 -408.71 113.757 -410.683 82.4216 -407.461C45.3947 -403.634 10.0634 -392.653 -22.6423 -374.819C-55.3479 -356.985 -83.454 -333.385 -106.175 -304.651C-128.113 -276.903 -144.142 -245.555 -153.811 -211.48C-163.474 -177.431 -166.296 -142.362 -162.161 -107.251C-157.895 -70.914 -146.354 -36.1441 -127.867 -3.91301L-127.608 -4.07009L-127.867 -3.91301C-109.353 28.3242 -85.0028 56.1086 -55.4681 78.6643C-26.946 100.442 5.19005 116.463 40.0197 126.268C74.8757 136.081 110.659 139.158 146.405 135.468C183.432 131.642 218.763 120.661 251.469 102.827C284.174 84.9923 312.28 61.3924 335.002 32.6589C356.939 4.91045 372.968 -26.4372 382.637 -60.5121C392.306 -94.5869 395.122 -129.63 390.988 -164.742C386.722 -201.078 375.181 -235.848 356.693 -268.079C338.18 -300.316 313.829 -328.101 284.295 -350.657C255.772 -372.434 223.636 -388.455 188.807 -398.261C184.504 -399.451 180.183 -400.564 175.864 -401.568ZM53.0616 129.028C48.743 128.025 44.4484 126.918 40.1514 125.702C5.40075 115.914 -26.6623 99.9376 -55.1378 78.1982C-84.5994 55.6866 -108.909 27.9659 -127.356 -4.20141C-145.802 -36.3687 -157.329 -71.0811 -161.593 -107.308C-165.693 -142.33 -162.894 -177.296 -153.243 -211.294C-143.592 -245.292 -127.607 -276.568 -105.715 -304.245C-83.0375 -332.908 -54.996 -356.468 -22.355 -374.264C10.286 -392.059 45.5526 -403 82.4946 -406.819C118.156 -410.502 153.88 -407.411 188.637 -397.649C223.387 -387.861 255.45 -371.884 283.899 -350.151C313.361 -327.64 337.671 -299.919 356.117 -267.752C374.59 -235.578 386.097 -200.898 390.355 -164.645C394.454 -129.623 391.656 -94.6566 382.005 -60.659C372.354 -26.6614 356.369 4.61516 334.476 32.2925C311.799 60.9548 283.758 84.5155 251.117 102.311C218.476 120.106 183.209 131.047 146.267 134.866C115.037 138.113 83.7128 136.153 53.0616 129.028Z" fill="#EBD205"/>
<path d="M180.905 -408.812C149.569 -416.095 117.595 -418.125 85.6523 -414.8C47.9132 -410.894 11.8661 -399.7 -21.474 -381.524C-54.814 -363.349 -83.4732 -339.28 -106.628 -309.996C-128.998 -281.697 -145.335 -249.742 -155.18 -215.029C-165.025 -180.317 -167.898 -144.553 -163.696 -108.775C-159.343 -71.7394 -147.571 -36.2914 -128.729 -3.43503L-128.47 -3.59211L-128.729 -3.43503C-109.861 29.4274 -85.0273 57.7586 -54.9264 80.7445C-25.8382 102.952 6.89397 119.274 42.4286 129.271C77.9369 139.262 114.422 142.422 150.881 138.653C188.62 134.748 224.667 123.553 258.007 105.378C291.347 87.2022 320.006 63.1336 343.161 33.8493C365.532 5.55006 381.868 -26.4048 391.713 -61.1174C401.558 -95.83 404.431 -131.593 400.229 -167.372C395.876 -204.407 384.104 -239.855 365.262 -272.712C346.421 -305.568 321.56 -333.905 291.46 -356.891C262.371 -379.099 229.639 -395.421 194.104 -405.418C189.702 -406.658 185.302 -407.79 180.905 -408.812ZM55.7075 132.086C51.3099 131.064 46.9363 129.939 42.5603 128.705C7.131 118.732 -25.5545 102.448 -54.5697 80.2845C-84.5975 57.3427 -109.391 29.0753 -128.192 -3.7173C-147.019 -36.516 -158.756 -71.8745 -163.095 -108.852C-167.288 -144.548 -164.413 -180.202 -154.58 -214.863C-144.754 -249.498 -128.455 -281.407 -106.129 -309.636C-83.0123 -338.874 -54.4239 -362.878 -21.1484 -381.014C12.127 -399.151 48.0831 -410.312 85.7373 -414.21C122.111 -417.971 158.517 -414.83 193.946 -404.857C229.376 -394.885 262.061 -378.601 291.076 -356.437C321.104 -333.495 345.897 -305.228 364.698 -272.435C383.526 -239.637 395.263 -204.278 399.602 -167.3C403.795 -131.605 400.92 -95.9511 391.087 -61.29C381.26 -26.6547 364.962 5.25476 342.635 33.4829C319.519 62.7218 290.931 86.7254 257.655 104.862C224.38 122.998 188.424 134.159 150.77 138.057C118.886 141.369 86.9644 139.352 55.7075 132.086Z" fill="#E7D106"/>
<path d="M185.925 -416.087C154.01 -423.506 121.406 -425.573 88.8427 -422.202C50.3913 -418.218 13.6607 -406.829 -20.3197 -388.287C-54.2942 -369.77 -83.5063 -345.233 -107.1 -315.372C-129.898 -286.548 -146.543 -253.986 -156.602 -218.59C-166.629 -183.214 -169.572 -146.788 -165.283 -110.311C-160.843 -72.5764 -148.866 -36.4564 -129.644 -2.96872L-129.385 -3.1258L-129.644 -2.96872C-110.421 30.519 -85.1304 59.3908 -54.4431 82.8388C-24.815 105.471 8.56589 122.106 44.7469 132.308C80.9602 142.49 118.128 145.7 155.266 141.871C193.718 137.887 230.448 126.499 264.429 107.956C298.403 89.4397 327.615 64.9024 351.209 35.0416C374.007 6.21727 390.652 -26.3448 400.711 -61.7405C410.77 -97.1363 413.681 -133.542 409.392 -170.02C404.951 -207.754 392.975 -243.874 373.752 -277.362C354.53 -310.849 329.239 -339.721 298.552 -363.169C268.924 -385.801 235.543 -402.437 199.362 -412.638C194.907 -413.891 190.428 -415.041 185.925 -416.087ZM58.3537 135.145C53.8772 134.104 49.3982 132.955 44.9432 131.702C8.83526 121.545 -24.4667 104.927 -54.048 82.3334C-84.6683 58.9553 -109.919 30.1472 -129.074 -3.27064C-148.255 -36.6946 -160.224 -72.7312 -164.65 -110.408C-168.91 -146.77 -166.011 -183.125 -155.996 -218.449C-145.981 -253.774 -129.355 -286.259 -106.601 -315.012C-83.0515 -344.801 -53.91 -369.274 -20.0002 -387.751C13.9096 -406.229 50.5553 -417.609 88.9216 -421.586C125.981 -425.433 163.09 -422.209 199.198 -412.052C235.306 -401.895 268.608 -385.277 298.189 -362.683C328.809 -339.305 354.06 -310.497 373.215 -277.079C392.396 -243.655 404.365 -207.619 408.791 -169.942C413.051 -133.58 410.152 -97.2255 400.138 -61.9009C390.129 -26.602 373.496 5.90844 350.742 34.6616C327.193 64.4513 298.051 88.9236 264.141 107.401C230.232 125.879 193.586 137.259 155.22 141.236C122.741 144.6 90.2163 142.551 58.3537 135.145Z" fill="#E2CF08"/>
<path d="M190.969 -423.33C158.448 -430.89 125.241 -432.989 92.0824 -429.566C52.9188 -425.503 15.4988 -413.895 -19.1101 -395.037C-53.719 -376.179 -83.4578 -351.167 -107.511 -320.761C-130.743 -291.386 -147.695 -258.217 -157.93 -222.184C-168.165 -186.15 -171.132 -149.024 -166.777 -111.88C-162.255 -73.4205 -150.041 -36.6482 -130.47 -2.50949L-130.212 -2.66658L-130.47 -2.50949C-110.894 31.6035 -85.1194 61.022 -53.866 84.9002C-23.6718 107.962 10.3316 124.906 47.1912 135.292C84.0509 145.678 121.927 148.944 159.778 145.037C198.941 140.974 236.361 129.366 270.97 110.508C305.579 91.6505 335.318 66.6384 359.372 36.2329C382.603 6.85783 399.555 -26.3114 409.79 -62.3449C420.025 -98.3784 422.993 -135.504 418.637 -172.649C414.115 -211.108 401.907 -247.906 382.331 -282.019C362.754 -316.132 336.979 -345.55 305.726 -369.429C275.532 -392.49 241.529 -409.434 204.669 -419.82C200.109 -421.097 195.551 -422.265 190.969 -423.33ZM61.0027 138.204C56.4209 137.139 51.8892 135.977 47.3289 134.7C10.5423 124.357 -23.3821 107.432 -53.5033 84.4145C-84.6837 60.5804 -110.424 31.2514 -129.959 -2.7979C-149.495 -36.8471 -161.695 -73.5618 -166.182 -111.931C-170.529 -148.993 -167.56 -186.009 -157.363 -221.997C-147.172 -257.96 -130.232 -291.077 -107.045 -320.381C-83.0616 -350.722 -53.3671 -375.663 -18.8229 -394.481C15.7214 -413.3 53.0564 -424.901 92.135 -428.956C129.9 -432.856 167.692 -429.582 204.479 -419.24C241.265 -408.898 275.189 -391.973 305.311 -368.955C336.491 -345.121 362.231 -315.792 381.767 -281.743C401.303 -247.693 413.502 -210.979 417.989 -172.609C422.337 -135.548 419.367 -98.5314 409.17 -62.5433C398.973 -26.5552 382.039 6.53675 358.852 35.8407C334.869 66.1812 305.174 91.1221 270.63 109.941C236.086 128.76 198.751 140.36 159.672 144.416C126.593 147.857 93.4709 145.75 61.0027 138.204Z" fill="#DDCE09"/>
<path d="M196.016 -430.6C162.89 -438.3 129.079 -440.43 95.2937 -436.936C55.3916 -432.8 17.3084 -420.966 -17.9349 -401.767C-53.1841 -382.542 -83.464 -357.113 -107.957 -326.131C-131.616 -296.231 -148.882 -262.429 -159.299 -225.732C-169.716 -189.035 -172.754 -151.247 -168.305 -113.429C-163.722 -74.2771 -151.283 -36.801 -131.326 -2.0566C-111.395 32.6817 -85.1369 62.6469 -53.3173 86.9554C-22.5833 110.441 12.0424 127.692 49.5807 138.264C87.119 148.835 125.704 152.157 164.234 148.191C204.136 144.055 242.22 132.221 277.463 113.022C312.712 93.7973 342.992 68.368 367.485 37.3859C391.144 7.48582 408.409 -26.3163 418.827 -63.0133C429.244 -99.7103 432.282 -137.498 427.838 -175.342C423.255 -214.494 410.817 -251.97 390.86 -286.714C370.929 -321.453 344.671 -351.418 312.851 -375.726C282.117 -399.212 247.492 -416.463 209.953 -427.035C205.334 -428.298 200.677 -429.516 196.016 -430.6ZM-131.073 -2.18792L-130.815 -2.345C-150.705 -37.0195 -163.135 -74.4122 -167.71 -113.481C-172.15 -151.215 -169.13 -188.926 -158.725 -225.571C-148.326 -262.191 -131.105 -295.922 -107.484 -325.777C-83.0356 -356.688 -52.8203 -382.078 -17.6417 -401.238C17.543 -420.423 55.5615 -432.218 95.3786 -436.346C133.83 -440.331 172.324 -436.975 209.789 -426.448C247.249 -415.895 281.801 -398.688 312.489 -375.24C344.235 -350.976 370.432 -321.107 390.349 -286.426C410.239 -251.751 422.669 -214.359 427.244 -175.29C431.684 -137.556 428.638 -99.8511 418.259 -63.1994C407.86 -26.5797 390.638 7.15124 367.018 37.006C342.569 67.9169 312.354 93.3069 277.176 112.467C241.985 131.678 203.966 143.473 164.149 147.601C125.698 151.585 87.198 148.256 49.7387 137.703C12.2794 127.15 -22.2733 109.943 -52.9606 86.4953C-84.7072 62.231 -110.904 32.3614 -130.821 -2.31924L-131.073 -2.18792Z" fill="#D8CD0A"/>
<path d="M201.06 -437.843C167.327 -445.684 132.914 -447.846 98.5333 -444.3C57.925 -440.111 19.1261 -428.064 -16.7576 -408.498C-52.6413 -388.931 -83.4742 -363.034 -108.401 -331.501C-132.492 -301.05 -150.06 -266.666 -160.665 -229.28C-171.264 -191.919 -174.352 -153.437 -169.836 -114.952C-165.166 -75.1015 -152.496 -36.9473 -132.185 -1.57766C-111.874 33.792 -85.1524 64.2722 -52.7726 89.0365C-21.4725 112.953 13.7756 130.511 51.9926 141.267C90.2096 152.024 129.471 155.421 168.713 151.377C209.322 147.188 248.121 135.14 284.004 115.574C319.888 96.0082 350.721 70.1102 375.647 38.5774C399.739 8.12644 417.307 -26.2571 427.912 -63.6434C438.511 -101.004 441.599 -139.486 437.083 -177.971C432.413 -217.822 419.743 -255.976 399.432 -291.346C379.12 -326.715 352.405 -357.221 320.019 -381.96C288.719 -405.876 253.471 -423.435 215.254 -434.191C210.542 -435.53 205.799 -436.741 201.06 -437.843ZM-131.932 -1.70898L-131.674 -1.86606C-151.944 -37.172 -164.58 -75.2366 -169.236 -115.03C-173.737 -153.457 -170.673 -191.836 -160.086 -229.145C-149.505 -266.429 -131.949 -300.761 -107.928 -331.146C-83.0457 -362.608 -52.2775 -388.467 -16.4584 -407.994C19.3606 -427.521 58.0686 -439.535 98.5979 -443.742C137.755 -447.779 176.911 -444.406 215.076 -433.662C253.214 -422.924 288.383 -405.384 319.616 -381.538C351.955 -356.837 378.609 -326.427 398.88 -291.121C419.15 -255.815 431.785 -217.75 436.441 -177.957C440.943 -139.53 437.879 -101.151 427.292 -63.8418C416.711 -26.5585 399.155 7.77349 375.134 38.1594C350.252 69.6211 319.483 95.4798 283.664 115.007C247.845 134.533 209.137 146.548 168.614 150.729C129.456 154.767 90.2742 151.387 52.1363 140.649C13.9983 129.912 -21.1708 112.371 -52.4039 88.525C-84.7286 63.882 -111.403 33.4399 -131.674 -1.86606L-131.932 -1.70898Z" fill="#D3CC0B"/>
<path d="M206.1 -445.087C171.788 -453.062 136.751 -455.288 101.77 -451.664C60.4492 -447.397 20.9607 -435.13 -15.5574 -415.222C-52.0755 -395.315 -83.4614 -368.948 -108.821 -336.865C-133.314 -305.883 -151.222 -270.872 -162.003 -232.848C-172.784 -194.824 -175.949 -155.654 -171.339 -116.496C-166.587 -75.9204 -153.681 -37.114 -133.048 -1.09939C-112.382 34.8956 -85.2034 65.9163 -52.2313 91.117C-20.3913 115.457 15.4791 133.323 54.4011 144.271C93.2968 155.212 133.267 158.666 173.189 154.562C214.509 150.294 253.998 138.027 290.516 118.12C327.034 98.2122 358.42 71.8456 383.78 39.762C408.273 8.77987 426.18 -26.2304 436.961 -64.2545C447.742 -102.279 450.907 -141.449 446.298 -180.607C441.546 -221.182 428.639 -259.989 408.006 -296.003C387.341 -331.998 360.162 -363.019 327.19 -388.22C295.344 -412.534 259.48 -430.426 220.558 -441.373C215.74 -442.737 210.919 -443.967 206.1 -445.087ZM68.9643 147.411C64.1455 146.291 59.3505 145.068 54.5592 143.71C15.7425 132.787 -20.0753 114.934 -51.8482 90.6631C-84.7737 65.5004 -111.912 34.5434 -132.536 -1.38778C-153.135 -37.3129 -166.001 -76.0555 -170.771 -116.554C-175.366 -155.655 -172.225 -194.721 -161.456 -232.694C-150.693 -270.641 -132.829 -305.58 -108.375 -336.517C-83.0592 -368.529 -51.7379 -394.857 -15.2845 -414.725C21.169 -434.593 60.5664 -446.827 101.802 -451.087C141.645 -455.209 181.504 -451.754 220.347 -440.825C259.164 -429.902 294.981 -412.049 326.754 -387.778C359.659 -362.647 386.797 -331.69 407.422 -295.759C428.047 -259.828 440.913 -221.085 445.656 -180.593C450.251 -141.492 447.11 -102.425 436.341 -64.4529C425.572 -26.4803 407.715 8.43305 383.26 39.3697C357.945 71.3823 326.624 97.7096 290.17 117.578C253.717 137.446 214.319 149.68 173.084 153.94C138.155 157.576 103.197 155.368 68.9643 147.411Z" fill="#CECB0D"/>
<path d="M211.122 -452.362C176.205 -460.478 140.564 -462.736 104.956 -459.041C62.8969 -454.701 22.7453 -442.207 -14.4072 -421.959C-51.5597 -401.71 -83.4987 -374.875 -109.292 -342.241C-134.218 -310.708 -152.433 -275.09 -163.396 -236.403C-174.386 -197.721 -177.568 -157.877 -172.898 -118.026C-168.059 -76.7512 -154.954 -37.2471 -133.934 -0.626828L-133.675 -0.783908L-133.934 -0.626828C-112.914 35.9934 -85.252 67.5609 -51.7137 93.1918C-19.3016 117.937 17.1853 136.136 56.7536 147.288C96.3279 158.414 136.974 161.943 177.615 157.735C219.674 153.395 259.825 140.901 296.978 120.653C334.13 100.404 366.069 73.5691 391.862 40.9346C416.788 9.40176 435.004 -26.2156 445.993 -64.8971C456.956 -103.585 460.165 -143.423 455.495 -183.274C450.656 -224.549 437.55 -264.053 416.531 -300.673C395.511 -337.293 367.849 -368.861 334.31 -394.492C301.898 -419.236 265.412 -437.436 225.843 -448.588C220.941 -449.944 216.046 -451.218 211.122 -452.362ZM71.6124 150.47C66.7145 149.331 61.8143 148.084 56.944 146.707C17.4486 135.6 -18.9916 117.439 -51.3246 92.7121C-84.8223 67.145 -112.417 35.6474 -133.396 -0.90911C-154.376 -37.4656 -167.473 -76.8863 -172.303 -118.078C-176.959 -157.871 -173.774 -197.606 -162.823 -236.242C-151.878 -274.853 -133.707 -310.399 -108.825 -341.861C-83.0702 -374.45 -51.2018 -401.22 -14.114 -421.429C22.9739 -441.638 63.0608 -454.092 105.009 -458.431C145.538 -462.639 186.131 -459.121 225.62 -447.988C265.116 -436.88 301.556 -418.719 333.889 -393.992C367.387 -368.425 394.982 -336.928 415.961 -300.371C436.94 -263.815 450.037 -224.394 454.868 -183.203C459.524 -143.409 456.338 -103.674 445.387 -65.0379C434.436 -26.4018 416.271 9.11871 391.389 40.5805C365.635 73.1695 333.766 99.9398 296.678 120.149C259.623 140.339 219.536 152.793 177.562 157.125C142.038 160.813 106.451 158.568 71.6124 150.47Z" fill="#C9CA0E"/>
<path d="M216.164 -459.606C180.642 -467.862 144.398 -470.151 108.194 -466.405C65.4232 -461.986 24.5881 -449.299 -13.2048 -428.683C-50.9917 -408.094 -83.4777 -380.815 -109.736 -347.61C-135.09 -315.552 -153.613 -279.328 -164.784 -239.983C-175.956 -200.638 -179.189 -160.099 -174.451 -119.581C-169.525 -77.6077 -156.189 -37.4255 -134.815 -0.180024L-134.556 -0.337084L-134.815 -0.180024C-113.441 37.0655 -85.2949 69.1797 -51.1641 95.2469C-18.2123 120.416 18.9233 138.929 59.1703 150.265C99.4173 161.602 140.778 165.162 182.098 160.894C224.87 156.475 265.705 143.788 303.498 123.173C341.284 102.583 373.77 75.3049 400.029 42.1C425.383 10.0421 443.906 -26.1825 455.083 -65.5532C466.254 -104.898 469.487 -145.437 464.75 -185.955C459.824 -227.928 446.487 -268.111 425.113 -305.356C403.739 -342.602 375.594 -374.716 341.463 -400.783C308.511 -425.952 271.375 -444.465 231.128 -455.801C226.147 -457.177 221.168 -458.443 216.164 -459.606ZM74.2602 153.529C69.2833 152.372 64.304 151.106 59.3284 149.705C19.1604 138.387 -17.9023 119.918 -50.7811 94.793C-84.8388 68.7699 -112.917 36.7256 -134.251 -0.456164C-155.584 -37.6379 -168.912 -77.7367 -173.83 -119.627C-178.579 -160.094 -175.344 -200.523 -164.185 -239.816C-153.031 -279.084 -134.553 -315.238 -109.237 -347.25C-83.0229 -380.384 -50.6278 -407.629 -12.9056 -428.179C24.8167 -448.73 65.5931 -461.403 108.279 -465.815C149.515 -470.075 190.79 -466.508 230.958 -455.19C271.126 -443.871 308.189 -425.402 341.068 -400.278C375.126 -374.255 403.204 -342.21 424.538 -305.028C445.871 -267.847 459.199 -227.748 464.117 -185.858C468.866 -145.391 465.631 -104.962 454.471 -65.6682C443.318 -26.4005 424.839 9.75292 399.524 41.7654C373.31 74.8992 340.915 102.144 303.192 122.695C265.47 143.245 224.694 155.919 182.008 160.33C145.895 164.044 109.704 161.767 74.2602 153.529Z" fill="#C4C90F"/>
<path d="M221.212 -466.875C185.11 -475.266 148.237 -477.593 111.439 -473.795C67.9551 -469.297 26.4043 -456.396 -12.017 -435.465C-50.4443 -414.509 -83.451 -386.782 -110.169 -353.032C-135.956 -320.423 -154.787 -283.592 -166.14 -243.583C-177.493 -203.575 -180.797 -162.374 -175.946 -121.151C-170.933 -78.478 -157.365 -37.6177 -135.637 0.25304L-135.378 0.0959607L-135.637 0.25304C-113.909 38.1238 -85.2795 70.7848 -50.5826 97.2822C-17.0647 122.881 20.667 141.696 61.5927 153.217C102.518 164.739 144.582 168.381 186.588 164.028C230.071 159.53 271.622 146.629 310.043 125.699C348.471 104.742 381.478 77.0147 408.196 43.2651C433.983 10.6564 452.813 -26.1753 464.167 -66.1838C475.52 -106.192 478.824 -147.393 473.973 -188.616C468.959 -231.289 455.392 -272.149 433.663 -310.02C411.935 -347.891 383.306 -380.552 348.609 -407.049C315.091 -432.648 277.359 -451.463 236.434 -462.984C231.347 -464.384 226.294 -465.694 221.212 -466.875ZM76.9075 156.587C71.8253 155.406 66.7731 154.096 61.7447 152.682C20.8981 141.179 -16.7869 122.403 -50.2319 96.8479C-84.8558 70.3946 -113.418 37.8036 -135.106 -0.00347567C-156.799 -37.7847 -170.358 -78.5616 -175.337 -121.145C-180.174 -162.31 -176.867 -203.402 -165.526 -243.359C-154.191 -283.29 -135.405 -320.051 -109.656 -352.614C-83.0082 -386.299 -50.0602 -414.012 -11.7035 -434.904C26.6592 -455.821 68.1191 -468.689 111.517 -473.179C153.439 -477.524 195.417 -473.875 236.27 -462.398C277.116 -450.895 314.801 -432.118 348.246 -406.563C382.87 -380.11 411.432 -347.519 433.12 -309.712C454.808 -271.905 468.367 -231.128 473.34 -188.519C478.176 -147.354 474.87 -106.262 463.529 -66.305C452.193 -26.3737 433.407 10.3869 407.658 42.9502C381.011 76.6347 348.063 104.349 309.706 125.24C271.343 146.157 229.883 159.025 186.485 163.516C149.745 167.3 112.957 164.966 76.9075 156.587Z" fill="#C0C810"/>
<path d="M226.255 -474.118C189.547 -482.651 152.071 -485.009 114.645 -481.139C70.4494 -476.563 28.2091 -463.442 -10.8466 -442.17C-49.9083 -420.872 -83.4681 -392.676 -110.626 -358.35C-136.84 -325.217 -155.978 -287.778 -167.519 -247.08C-179.061 -206.382 -182.409 -164.513 -177.491 -122.623C-172.396 -79.2254 -158.618 -37.719 -136.515 0.808965C-114.406 39.3111 -85.3198 72.5127 -50.0567 99.4403C-15.999 125.463 22.3815 144.592 63.9858 156.298C105.59 168.004 148.336 171.696 191.048 167.291C235.244 162.714 277.484 149.593 316.54 128.321C355.601 107.024 389.161 78.8278 416.319 44.5016C442.533 11.3679 461.671 -26.071 473.213 -66.7688C484.754 -107.467 488.102 -149.336 483.184 -191.226C478.089 -234.623 464.311 -276.13 442.208 -314.658C420.099 -353.16 391.013 -386.361 355.75 -413.289C321.692 -439.312 283.312 -458.44 241.707 -470.147C236.58 -471.61 231.416 -472.919 226.255 -474.118ZM-136.251 0.626144L-135.992 0.46906C-158.06 -37.9694 -171.797 -79.412 -176.884 -122.726C-181.788 -164.559 -178.431 -206.344 -166.908 -246.965C-155.39 -287.56 -136.297 -324.927 -110.121 -358.016C-83.0336 -392.277 -49.5445 -420.408 -10.5474 -441.666C28.4497 -462.925 70.599 -476.012 114.71 -480.581C157.337 -484.98 199.971 -481.286 241.529 -469.618C283.054 -457.93 321.356 -438.82 355.346 -412.867C390.563 -385.977 419.582 -352.846 441.624 -314.413C463.692 -275.975 477.43 -234.532 482.516 -191.218C487.42 -149.386 484.063 -107.6 472.54 -66.9794C461.023 -26.3847 441.929 10.9831 415.753 44.0714C388.666 78.3325 355.177 106.463 316.18 127.722C277.182 148.98 235.033 162.068 190.923 166.637C148.295 171.035 105.634 167.336 64.1031 155.674C22.5778 143.986 -15.7236 124.876 -49.7144 98.9227C-84.9308 72.0331 -113.95 38.9014 -135.992 0.46906L-136.251 0.626144Z" fill="#BBC712"/>
<path d="M231.304 -481.387C193.991 -490.06 155.911 -492.451 117.891 -488.529C72.9565 -483.88 30.059 -470.559 -9.6371 -448.92C-49.3332 -427.281 -83.446 -398.616 -111.037 -363.739C-137.685 -330.055 -157.13 -292.009 -168.848 -250.673C-180.565 -209.338 -183.99 -166.781 -178.984 -124.191C-173.834 -80.0754 -159.832 -37.8652 -137.368 1.26224C-114.905 40.3897 -85.3556 74.1062 -49.5061 101.496C-14.8822 127.949 24.0943 147.379 66.3773 159.27C108.654 171.187 152.108 174.935 195.507 170.445C240.441 165.795 283.338 152.475 323.034 130.836C362.731 109.197 396.843 80.532 424.434 45.6551C451.082 11.9705 470.528 -26.0755 482.245 -67.411C493.962 -108.747 497.387 -151.304 492.382 -193.893C487.2 -237.989 473.197 -280.199 450.733 -319.327C428.27 -358.454 398.721 -392.171 362.871 -419.561C328.247 -446.014 289.271 -465.443 246.988 -477.335C241.781 -478.816 236.544 -480.169 231.304 -481.387ZM-137.11 1.10518L-136.851 0.948104C-159.247 -38.1095 -173.248 -80.2106 -178.39 -124.243C-183.387 -166.749 -179.98 -209.229 -168.274 -250.513C-156.575 -291.771 -137.141 -329.766 -110.564 -363.385C-83.0438 -398.197 -48.9753 -426.791 -9.37019 -448.396C30.2613 -469.996 73.1001 -483.303 117.923 -487.951C161.236 -492.434 204.605 -488.679 246.809 -476.806C289.013 -464.933 327.937 -445.516 362.494 -419.132C398.277 -391.813 427.779 -358.134 450.202 -319.07C472.624 -280.007 486.593 -237.886 491.767 -193.873C496.764 -151.367 493.357 -108.887 481.651 -67.6033C469.952 -26.3451 450.518 11.6495 423.941 45.269C396.421 80.0809 362.352 108.674 322.747 130.28C283.116 151.88 240.277 165.187 195.454 169.835C152.141 174.318 108.772 170.563 66.5676 158.69C24.3636 146.817 -14.5602 127.4 -49.1171 101.016C-84.8996 73.6964 -114.402 40.0179 -136.825 0.954226L-137.11 1.10518Z" fill="#B6C613"/>
<path d="M236.32 -488.637C198.427 -497.444 159.75 -499.892 121.076 -495.905C75.4293 -491.177 31.8425 -477.637 -8.48806 -455.656C-48.8186 -433.676 -83.4844 -404.543 -111.509 -369.115C-138.557 -334.9 -158.343 -296.227 -170.269 -254.234C-182.194 -212.241 -185.643 -168.984 -180.571 -125.727C-175.301 -80.932 -161.067 -38.0437 -138.276 1.70288L-138.018 1.54579L-138.276 1.70288C-115.459 41.4556 -85.4257 75.7188 -49.01 103.539C-13.8463 130.416 25.7789 150.159 68.7346 162.261C111.69 174.363 155.827 178.161 199.931 173.618C245.578 168.89 289.164 155.349 329.495 133.369C369.826 111.389 404.491 82.2555 432.516 46.8278C459.57 12.5863 479.35 -26.0608 491.276 -68.0537C503.201 -110.047 506.65 -153.304 501.578 -196.56C496.308 -241.356 482.074 -284.244 459.283 -323.99C436.466 -363.743 406.433 -398.006 370.017 -425.826C334.853 -452.704 295.228 -472.447 252.272 -484.549C246.981 -486.023 241.665 -487.394 236.32 -488.637ZM84.8717 165.795C79.5525 164.559 74.2369 163.187 68.9453 161.713C26.0626 149.655 -13.4836 129.93 -48.6006 103.091C-84.9433 75.3151 -114.936 41.1157 -137.712 1.42672C-160.489 -38.2623 -174.688 -81.061 -179.95 -125.773C-185.008 -168.972 -181.556 -212.12 -169.669 -254.067C-157.788 -295.989 -138.046 -334.591 -111.042 -368.735C-83.0619 -404.092 -48.4667 -433.16 -8.22716 -455.107C32.0387 -477.048 75.567 -490.575 121.122 -495.27C165.116 -499.812 209.193 -496.001 252.076 -483.943C294.959 -471.885 334.505 -452.16 369.622 -425.321C405.965 -397.545 435.957 -363.346 458.734 -323.657C481.51 -283.968 495.71 -241.169 500.971 -196.457C506.029 -153.258 502.578 -110.11 490.69 -68.1626C478.809 -26.2408 459.067 12.3609 432.063 46.5054C404.083 81.862 369.488 110.93 329.248 132.877C288.983 154.818 245.454 168.345 199.899 173.04C161.31 177.02 122.685 174.584 84.8717 165.795Z" fill="#B1C514"/>
<path d="M241.367 -495.906C202.868 -504.855 163.562 -507.34 124.313 -503.27C77.9545 -498.463 33.6578 -484.734 -7.31316 -462.387C-48.2781 -440.066 -83.4909 -410.49 -111.955 -374.485C-139.437 -339.719 -159.524 -300.465 -171.638 -257.782C-183.745 -215.126 -187.265 -171.206 -182.105 -127.251C-176.754 -81.7312 -162.309 -38.1967 -139.138 2.18133L-138.879 2.02425L-139.138 2.18133C-115.966 42.5593 -85.4495 77.3693 -48.4677 105.619C-12.7318 132.901 27.5098 152.978 71.1441 165.265C114.778 177.551 159.617 181.431 204.408 176.803C250.766 171.996 295.063 158.268 336.034 135.92C376.999 113.599 412.212 84.023 440.675 48.0187C468.157 13.2522 488.245 -26.0021 500.358 -68.6843C512.466 -111.341 515.986 -155.26 510.826 -199.216C505.475 -244.736 491.03 -288.27 467.859 -328.648C444.687 -369.026 414.17 -403.836 377.189 -432.086C341.453 -459.368 301.211 -479.445 257.577 -491.731C252.186 -493.256 246.791 -494.646 241.367 -495.906ZM87.5183 168.853C82.1201 167.599 76.7255 166.209 71.3608 164.691C27.8055 152.422 -12.3631 132.39 -48.026 105.152C-84.9611 76.9398 -115.411 42.1998 -138.542 1.88553C-161.673 -38.4287 -176.103 -81.9056 -181.445 -127.342C-186.597 -171.214 -183.069 -215.05 -171 -257.661C-158.91 -300.241 -138.861 -339.449 -111.423 -374.145C-83.0038 -410.078 -47.8616 -439.589 -6.98164 -461.903C33.9187 -484.185 78.1101 -497.938 124.404 -502.706C169.109 -507.327 213.869 -503.465 257.425 -491.197C300.98 -478.928 341.149 -458.896 376.812 -431.658C413.747 -403.446 444.196 -368.706 467.327 -328.392C490.458 -288.077 504.888 -244.6 510.231 -199.164C515.382 -155.292 511.854 -111.456 499.785 -68.8447C487.695 -26.2655 467.646 12.9433 440.209 47.6387C411.789 83.5719 376.647 113.083 335.767 135.397C294.867 157.679 250.675 171.432 204.382 176.2C165.165 180.25 125.938 177.783 87.5183 168.853Z" fill="#ACC315"/>
<path d="M246.409 -503.15C207.305 -512.239 167.421 -514.75 127.551 -510.634C80.4544 -505.755 35.4945 -491.8 -6.1108 -469.112C-47.7161 -446.424 -83.476 -416.404 -112.373 -379.849C-140.288 -344.532 -160.683 -304.671 -172.973 -261.351C-185.263 -218.031 -188.832 -173.417 -183.606 -128.795C-178.167 -82.5756 -163.498 -38.3373 -139.972 2.66597L-139.713 2.50889L-139.972 2.66597C-116.446 43.6692 -85.4458 79.0259 -47.8979 107.706C-11.6223 135.412 29.2418 155.796 73.5548 168.268C117.868 180.74 163.389 184.669 208.886 179.988C255.983 175.109 300.943 161.154 342.548 138.466C384.153 115.778 419.913 85.7586 448.81 49.2035C476.725 13.8862 497.121 -25.9752 509.41 -69.2951C521.7 -112.615 525.269 -157.229 520.043 -201.851C514.631 -248.064 499.929 -292.283 476.409 -333.312C452.883 -374.315 421.883 -409.672 384.335 -438.352C348.059 -466.058 307.195 -486.442 262.882 -498.914C257.386 -500.463 251.912 -501.871 246.409 -503.15ZM90.1659 171.912C84.6624 170.633 79.1888 169.225 73.7451 167.688C29.5111 155.234 -11.2799 134.894 -47.5088 107.227C-85.0101 78.5842 -115.943 43.2975 -139.428 2.35793C-162.92 -38.5558 -177.581 -82.7107 -182.984 -128.84C-188.223 -173.411 -184.651 -217.916 -172.373 -261.184C-160.102 -304.427 -139.745 -344.243 -111.874 -379.489C-83.0212 -415.973 -47.326 -445.953 -5.81159 -468.608C35.7291 -491.257 80.6039 -505.204 127.61 -510.05C173.001 -514.756 218.464 -510.813 262.698 -498.359C306.932 -485.906 347.723 -465.566 383.952 -437.898C421.453 -409.256 452.386 -373.969 475.872 -333.029C499.357 -292.09 514.018 -247.935 519.448 -201.799C524.687 -157.229 521.114 -112.724 508.837 -69.4555C496.559 -26.1871 476.208 13.6031 448.337 48.8493C419.485 85.3332 383.789 115.313 342.275 137.968C300.714 160.585 255.839 174.532 208.833 179.379C169.016 183.507 129.191 180.983 90.1659 171.912Z" fill="#A7C217"/>
<path d="M251.45 -510.393C211.767 -519.617 171.254 -522.166 130.757 -517.979C82.9534 -513.046 37.2981 -498.846 -4.93569 -475.842C-47.1754 -452.813 -83.462 -422.319 -112.819 -385.219C-141.161 -349.377 -161.864 -308.908 -174.342 -264.899C-186.813 -220.916 -190.46 -175.614 -185.14 -130.318C-179.64 -83.4066 -164.74 -38.4902 -140.833 3.14445C-116.927 44.7791 -85.4957 80.6703 -47.3553 109.787C-10.5135 137.923 30.9729 158.615 75.9645 171.271C120.956 183.928 167.18 187.94 213.363 183.173C261.166 178.241 306.821 164.041 349.061 141.011C391.301 117.982 427.587 87.4881 456.944 50.3883C485.286 14.546 505.989 -25.9226 518.467 -69.9318C530.938 -113.915 534.585 -159.217 529.265 -204.513C523.765 -251.424 508.865 -296.341 484.958 -337.975C461.052 -379.61 429.621 -415.501 391.481 -444.618C354.639 -472.754 313.152 -493.446 268.161 -506.102C262.612 -507.663 257.033 -509.096 251.45 -510.393ZM92.8127 174.97C87.2302 173.673 81.6776 172.246 76.1286 170.685C31.2159 158.047 -10.1975 137.399 -46.9663 109.307C-85.0336 80.2347 -116.424 44.4073 -140.29 2.83641C-164.129 -38.7284 -179.027 -83.5356 -184.512 -130.39C-189.818 -175.628 -186.196 -220.826 -173.736 -264.758C-161.282 -308.665 -140.618 -349.088 -112.319 -384.859C-83.0275 -421.919 -46.7852 -452.342 -4.61014 -475.332C37.565 -498.322 83.1233 -512.464 130.848 -517.414C176.945 -522.173 223.09 -518.18 268.003 -505.542C312.915 -492.903 354.329 -472.256 391.097 -444.164C429.165 -415.091 460.555 -379.264 484.421 -337.693C508.287 -296.122 523.153 -251.295 528.644 -204.467C533.949 -159.229 530.327 -114.03 517.867 -70.0983C505.414 -26.1922 484.749 14.231 456.451 50.0022C427.159 87.0627 390.916 117.486 348.741 140.476C306.566 163.466 261.002 177.633 213.284 182.558C172.898 186.744 132.443 184.182 92.8127 174.97Z" fill="#A2C118"/>
<path d="M256.5 -517.662C216.211 -527.027 175.094 -529.607 134.002 -525.368C85.487 -520.357 39.1482 -505.963 -3.726 -482.592C-46.6265 -459.228 -83.4661 -428.265 -113.262 -390.589C-142.038 -354.195 -163.048 -313.12 -175.702 -268.473C-188.356 -223.826 -192.046 -177.856 -186.665 -131.867C-181.085 -84.2307 -165.947 -38.6621 -141.686 3.59788C-117.426 45.8578 -85.511 82.2957 -46.8045 111.843C-9.42291 140.403 32.6859 161.402 78.3562 174.243C123.994 187.105 170.933 191.147 217.801 186.296C266.317 181.284 312.655 166.89 355.529 143.52C398.404 120.149 435.243 89.1864 465.033 51.5358C493.809 15.1427 514.82 -25.933 527.473 -70.58C540.127 -115.227 543.817 -161.197 538.437 -207.185C532.856 -254.822 517.718 -300.391 493.458 -342.651C469.197 -384.911 437.282 -421.348 398.576 -450.895C361.194 -479.455 319.085 -500.455 273.415 -513.296C267.819 -514.895 262.161 -516.346 256.5 -517.662ZM95.4557 178.055C89.7942 176.739 84.1626 175.294 78.5346 173.715C32.9433 160.892 -9.08653 139.911 -46.4274 111.414C-85.0813 81.8798 -116.935 45.5376 -141.155 3.34136C-165.375 -38.8548 -180.472 -84.3598 -186.05 -131.887C-191.449 -177.798 -187.75 -223.685 -175.108 -268.28C-162.473 -312.85 -141.474 -353.874 -112.769 -390.202C-83.0436 -427.814 -46.2483 -458.705 -3.43875 -482.037C39.3708 -505.368 85.6186 -519.729 134.081 -524.752C180.865 -529.596 227.718 -525.547 273.304 -512.698C318.895 -499.875 360.925 -478.894 398.266 -450.397C436.919 -420.863 468.773 -384.52 492.993 -342.324C517.213 -300.128 532.31 -254.623 537.888 -207.096C543.287 -161.185 539.588 -115.298 526.947 -70.7024C514.311 -26.1327 493.312 14.8915 464.607 51.2196C434.882 88.8309 398.087 119.722 355.277 143.054C312.467 166.385 266.22 180.746 217.757 185.769C176.75 190.001 135.692 187.408 95.4557 178.055Z" fill="#9DC019"/>
<path d="M261.514 -524.912C220.62 -534.418 178.906 -537.055 137.187 -532.745C87.933 -527.661 40.9048 -513.047 -2.6038 -489.335C-46.1124 -465.623 -83.499 -434.218 -113.728 -395.991C-142.932 -359.072 -164.256 -317.364 -177.091 -272.053C-189.953 -226.749 -193.694 -180.085 -188.22 -133.423C-182.552 -85.0876 -167.183 -38.8409 -142.568 4.04437C-117.953 46.9296 -85.5492 83.8885 -46.2622 113.923C-8.31453 142.914 34.4167 164.22 80.7597 177.272C127.129 190.331 174.717 194.442 222.272 189.506C271.526 184.422 318.554 169.809 362.062 146.097C405.571 122.385 442.958 90.9794 473.187 52.7523C502.39 15.8341 523.714 -25.8745 536.55 -71.1849C549.412 -116.489 553.153 -163.154 547.678 -209.815C542.01 -258.151 526.642 -304.397 502.027 -347.283C477.412 -390.168 445.008 -427.127 405.721 -457.161C367.773 -486.152 325.042 -507.459 278.699 -520.511C273.018 -522.103 267.281 -523.572 261.514 -524.912ZM-142.289 3.91918L-142.031 3.76212C-166.585 -39.0275 -181.913 -85.2104 -187.572 -133.463C-193.032 -180.067 -189.315 -226.628 -176.465 -271.881C-163.621 -317.108 -142.342 -358.745 -113.209 -395.598C-83.0238 -433.754 -45.7018 -465.121 -2.25791 -488.793C41.186 -512.466 88.1233 -527.046 137.298 -532.149C184.788 -537.045 232.297 -532.952 278.588 -519.912C324.852 -506.878 367.51 -485.616 405.411 -456.663C444.631 -426.699 476.968 -389.81 501.542 -346.988C526.117 -304.167 541.444 -257.984 547.104 -209.732C552.564 -163.128 548.847 -116.566 535.997 -71.3135C523.153 -26.0864 501.873 15.5511 472.74 52.4043C442.555 90.5602 405.233 121.927 361.79 145.599C318.346 169.272 271.408 183.852 222.233 188.955C174.744 193.851 127.208 189.752 80.944 176.718C34.68 163.684 -7.97816 142.422 -45.8852 113.495C-85.1051 83.5302 -117.442 46.6412 -142.017 3.81974L-142.289 3.91918Z" fill="#98BF1A"/>
<path d="M266.561 -532.182C225.087 -541.822 182.743 -544.498 140.429 -540.135C90.4632 -534.972 42.7455 -520.139 -1.39744 -496.086C-45.5404 -472.033 -83.4801 -440.159 -114.143 -401.381C-143.779 -363.912 -165.405 -321.622 -178.455 -275.628C-191.505 -229.634 -195.284 -182.328 -189.723 -134.967C-183.967 -85.9325 -168.394 -39.0139 -143.431 4.52241L-143.172 4.36535L-143.431 4.52241C-118.461 48.0329 -85.5739 85.5385 -45.7207 116.003C-7.23324 145.418 36.1467 167.038 83.1684 180.275C130.19 193.512 178.513 197.686 226.748 192.691C276.714 187.528 324.431 172.695 368.574 148.642C412.717 124.589 450.657 92.7146 481.32 53.9367C510.956 16.4677 532.582 -25.8223 545.632 -71.8159C558.676 -117.784 562.461 -165.116 556.9 -212.477C551.144 -261.511 535.571 -308.43 510.608 -351.966C485.638 -395.477 452.751 -432.982 412.898 -463.447C374.41 -492.862 331.03 -514.482 284.008 -527.719C278.222 -529.336 272.407 -530.823 266.561 -532.182ZM100.774 184.178C94.9547 182.825 89.1387 181.337 83.3587 179.695C36.4161 166.477 -6.89088 144.9 -45.3054 115.53C-85.0915 85.1349 -117.912 47.6991 -142.841 4.25239C-167.769 -39.1944 -183.328 -86.0554 -189.075 -135.006C-194.628 -182.284 -190.834 -229.533 -177.803 -275.449C-164.771 -321.366 -143.189 -363.584 -113.597 -400.982C-82.9726 -439.715 -45.1036 -471.524 -1.02523 -495.538C43.0531 -519.551 90.6798 -534.352 140.561 -539.507C188.736 -544.489 236.975 -540.308 283.923 -527.115C330.866 -513.896 374.173 -492.32 412.588 -462.949C452.374 -432.554 485.194 -395.119 510.123 -351.672C535.052 -308.225 550.61 -261.364 556.357 -212.413C561.911 -165.136 558.117 -117.887 545.085 -71.9702C532.059 -26.0796 510.472 16.165 480.879 53.5629C450.255 92.2954 412.386 124.105 368.307 148.118C324.229 172.132 276.602 186.933 226.721 192.088C184.46 196.462 142.169 193.799 100.774 184.178Z" fill="#94BE1C"/>
<path d="M271.603 -539.425C229.524 -549.206 186.577 -551.913 143.662 -547.473C92.984 -542.232 44.5828 -527.204 -0.200579 -502.784C-44.984 -478.364 -83.4706 -446.047 -114.573 -406.693C-144.61 -368.693 -166.576 -325.776 -179.802 -279.144C-193.028 -232.513 -196.89 -184.492 -191.235 -136.459C-185.392 -86.7252 -169.594 -39.1027 -144.27 5.03309C-118.947 49.1689 -85.6021 87.2151 -45.1565 118.116C-6.10284 147.961 37.8732 169.883 85.5735 183.305C133.248 196.721 182.273 200.976 231.22 195.902C281.898 190.661 330.299 175.633 375.083 151.213C419.866 126.793 458.353 94.4763 489.455 55.1218C519.492 17.1216 541.458 -25.7952 554.684 -72.4266C567.91 -119.058 571.772 -167.079 566.117 -215.112C560.274 -264.846 544.476 -312.468 519.153 -356.604C493.829 -400.74 460.484 -438.786 420.039 -469.687C380.985 -499.532 337.009 -521.454 289.309 -534.876C283.423 -536.542 277.528 -538.048 271.603 -539.425ZM103.422 187.236C97.4975 185.859 91.6026 184.353 85.7436 182.693C38.1222 169.289 -5.80115 147.38 -44.7878 117.605C-85.1664 86.7735 -118.444 48.7971 -143.727 4.72507C-169.01 -39.347 -184.8 -86.8861 -190.634 -136.536C-196.248 -184.506 -192.41 -232.424 -179.196 -279.004C-165.988 -325.558 -144.067 -368.403 -114.067 -406.358C-83.0098 -445.642 -44.5878 -477.92 0.124966 -502.274C44.8437 -526.655 93.1539 -541.65 143.747 -546.884C192.635 -551.944 241.556 -547.713 289.177 -534.309C336.798 -520.906 380.722 -498.996 419.708 -469.221C460.087 -438.39 493.365 -400.413 518.647 -356.341C543.93 -312.269 559.72 -264.73 565.554 -215.08C571.195 -167.104 567.33 -119.193 554.117 -72.6127C540.909 -26.0586 518.987 16.7871 488.988 54.7418C457.93 94.0252 419.508 126.303 374.795 150.658C330.077 175.039 281.767 190.033 231.173 195.267C188.311 199.719 145.423 196.999 103.422 187.236Z" fill="#8FBD1D"/>
<path d="M276.653 -546.694C233.968 -556.616 190.418 -559.355 146.882 -554.869C95.4912 -549.549 46.4005 -534.301 0.982754 -509.54C-44.435 -484.779 -83.4747 -451.993 -115.01 -412.088C-145.481 -373.537 -167.754 -330.013 -181.162 -282.718C-194.57 -235.423 -198.476 -186.734 -192.76 -138.008C-186.836 -87.5496 -170.801 -39.2748 -145.124 5.48621C-119.419 50.2534 -85.6174 88.8403 -44.6057 120.172C-5.00627 150.415 39.6125 172.676 87.9915 186.283C136.37 199.89 186.079 204.195 235.705 199.062C287.095 193.742 336.186 178.494 381.604 153.733C427.022 128.972 466.061 96.1865 497.597 56.2812C528.068 17.7303 550.341 -25.7937 563.749 -73.0886C577.157 -120.384 581.063 -169.072 575.347 -217.799C569.423 -268.257 553.388 -316.532 527.71 -361.293C502.006 -406.06 468.204 -444.647 427.192 -475.979C387.593 -506.222 342.974 -528.483 294.595 -542.09C288.651 -543.743 282.657 -545.299 276.653 -546.694ZM106.071 190.295C100.067 188.9 94.0935 187.375 88.1292 185.69C39.8292 172.102 -4.71658 149.885 -44.243 119.686C-85.1877 88.4244 -118.949 49.9013 -144.613 5.19783C-170.276 -39.5056 -186.27 -87.7166 -192.192 -138.066C-197.899 -186.709 -194.011 -235.321 -180.615 -282.564C-167.225 -329.782 -144.996 -373.234 -114.57 -411.714C-83.0786 -451.548 -44.1035 -484.295 1.24366 -508.991C46.5968 -533.713 95.5965 -548.927 146.928 -554.234C196.496 -559.354 246.099 -555.072 294.425 -541.478C342.725 -527.889 387.271 -505.672 426.797 -475.473C467.742 -444.212 501.503 -405.689 527.167 -360.985C552.83 -316.282 568.825 -268.071 574.746 -217.722C580.454 -169.078 576.565 -120.467 563.143 -73.2294C549.753 -26.0117 527.524 17.4411 497.097 55.9209C465.607 95.755 426.631 128.502 381.284 153.198C335.931 177.919 286.931 193.134 235.6 198.441C192.169 202.951 148.678 200.198 106.071 190.295Z" fill="#8ABC1E"/>
<path d="M281.696 -553.938C238.431 -563.994 194.258 -566.796 150.115 -562.207C97.9856 -556.814 48.2055 -541.347 2.15327 -516.245C-43.8989 -491.143 -83.4593 -457.908 -115.46 -417.432C-146.359 -378.356 -168.94 -334.225 -182.529 -286.266C-196.146 -238.314 -200.102 -188.931 -194.293 -139.531C-188.282 -88.374 -172.042 -39.4273 -145.984 5.9652L-145.725 5.80814L-145.984 5.9652C-119.925 51.3577 -85.6396 90.4913 -44.0617 122.253C-3.89619 152.926 41.345 175.495 90.3763 189.281C139.46 203.078 189.818 207.454 240.157 202.242C292.286 196.849 342.066 181.382 388.118 156.279C434.17 131.177 473.731 97.9422 505.732 57.4665C536.63 18.3905 559.211 -25.7406 572.801 -73.699C586.417 -121.651 590.374 -171.034 584.565 -220.434C578.553 -271.591 562.314 -320.538 536.255 -365.931C510.197 -411.323 475.911 -450.457 434.333 -482.218C394.168 -512.891 348.927 -535.46 299.895 -549.246C293.858 -550.975 287.779 -552.524 281.696 -553.938ZM108.713 193.38C102.631 191.966 96.5777 190.423 90.5344 188.72C41.5557 174.947 -3.61247 152.422 -43.705 121.793C-85.2099 90.0754 -119.461 51.0313 -145.478 5.70257C-171.496 -39.6261 -187.721 -88.5152 -193.698 -139.583C-199.493 -188.925 -195.534 -238.199 -181.956 -286.106C-168.384 -333.987 -145.848 -378.047 -114.987 -417.078C-83.0308 -457.482 -43.5351 -490.678 2.45248 -515.741C48.44 -540.804 98.1292 -556.238 150.173 -561.624C200.427 -566.828 250.759 -562.459 299.737 -548.685C348.716 -534.912 393.884 -512.387 433.977 -481.758C475.481 -450.041 509.732 -410.997 535.75 -365.668C561.768 -320.339 577.993 -271.45 583.97 -220.383C589.765 -171.04 585.805 -121.766 572.228 -73.8594C558.656 -25.9782 536.119 18.0817 505.259 57.1123C473.302 97.5169 433.807 130.713 387.819 155.776C341.831 180.838 292.142 196.273 240.098 201.658C196.026 206.182 151.925 203.424 108.713 193.38Z" fill="#85BB1F"/>
<path d="M286.715 -561.214C242.844 -571.411 198.068 -574.245 153.33 -569.604C100.489 -564.133 50.025 -548.471 3.33839 -523.028C-43.3482 -497.584 -83.4616 -463.881 -115.896 -422.854C-147.228 -383.228 -170.116 -338.489 -183.888 -289.867C-197.66 -241.245 -201.687 -191.2 -195.817 -141.107C-189.718 -89.2513 -173.248 -39.6265 -146.841 6.41699L-146.582 6.25991L-146.841 6.41699C-120.428 52.4347 -85.6592 92.115 -43.5152 124.307C-2.80981 155.404 43.0538 178.281 92.7841 192.283C142.514 206.285 193.613 210.697 244.632 205.426C297.473 199.954 347.937 184.293 394.623 158.85C441.31 133.406 481.423 99.7026 513.857 58.6761C545.189 19.0493 568.078 -25.689 581.85 -74.3109C595.648 -122.927 599.649 -172.978 593.779 -223.071C587.68 -274.927 571.209 -324.552 544.803 -370.595C518.39 -416.613 483.621 -456.293 441.477 -488.485C400.771 -519.582 354.908 -542.459 305.177 -556.461C299.055 -558.183 292.903 -559.776 286.715 -561.214ZM111.358 196.437C105.196 195.005 99.0441 193.412 92.9218 191.691C43.2705 177.707 -2.52011 154.874 -43.1788 123.815C-85.2558 91.693 -119.958 52.0826 -146.33 6.12858C-172.702 -39.8254 -189.158 -89.3926 -195.222 -141.159C-201.084 -191.168 -197.075 -241.137 -183.315 -289.707C-169.535 -338.246 -146.69 -382.913 -115.429 -422.474C-83.0391 -463.43 -42.9963 -497.068 3.63163 -522.498C50.2536 -547.902 100.632 -563.556 153.388 -569.021C204.348 -574.278 255.368 -569.885 305.019 -555.901C354.671 -541.917 400.461 -519.084 441.126 -488.051C483.223 -455.897 517.925 -416.287 544.303 -370.358C570.675 -324.404 587.132 -274.837 593.196 -223.071C599.057 -173.061 595.048 -123.093 581.288 -74.5228C567.508 -25.9843 544.664 18.6828 513.403 58.2446C481.013 99.2 440.97 132.839 394.342 158.268C347.72 183.673 297.341 199.327 244.585 204.791C199.874 209.438 155.176 206.622 111.358 196.437Z" fill="#80BA21"/>
<path d="M291.759 -568.457C247.283 -578.795 201.903 -581.66 156.544 -576.974C102.99 -571.423 51.8373 -555.542 4.5163 -529.758C-42.8047 -503.973 -83.4712 -469.801 -116.339 -428.224C-148.098 -388.072 -171.294 -342.726 -185.28 -293.421C-199.26 -244.142 -203.338 -193.402 -197.374 -142.637C-191.221 -90.0618 -174.519 -39.759 -147.726 6.89014C-120.959 53.5331 -85.7063 93.7602 -42.9961 126.382C-1.72466 157.91 44.7613 181.094 95.1703 195.281C145.579 209.468 197.355 213.956 249.085 208.606C302.639 203.056 353.792 187.174 401.113 161.39C448.434 135.605 489.1 101.433 521.968 59.8556C553.727 19.7038 576.923 -25.6417 590.909 -74.9468C604.889 -124.226 608.967 -174.966 603.003 -225.731C596.85 -278.306 580.148 -328.609 553.355 -375.258C526.588 -421.901 491.356 -462.096 448.625 -494.75C407.354 -526.278 360.868 -549.462 310.459 -563.649C304.257 -565.389 298.026 -567 291.759 -568.457ZM-147.447 6.76494L-147.188 6.60786C-173.915 -39.9714 -190.602 -90.2166 -196.753 -142.682C-202.702 -193.39 -198.649 -244.027 -184.681 -293.255C-170.718 -342.457 -147.56 -387.757 -115.846 -427.837C-83.0223 -469.344 -42.4265 -503.451 4.83586 -529.222C52.0922 -554.967 103.16 -570.841 156.629 -576.384C208.274 -581.727 259.997 -577.251 310.327 -563.082C360.657 -548.913 407.07 -525.774 448.268 -494.29C490.932 -461.706 526.117 -421.549 552.85 -374.995C579.576 -328.416 596.263 -278.171 602.414 -225.705C608.37 -175.023 604.31 -124.361 590.342 -75.1329C576.38 -25.9309 553.222 19.3692 521.533 59.456C488.71 100.962 448.114 135.069 400.852 160.84C353.595 186.586 302.527 202.46 249.059 208.003C197.413 213.345 145.691 208.87 95.3607 194.701C45.0307 180.532 -1.3823 157.392 -42.5808 125.909C-85.2442 93.3247 -120.43 53.1675 -147.156 6.58822L-147.447 6.76494Z" fill="#7BB822"/>
<path d="M296.799 -575.701C251.744 -586.173 205.734 -589.076 159.78 -584.338C105.494 -578.741 53.6781 -562.634 5.71668 -536.482C-42.2447 -510.331 -83.4582 -475.716 -116.785 -433.594C-148.978 -392.891 -172.482 -346.938 -186.644 -296.996C-200.806 -247.053 -204.928 -195.645 -198.903 -144.186C-192.662 -90.9126 -175.73 -39.9317 -148.582 7.34267L-148.324 7.18559L-148.582 7.34267C-121.467 54.6367 -85.7513 95.3786 -42.4546 128.463C-0.643336 160.414 46.465 183.906 97.5527 198.278C148.64 212.65 201.124 217.194 253.535 211.785C307.821 206.188 359.637 190.08 407.598 163.929C455.56 137.777 496.773 103.162 530.074 61.0341C562.266 20.3315 585.77 -25.6211 599.932 -75.5639C614.095 -125.507 618.217 -176.915 612.192 -228.373C605.951 -281.647 589.018 -332.628 561.871 -379.902C534.75 -427.171 499.034 -467.912 455.737 -500.997C413.926 -532.948 366.818 -556.44 315.73 -570.812C309.462 -572.622 303.145 -574.225 296.799 -575.701ZM116.68 202.561C110.334 201.086 104.05 199.462 97.743 197.698C46.7344 183.344 -0.300979 159.897 -42.0656 127.983C-85.2952 94.9688 -120.964 54.2649 -148.045 7.0604C-175.125 -40.1441 -192.044 -91.0674 -198.276 -144.258C-204.319 -195.639 -200.188 -246.964 -186.038 -296.855C-171.894 -346.72 -148.428 -392.628 -116.28 -433.259C-83.0178 -475.342 -41.8749 -509.892 6.02189 -536.004C53.9187 -562.117 105.67 -578.184 159.871 -583.774C212.229 -589.195 264.601 -584.65 315.636 -570.29C366.645 -555.937 413.68 -532.489 455.445 -500.576C498.675 -467.562 534.344 -426.858 561.424 -379.653C588.505 -332.449 605.423 -281.525 611.662 -228.361C617.678 -176.985 613.574 -125.655 599.424 -75.7636C585.28 -25.8981 561.814 20.0091 529.666 60.6406C496.403 102.723 455.26 137.273 407.364 163.386C359.467 189.498 307.715 205.566 253.514 211.156C207.607 215.932 161.656 213.015 116.68 202.561Z" fill="#76B723"/>
<path d="M301.85 -582.97C256.189 -593.583 209.576 -596.518 163.021 -591.703C108.023 -586.026 55.4908 -569.706 6.89502 -543.213C-41.7008 -516.72 -83.4673 -481.636 -117.228 -438.963C-149.821 -397.73 -173.639 -351.144 -188.009 -300.544C-202.353 -249.937 -206.552 -197.842 -200.434 -145.71C-194.079 -91.7309 -176.942 -40.0781 -149.446 7.84737C-121.945 55.7471 -85.7717 97.0296 -41.8826 130.55C0.49484 162.932 48.2256 186.731 99.9919 201.288C151.752 215.871 204.918 220.464 258.047 214.951C313.045 209.275 365.577 192.954 414.173 166.461C462.769 139.969 504.535 104.885 538.296 62.2119C570.916 20.9842 594.733 -25.6013 609.077 -76.2077C623.421 -126.814 627.62 -178.91 621.502 -231.042C615.174 -285.014 598.01 -336.673 570.535 -384.567C543.033 -432.467 506.86 -473.749 462.971 -507.27C420.593 -539.652 372.863 -563.45 321.096 -578.007C314.664 -579.828 308.275 -581.476 301.85 -582.97ZM-149.188 7.69029L-148.929 7.53321C-176.391 -40.3027 -193.519 -91.8722 -199.833 -145.787C-205.943 -197.836 -201.762 -249.854 -187.43 -300.409C-173.104 -350.938 -149.304 -397.447 -116.755 -438.609C-83.0592 -481.243 -41.3633 -516.262 7.16791 -542.715C55.6991 -569.169 108.14 -585.456 163.053 -591.125C216.091 -596.605 269.172 -592.004 320.886 -577.459C372.573 -562.921 420.225 -539.14 462.535 -506.828C506.351 -473.352 542.484 -432.133 569.918 -384.303C597.379 -336.467 614.508 -284.898 620.822 -230.983C626.932 -178.934 622.751 -126.916 608.419 -76.3607C594.093 -25.8316 570.293 20.6766 537.744 61.8393C504.048 104.473 462.352 139.492 413.821 165.945C365.29 192.399 312.849 208.686 257.936 214.355C204.898 219.835 151.785 215.254 100.103 200.689C48.416 186.151 0.764201 162.37 -41.5462 130.058C-85.3623 96.5818 -121.495 55.363 -148.929 7.53321L-149.188 7.69029Z" fill="#71B624"/>
<path d="M306.891 -590.212C260.625 -600.967 213.409 -603.933 166.233 -599.072C110.522 -593.317 57.3008 -576.777 8.07056 -549.943C-41.1597 -523.109 -83.4732 -487.582 -117.673 -444.333C-150.7 -402.548 -174.846 -355.387 -189.372 -304.117C-203.924 -252.854 -208.147 -200.058 -201.962 -147.258C-195.546 -92.5869 -178.184 -40.2302 -150.328 8.29471C-122.451 56.8515 -85.7888 98.6551 -41.3599 132.6C1.56331 165.38 49.9368 189.518 102.355 204.254C154.768 219.015 208.669 223.672 262.478 218.099C318.188 212.344 371.409 195.803 420.64 168.97C469.87 142.136 512.184 106.609 546.383 63.3595C579.41 21.5749 603.556 -25.5859 618.082 -76.8557C632.634 -128.119 636.857 -180.915 630.672 -233.715C624.256 -288.386 606.894 -340.743 579.038 -389.268C551.182 -437.793 514.525 -479.622 470.07 -513.573C427.147 -546.353 378.773 -570.491 326.355 -585.227C319.896 -587.054 313.396 -588.701 306.891 -590.212ZM-150.049 8.16951L-149.79 8.01243C-177.606 -40.4488 -194.939 -92.6902 -201.367 -147.31C-207.564 -200.058 -203.339 -252.745 -188.798 -303.957C-174.264 -355.143 -150.183 -402.265 -117.2 -443.978C-83.0448 -487.156 -40.7958 -522.644 8.34343 -549.445C57.509 -576.239 110.639 -592.747 166.265 -598.494C220.015 -604.054 273.804 -599.396 326.164 -584.647C378.524 -569.898 426.805 -545.835 469.681 -513.093C514.063 -479.186 550.679 -437.421 578.468 -388.966C606.284 -340.505 623.617 -288.263 630.045 -233.643C636.242 -180.896 632.017 -128.209 617.476 -76.9965C602.942 -25.81 578.861 21.3114 545.878 63.0249C511.723 106.203 469.474 141.691 420.335 168.491C371.201 195.266 318.071 211.774 262.413 217.541C208.69 223.106 154.873 218.443 102.513 203.693C50.1535 188.944 1.87335 164.882 -41.0032 132.14C-85.3854 98.233 -122.001 56.4675 -149.79 8.01243L-150.049 8.16951Z" fill="#6CB526"/>
<path d="M311.912 -597.489C265.066 -608.377 217.226 -611.407 169.443 -606.443C113.021 -600.609 59.116 -583.875 9.24538 -556.674C-40.6193 -529.499 -83.4595 -493.497 -118.125 -449.677C-151.579 -407.368 -176.012 -359.568 -190.746 -307.641C-205.481 -255.713 -209.774 -202.255 -203.476 -148.751C-196.978 -93.3547 -179.379 -40.3457 -151.169 8.80456C-122.959 57.9548 -85.8187 100.331 -40.7973 134.712C2.69203 167.922 51.6616 192.362 104.779 207.314C157.897 222.267 212.448 226.993 266.969 221.341C323.391 215.508 377.296 198.773 427.167 171.572C477.031 144.397 519.872 108.395 554.537 64.5756C587.991 22.2659 612.424 -25.5338 627.159 -77.4611C641.893 -129.388 646.186 -182.847 639.888 -236.351C633.391 -291.747 615.791 -344.756 587.581 -393.906C559.371 -443.056 522.231 -485.433 477.209 -519.813C433.72 -553.024 384.75 -577.464 331.627 -592.39C325.095 -594.261 318.522 -595.952 311.912 -597.489ZM-150.905 8.62172L-150.646 8.46463C-178.816 -40.6218 -196.38 -93.5413 -202.869 -148.854C-209.133 -202.269 -204.857 -255.65 -190.135 -307.526C-175.418 -359.376 -151.03 -407.104 -117.614 -449.369C-83.019 -493.123 -40.2231 -529.054 9.55056 -556.196C59.3506 -583.331 113.17 -600.059 169.508 -605.885C223.938 -611.503 278.436 -606.79 331.448 -591.862C384.487 -576.928 433.39 -552.558 476.832 -519.385C521.781 -485.049 558.854 -442.742 587.023 -393.656C615.193 -344.569 632.757 -291.65 639.246 -236.337C645.51 -182.922 641.235 -129.541 626.512 -77.6656C611.796 -25.8156 587.407 21.913 553.991 64.1773C519.396 107.932 476.6 143.863 426.827 171.004C377.027 198.14 323.207 214.867 266.869 220.694C212.44 226.312 157.968 221.605 104.923 206.696C51.8843 191.762 2.98173 167.392 -40.4609 134.22C-85.4093 99.883 -122.482 57.5769 -150.652 8.49039L-150.905 8.62172Z" fill="#68B427"/>
<path d="M316.954 -604.732C269.503 -615.761 221.06 -618.823 172.655 -613.813C115.494 -607.907 60.9263 -590.946 10.4273 -563.43C-40.0718 -535.914 -83.4651 -499.443 -118.564 -455.073C-152.451 -412.212 -177.186 -363.831 -192.135 -311.221C-207.051 -258.63 -211.395 -204.477 -205.029 -150.306C-198.445 -94.211 -180.615 -40.5239 -152.05 9.25157C-123.485 59.0271 -85.8882 101.944 -40.2743 136.761C3.75483 170.395 53.3731 195.149 107.169 210.286C160.966 225.424 216.225 230.206 271.426 224.495C328.587 218.589 383.155 201.628 433.654 174.112C484.153 146.596 527.547 110.125 562.645 65.7547C596.533 22.8943 621.268 -25.487 636.216 -78.0974C651.132 -130.688 655.476 -184.841 649.111 -239.012C642.526 -295.107 624.696 -348.794 596.131 -398.57C567.567 -448.345 529.97 -491.262 484.356 -526.079C440.327 -559.713 390.708 -584.467 336.912 -599.604C330.295 -601.468 323.643 -603.177 316.954 -604.732ZM-151.765 9.10061L-151.507 8.94353C-180.031 -40.7682 -197.826 -94.3657 -204.396 -150.403C-210.747 -204.517 -206.401 -258.56 -191.503 -311.074C-176.604 -363.587 -151.882 -411.917 -118.065 -454.712C-83.0366 -499.018 -39.6876 -535.417 10.7205 -562.9C61.1549 -590.377 115.664 -607.324 172.74 -613.223C227.856 -618.926 283.063 -614.157 336.754 -599.044C390.471 -583.925 439.99 -559.221 483.973 -525.625C529.514 -490.852 567.044 -448.005 595.594 -398.287C624.118 -348.576 641.913 -294.978 648.483 -238.94C654.835 -184.827 650.488 -130.784 635.59 -78.27C620.692 -25.7565 595.969 22.5732 562.152 65.3686C527.124 109.674 483.775 146.073 433.367 173.556C382.933 201.033 328.423 217.98 271.347 223.879C216.231 229.583 161.051 224.819 107.307 209.694C53.5898 194.575 4.07087 169.872 -39.9116 136.275C-85.4524 101.502 -122.983 58.6553 -151.507 8.94353L-151.765 9.10061Z" fill="#63B328"/>
<path d="M322.002 -612.001C273.945 -623.172 224.899 -626.265 175.9 -621.203C118.026 -615.218 62.7424 -598.044 11.6089 -570.186C-39.5305 -542.303 -83.4708 -505.39 -119.003 -460.469C-153.318 -417.083 -178.366 -368.069 -193.491 -314.821C-208.589 -261.567 -213.003 -206.752 -206.55 -151.882C-199.879 -95.0874 -181.844 -40.7285 -152.905 9.70417C-123.986 60.105 -85.8992 103.543 -39.7252 138.816C4.8701 172.88 55.0845 197.935 109.559 213.258C164.034 228.58 219.997 233.444 275.883 227.648C333.756 221.663 389.04 204.489 440.174 176.631C491.313 148.748 535.254 111.835 570.786 66.9136C605.101 23.5282 630.149 -25.4859 645.273 -78.7341C660.372 -131.988 664.786 -186.803 658.333 -241.673C651.661 -298.467 633.627 -352.826 604.688 -403.259C575.769 -453.66 537.682 -497.098 491.508 -532.371C446.913 -566.435 396.698 -591.49 342.223 -606.813C335.501 -608.701 328.77 -610.428 322.002 -612.001ZM-152.626 9.57897L-152.367 9.42189C-181.246 -40.9151 -199.272 -95.1907 -205.929 -151.927C-212.347 -206.708 -207.977 -261.452 -192.871 -314.622C-177.764 -367.793 -152.76 -416.736 -118.484 -460.076C-83.022 -504.933 -39.12 -541.801 11.9225 -569.625C62.9973 -597.469 118.19 -614.61 175.979 -620.588C231.806 -626.37 287.663 -621.53 342.059 -606.226C396.455 -590.922 446.597 -565.912 491.145 -531.885C537.246 -496.656 575.266 -453.288 604.17 -402.945C633.049 -352.608 651.075 -298.332 657.732 -241.596C664.15 -186.815 659.78 -132.072 644.7 -78.8945C629.62 -25.7175 604.589 23.2193 570.313 66.5594C534.851 111.416 490.949 148.284 439.901 176.134C388.826 203.978 333.633 221.119 275.845 227.096C220.017 232.878 164.134 228.033 109.764 212.735C55.3682 197.431 5.22683 172.42 -39.3218 138.394C-85.4491 103.159 -123.489 59.7589 -152.367 9.42189L-152.626 9.57897Z" fill="#5EB229"/>
<path d="M327.045 -619.245C278.408 -630.55 228.732 -633.681 179.132 -628.542C120.547 -622.478 64.5797 -605.109 12.8058 -576.885C-38.968 -548.661 -83.4554 -511.304 -119.427 -465.807C-154.175 -421.87 -179.531 -372.249 -194.838 -318.337C-210.144 -264.426 -214.582 -208.911 -208.063 -153.373C-201.309 -95.8545 -183.044 -40.8175 -153.744 10.2147L-153.486 10.0576L-153.744 10.2147C-124.445 61.2469 -85.901 105.225 -39.1609 140.928C6.00053 175.423 56.8373 200.786 111.991 216.293C167.139 231.826 223.789 236.714 280.382 230.865C338.967 224.802 394.934 207.433 446.708 179.209C498.482 150.985 542.97 113.628 578.941 68.1304C613.689 24.1942 639.045 -25.4271 654.352 -79.3388C669.658 -133.25 674.097 -188.765 667.577 -244.303C660.824 -301.822 642.558 -356.859 613.259 -407.891C583.959 -458.923 545.415 -502.901 498.675 -538.605C453.514 -573.099 402.677 -598.462 347.523 -613.969C340.702 -615.908 333.891 -617.653 327.045 -619.245ZM132.587 220.944C125.74 219.353 118.93 217.607 112.129 215.701C57.054 200.212 6.29024 174.893 -38.7981 140.443C-85.4652 104.783 -123.969 60.869 -153.227 9.90055C-182.486 -41.0679 -200.717 -96.0154 -207.462 -153.451C-213.967 -208.931 -209.527 -264.336 -194.264 -318.177C-179.002 -372.017 -153.664 -421.561 -118.96 -465.427C-83.0329 -510.853 -38.6101 -548.17 13.0727 -576.361C64.782 -604.547 120.664 -621.907 179.165 -627.964C235.672 -633.805 292.27 -628.929 347.312 -613.421C402.387 -597.932 453.151 -572.614 498.239 -538.163C544.906 -502.504 583.41 -458.589 612.668 -407.621C641.927 -356.652 660.158 -301.705 666.903 -244.269C673.408 -188.79 668.968 -133.384 653.705 -79.5434C638.443 -25.7028 613.105 23.8412 578.401 67.7063C542.474 113.133 498.051 150.45 446.368 178.641C394.659 206.826 338.777 224.187 280.276 230.244C230.735 235.369 181.144 232.231 132.587 220.944Z" fill="#59B12B"/>
<path d="M332.093 -626.514C282.851 -637.96 232.572 -641.122 182.35 -635.937C123.026 -629.801 66.396 -612.207 13.9877 -583.641C-38.4206 -555.076 -83.461 -517.251 -119.866 -471.202C-155.041 -426.741 -180.705 -376.512 -196.194 -321.937C-211.682 -267.362 -216.191 -211.185 -209.584 -154.949C-202.743 -96.7306 -184.247 -41.0155 -154.619 10.6358L-154.361 10.4787L-154.619 10.6358C-124.966 62.2932 -85.9381 106.818 -38.6319 142.952C7.06933 177.871 58.5608 203.521 114.361 219.233C170.161 234.945 227.54 239.921 284.819 233.987C344.143 227.851 400.773 210.256 453.181 181.691C505.59 153.125 550.63 115.3 587.035 69.2518C622.21 24.7905 647.874 -25.438 663.363 -80.0132C678.851 -134.588 683.36 -190.765 676.753 -247.002C669.913 -305.22 651.416 -360.935 621.789 -412.586C592.135 -464.243 553.107 -508.769 505.801 -544.902C460.1 -579.821 408.614 -605.497 352.808 -621.183C345.928 -623.108 339.018 -624.904 332.093 -626.514ZM135.234 224.003C128.309 222.393 121.419 220.629 114.545 218.678C58.7979 202.979 7.38536 177.347 -38.2488 142.498C-85.5084 106.402 -124.469 61.9472 -154.082 10.3535C-183.695 -41.2402 -202.157 -96.8657 -208.989 -155C-215.588 -211.153 -211.07 -267.247 -195.62 -321.777C-180.15 -376.275 -154.504 -426.426 -119.393 -470.848C-83.0325 -516.825 -38.0567 -554.611 14.2869 -583.137C66.6305 -611.664 123.202 -629.244 182.409 -635.354C239.629 -641.274 296.897 -636.296 352.624 -620.629C408.371 -604.929 459.784 -579.297 505.418 -544.448C552.678 -508.353 591.638 -463.897 621.251 -412.304C650.864 -360.71 669.326 -305.085 676.158 -246.95C682.757 -190.797 678.24 -134.703 662.789 -80.1736C647.319 -25.6756 621.673 24.4755 586.562 68.8976C550.202 114.875 505.226 152.661 452.882 181.187C400.539 209.713 343.967 227.294 284.76 233.403C234.618 238.607 184.397 235.43 135.234 224.003Z" fill="#54B02C"/>
<path d="M337.107 -633.764C287.259 -645.351 236.382 -648.571 185.56 -643.308C125.524 -637.093 68.2044 -619.279 15.1617 -590.372C-37.881 -561.466 -83.4744 -523.172 -120.313 -476.572C-155.895 -431.554 -181.893 -380.725 -197.563 -325.486C-213.234 -270.247 -217.793 -213.376 -211.119 -156.473C-204.191 -97.5558 -185.49 -41.1688 -155.482 11.1139C-125.474 63.3967 -85.9892 108.462 -38.0965 145.058C8.17087 180.407 60.2584 206.359 116.763 222.262C173.242 238.158 231.304 243.184 289.288 237.198C349.325 230.982 406.645 213.168 459.687 184.262C512.73 155.355 558.323 117.061 595.162 70.4619C630.744 25.4437 656.742 -25.3858 672.412 -80.6245C688.083 -135.863 692.642 -192.734 685.968 -249.638C679.04 -308.555 660.339 -364.942 630.331 -417.224C600.323 -469.507 560.838 -514.573 512.945 -551.168C466.678 -586.517 414.59 -612.469 358.086 -628.372C351.132 -630.341 344.138 -632.13 337.107 -633.764ZM-155.229 10.9826L-154.971 10.8256C-184.938 -41.3934 -203.631 -97.6971 -210.544 -156.556C-217.21 -213.376 -212.669 -270.17 -197.016 -325.332C-181.364 -380.493 -155.41 -431.252 -119.866 -476.224C-83.0723 -522.753 -37.5435 -561.007 15.4345 -589.874C68.4126 -618.742 125.674 -636.542 185.619 -642.725C243.519 -648.704 301.475 -643.702 357.901 -627.818C414.327 -611.933 466.362 -585.994 512.536 -550.721C560.362 -514.195 599.806 -469.193 629.773 -416.974C659.74 -364.755 678.433 -308.451 685.347 -249.592C692.012 -192.772 687.471 -135.978 671.819 -80.8167C656.166 -25.6553 630.213 25.103 594.668 70.0759C557.875 116.604 512.346 154.859 459.368 183.726C406.39 212.593 349.128 230.394 289.183 236.576C231.283 242.555 173.301 237.548 116.901 221.669C60.4751 205.785 8.44021 179.845 -37.7338 144.572C-85.5595 108.046 -125.004 63.0445 -154.971 10.8256L-155.229 10.9826Z" fill="#4FAF2D"/>
<path d="M342.155 -641.033C291.728 -652.755 240.222 -656.012 188.772 -650.679C128.024 -644.384 69.9943 -626.383 16.3113 -597.109C-37.3658 -567.861 -83.4859 -529.093 -120.784 -481.948C-156.794 -436.405 -183.105 -384.943 -198.984 -329.047C-214.863 -273.151 -219.466 -215.611 -212.705 -158.009C-205.722 -98.3732 -186.757 -41.3278 -156.401 11.606C-126.039 64.514 -86.0707 110.126 -37.6118 147.152C9.20132 182.9 61.9317 209.191 119.109 225.304C176.293 241.392 235.031 246.494 293.701 240.422C354.45 234.128 412.48 216.126 466.163 186.853C519.84 157.605 565.96 118.836 603.258 71.6922C639.267 26.1489 665.579 -25.3134 681.458 -81.2095C697.31 -137.112 701.94 -194.645 695.179 -252.248C688.19 -311.857 669.231 -368.929 638.869 -421.837C608.507 -474.745 568.539 -520.357 520.08 -557.383C473.267 -593.13 420.536 -619.421 363.359 -635.535C356.333 -637.548 349.265 -639.381 342.155 -641.033ZM-156.09 11.4612L-155.831 11.3041C-186.153 -41.5402 -205.077 -98.5219 -212.051 -158.074C-218.804 -215.593 -214.192 -273.049 -198.358 -328.874C-182.523 -384.699 -156.262 -436.064 -120.291 -481.562C-83.0574 -528.667 -36.9816 -567.365 16.6308 -596.573C70.2433 -625.782 128.194 -643.802 188.851 -650.063C247.463 -656.121 306.096 -651.044 363.201 -634.974C420.305 -618.905 472.963 -592.658 519.697 -556.929C568.089 -519.973 608.016 -474.424 638.338 -421.58C668.659 -368.736 687.583 -311.754 694.557 -252.202C701.31 -194.683 696.698 -137.227 680.864 -81.4019C665.029 -25.5769 638.768 25.7886 602.797 71.2865C565.564 118.391 519.488 157.089 465.875 186.297C412.289 215.512 354.345 233.506 293.681 239.793C235.069 245.851 176.437 240.774 119.332 224.705C62.2273 208.635 9.57004 182.388 -37.1641 146.659C-85.5499 109.677 -125.484 64.1545 -155.805 11.3102L-156.09 11.4612Z" fill="#4AAE2E"/>
<path d="M347.197 -648.277C296.164 -660.139 244.055 -663.428 192.011 -658.043C130.55 -651.67 71.8308 -633.448 17.5133 -603.833C-36.8042 -574.218 -83.4714 -535.007 -121.203 -487.312C-157.646 -441.218 -184.259 -389.174 -200.319 -332.615C-216.38 -276.055 -221.034 -217.821 -214.206 -159.552C-207.136 -99.2175 -187.972 -41.4744 -157.23 12.065C-126.513 65.5983 -86.0613 111.757 -37.01 149.22C10.3693 185.397 63.6957 211.99 121.552 228.288C179.408 244.587 238.835 249.712 298.217 243.562C359.678 237.189 418.397 218.968 472.714 189.353C527.032 159.738 573.699 120.527 611.43 72.8318C647.873 26.7377 674.486 -25.3061 690.547 -81.8657C706.582 -138.431 711.262 -196.659 704.433 -254.928C697.363 -315.263 678.2 -373.006 647.457 -426.545C616.715 -480.085 576.289 -526.238 527.264 -563.694C479.885 -599.871 426.558 -626.464 368.702 -642.762C361.533 -644.755 354.386 -646.606 347.197 -648.277ZM-156.945 11.9141L-156.686 11.757C-187.368 -41.6868 -206.496 -99.3404 -213.585 -159.598C-220.405 -217.784 -215.742 -275.934 -199.726 -332.422C-183.709 -388.911 -157.108 -440.903 -120.709 -486.926C-83.0165 -534.576 -36.42 -573.722 17.8328 -603.297C72.0856 -632.873 130.714 -651.062 192.089 -657.427C251.387 -663.57 310.749 -658.405 368.506 -642.157C426.289 -625.902 479.563 -599.322 526.869 -563.188C575.847 -525.77 616.238 -479.707 646.914 -426.237C677.59 -372.768 696.745 -315.108 703.806 -254.857C710.626 -196.671 705.964 -138.521 689.948 -82.0322C673.931 -25.5437 647.33 26.4485 610.931 72.4714C573.238 120.121 526.642 159.267 472.389 188.843C418.136 218.418 359.508 236.607 298.132 242.973C238.835 249.115 179.493 243.982 121.716 227.702C63.9327 211.448 10.659 184.867 -36.6473 148.734C-85.6256 111.316 -126.016 65.2523 -156.692 11.7828L-156.945 11.9141Z" fill="#45AC30"/>
<path d="M352.24 -655.52C300.602 -667.523 247.889 -670.844 195.25 -665.407C133.057 -658.987 73.6746 -640.539 18.7227 -610.583C-36.2292 -580.627 -83.4434 -540.973 -121.62 -492.676C-158.49 -446.057 -185.417 -393.38 -201.66 -336.157C-217.903 -278.934 -222.633 -220.012 -215.711 -161.069C-208.554 -100.036 -189.154 -41.6403 -158.089 12.544C-126.992 66.7087 -86.0769 113.383 -36.4654 151.301C11.4537 187.902 65.4288 214.809 123.964 231.292C182.499 247.775 242.628 252.983 302.696 246.748C364.889 240.328 424.278 221.855 479.224 191.925C534.175 161.969 581.39 122.314 619.566 74.0171C656.437 27.398 683.363 -25.2787 699.606 -82.5019C715.849 -139.725 720.579 -198.647 713.658 -257.589C706.5 -318.623 687.106 -377.044 656.009 -431.209C624.912 -485.373 583.997 -532.047 534.385 -569.965C486.466 -606.567 432.491 -633.473 373.956 -649.957C366.74 -651.987 359.508 -653.831 352.24 -655.52ZM-157.804 12.393L-157.546 12.236C-188.602 -41.865 -207.961 -100.197 -215.111 -161.147C-222.018 -220.032 -217.311 -278.85 -201.086 -335.996C-184.862 -393.142 -157.979 -445.748 -121.153 -492.296C-83.0209 -540.522 -35.8773 -580.111 19.0099 -610.028C73.8972 -639.944 133.215 -658.353 195.303 -664.797C255.28 -670.999 315.33 -665.809 373.786 -649.345C432.242 -632.88 486.144 -606.018 533.99 -569.46C583.535 -531.612 624.409 -485.001 655.439 -430.907C686.496 -376.806 705.855 -318.474 713.004 -257.524C719.912 -198.639 715.205 -139.82 698.98 -82.6745C682.755 -25.5287 655.873 27.0769 619.047 73.6249C580.914 121.851 533.771 161.44 478.884 191.357C423.996 221.274 364.705 239.688 302.591 246.126C242.613 252.328 182.563 247.139 124.107 230.674C65.6514 214.209 11.7493 187.347 -36.0967 150.789C-85.6412 112.941 -126.516 66.3308 -157.546 12.236L-157.804 12.393Z" fill="#41AB31"/>
<path d="M357.289 -662.789C305.045 -674.932 251.73 -678.285 198.463 -672.776C135.558 -666.278 75.4862 -647.61 19.8999 -617.313C-35.6863 -587.016 -83.4535 -546.893 -122.063 -498.045C-159.367 -450.875 -186.595 -397.617 -203.02 -339.73C-219.445 -281.844 -224.22 -222.254 -217.211 -162.612C-209.966 -100.88 -190.341 -41.7804 -158.89 13.0096L-158.631 12.8525L-158.89 13.0096C-127.438 67.7995 -86.0397 115.02 -35.8621 153.368C12.623 190.4 67.2205 217.614 126.408 234.276C185.595 250.938 246.433 256.202 307.207 249.914C370.113 243.416 430.184 224.748 485.771 194.451C541.357 164.154 589.124 124.031 627.734 75.1828C665.038 28.0129 692.266 -25.2453 708.691 -83.1319C725.116 -141.019 729.891 -200.609 722.881 -260.25C715.637 -321.983 696.012 -381.082 664.587 -435.866C633.135 -490.656 591.737 -537.876 541.559 -576.225C493.074 -613.257 438.476 -640.47 379.289 -657.132C371.967 -659.187 364.636 -661.081 357.289 -662.789ZM148.493 239.328C141.146 237.621 133.841 235.733 126.546 233.684C67.4109 217.034 12.8864 189.864 -35.5258 152.877C-85.6363 114.598 -126.994 67.4413 -158.378 12.7212C-189.789 -42.005 -209.38 -101.015 -216.61 -162.69C-223.611 -222.248 -218.827 -281.754 -202.421 -339.564C-186.014 -397.373 -158.824 -450.586 -121.564 -497.685C-82.9987 -546.462 -35.3021 -586.52 20.2195 -616.777C75.7412 -647.035 135.722 -665.67 198.575 -672.181C259.264 -678.461 319.997 -673.222 379.125 -656.546C438.26 -639.897 492.784 -612.727 541.196 -575.739C591.307 -537.46 632.665 -490.304 664.049 -435.583C695.46 -380.857 715.05 -321.848 722.281 -260.173C729.281 -200.615 724.498 -141.108 708.091 -83.2984C691.684 -25.489 664.494 27.7237 627.235 74.8225C588.669 123.599 540.973 163.657 485.451 193.915C429.929 224.173 369.949 242.807 307.096 249.318C253.888 254.813 200.631 251.447 148.493 239.328Z" fill="#3CAA32"/>
<path d="M362.303 -670.039C309.48 -682.317 255.54 -685.734 201.673 -680.147C138.055 -673.57 77.2679 -654.689 21.0472 -624.051C-35.1735 -593.412 -83.4938 -552.821 -122.537 -503.422C-160.268 -455.727 -187.81 -401.836 -204.417 -343.286C-221.024 -284.735 -225.875 -224.457 -218.773 -164.142C-211.447 -101.685 -191.611 -41.94 -159.811 13.501L-159.553 13.344L-159.811 13.501C-128.006 68.9163 -86.1499 116.678 -35.3798 155.462C13.6452 192.918 68.8651 220.44 128.757 237.293C188.623 254.14 250.169 259.46 311.624 253.112C375.242 246.535 436.029 227.654 492.25 197.016C548.471 166.377 596.791 125.786 635.834 76.3867C673.565 28.6918 701.107 -25.1993 717.714 -83.7494C734.321 -142.3 739.172 -202.578 732.07 -262.892C724.744 -325.35 704.908 -385.095 673.108 -440.536C641.303 -495.951 599.447 -543.713 548.677 -582.497C499.652 -619.953 444.432 -647.475 384.54 -664.328C377.171 -666.42 369.755 -668.307 362.303 -670.039ZM151.132 242.412C143.706 240.686 136.322 238.779 128.921 236.706C69.1081 219.872 13.9672 192.369 -34.9908 154.983C-85.6938 116.268 -127.503 68.5445 -159.247 13.2249C-191.012 -42.1266 -210.834 -101.814 -218.151 -164.188C-225.213 -224.439 -220.386 -284.614 -203.797 -343.087C-187.208 -401.56 -159.684 -455.374 -122.018 -503.029C-83.0186 -552.357 -34.769 -592.884 21.3871 -623.483C77.5431 -654.082 138.213 -672.936 201.772 -679.5C263.142 -685.84 324.583 -680.544 384.396 -663.709C444.209 -646.875 499.35 -619.372 548.308 -581.986C599.011 -543.271 640.82 -495.548 672.565 -440.228C704.33 -384.877 724.151 -325.189 731.469 -262.815C738.531 -202.564 733.703 -142.389 717.114 -83.9159C700.525 -25.443 673.001 28.3707 635.335 76.0264C596.336 125.354 548.086 165.881 491.924 196.506C435.768 227.105 375.098 245.959 311.539 252.523C257.737 258.069 203.876 254.672 151.132 242.412Z" fill="#37A933"/>
<path d="M367.351 -677.309C313.922 -689.727 259.379 -693.175 204.917 -687.537C140.561 -680.887 79.1164 -661.806 22.2553 -630.801C-34.6058 -599.795 -83.4731 -558.761 -122.95 -508.811C-161.114 -460.565 -188.964 -406.067 -205.752 -346.854C-222.541 -287.64 -227.437 -226.693 -220.274 -165.686C-212.86 -102.53 -192.799 -42.0805 -160.64 13.9601C-128.48 70.0006 -86.1404 118.309 -34.8042 157.523C14.7869 195.41 70.6292 223.239 131.194 240.302C191.765 257.34 253.961 262.73 316.128 256.304C380.484 249.654 441.929 230.573 498.79 199.567C555.645 168.588 604.518 127.527 643.995 77.5778C682.159 29.332 710.009 -25.1661 726.798 -84.3798C743.586 -143.594 748.482 -204.54 741.319 -265.548C733.905 -328.704 713.845 -389.153 681.685 -445.194C649.525 -501.234 607.186 -549.542 555.849 -588.757C506.258 -626.643 450.416 -654.472 389.851 -671.536C382.371 -673.627 374.882 -675.558 367.351 -677.309ZM153.779 245.47C146.274 243.726 138.785 241.795 131.332 239.71C70.8399 222.69 15.0766 194.88 -34.4415 157.038C-85.7047 117.867 -127.977 69.6288 -160.122 13.6459C-192.242 -42.3309 -212.294 -102.697 -219.699 -165.769C-226.854 -226.694 -221.976 -287.563 -205.179 -346.693C-188.408 -405.83 -160.577 -460.251 -122.483 -508.431C-83.0182 -558.329 -34.2479 -599.305 22.5485 -630.271C79.339 -661.211 140.699 -680.285 204.97 -686.928C267.052 -693.347 329.169 -687.975 389.661 -670.956C450.153 -653.936 505.916 -626.125 555.434 -588.283C606.697 -549.113 648.969 -500.875 681.115 -444.892C713.234 -388.915 733.287 -328.549 740.692 -265.476C747.847 -204.552 742.969 -143.683 726.172 -84.5525C709.401 -25.4161 681.569 29.0048 643.475 77.1855C604.011 127.084 555.24 168.059 498.444 199.025C441.653 229.966 380.294 249.04 316.023 255.682C261.619 261.307 207.129 257.871 153.779 245.47Z" fill="#32A835"/>
<path d="M372.394 -684.552C318.386 -697.105 263.24 -700.585 208.124 -694.881C143.056 -688.153 80.9217 -668.852 23.4262 -637.505C-34.0694 -606.159 -83.4573 -564.675 -123.399 -514.155C-161.971 -465.352 -190.149 -410.279 -207.146 -350.408C-224.143 -290.537 -229.063 -228.89 -221.832 -167.215C-214.331 -103.36 -194.04 -42.233 -161.526 14.4328C-129.011 71.0986 -86.1886 119.953 -34.2862 159.598C15.8447 197.909 72.3094 226.045 133.553 243.294C194.803 260.517 257.707 265.962 320.554 259.477C385.622 252.748 447.756 233.447 505.252 202.101C562.748 170.754 612.135 129.271 652.078 78.7508C690.643 29.9739 718.827 -25.1253 735.824 -84.9963C752.821 -144.867 757.741 -206.514 750.51 -268.189C743.009 -332.044 722.718 -393.171 690.204 -449.837C657.69 -506.503 614.867 -555.357 562.964 -595.002C512.833 -633.313 456.369 -661.449 395.125 -678.698C387.572 -680.834 380.004 -682.783 372.394 -684.552ZM156.428 248.529C148.844 246.767 141.276 244.817 133.717 242.708C72.5465 225.503 16.1607 197.385 -33.9235 159.113C-85.7529 119.512 -128.509 70.7268 -160.982 14.1248C-193.456 -42.4772 -213.739 -103.521 -221.205 -167.287C-228.427 -228.878 -223.499 -290.441 -206.546 -350.241C-189.593 -410.041 -161.454 -465.069 -122.9 -513.795C-83.0025 -564.244 -33.6792 -605.688 23.7517 -636.995C81.1826 -668.302 143.226 -687.57 208.209 -694.292C270.971 -700.769 333.823 -695.336 394.967 -678.137C456.138 -660.933 512.517 -632.789 562.608 -594.542C614.437 -554.942 657.193 -506.157 689.693 -449.549C722.166 -392.947 742.449 -331.903 749.915 -268.137C757.138 -206.546 752.209 -144.982 735.256 -85.1825C718.304 -25.3826 690.164 29.6454 651.611 78.3708C611.713 128.82 562.39 170.264 504.959 201.571C447.528 232.878 385.485 252.146 320.501 258.868C265.477 264.538 210.383 261.071 156.428 248.529Z" fill="#2DA736"/>
</g>
</g>
</g>
<defs>
<linearGradient id="paint0_linear_2312_598" x1="3.17165e-06" y1="7.43743" x2="401.018" y2="161.808" gradientUnits="userSpaceOnUse">
<stop stop-color="#01B513"/>
<stop offset="1" stop-color="#017E32"/>
</linearGradient>
<clipPath id="clip0_2312_598">
<rect width="375" height="270" fill="white"/>
</clipPath>
<clipPath id="clip1_2312_598">
<rect width="1118.78" height="984.824" fill="white" transform="matrix(0.974034 0.226401 0.226401 -0.974034 -392 135.252)"/>
</clipPath>
</defs>
</svg>
