<?xml version="1.0" encoding="UTF-8"?>
<svg version="1.1" xmlns="http://www.w3.org/2000/svg" width="1071" height="315">
<path d="M0 0 C0.69441193 -0.00067474 1.38882385 -0.00134949 2.10427856 -0.00204468 C12.73842262 0.01437575 22.78943974 0.52954069 33.125 3.25 C33.77887695 3.42160645 34.43275391 3.59321289 35.10644531 3.77001953 C55.89432291 9.37523279 74.82994208 19.12039828 91.125 33.25 C92.00414062 33.98476563 92.88328125 34.71953125 93.7890625 35.4765625 C120.06680004 58.20125384 136.37676073 93.8310919 139.125 128.25 C140.39293812 154.98706264 137.79543341 184.53566945 119.953125 205.84375 C107.92951153 218.88897768 91.74813155 225.55666125 74.140625 226.28125 C52.43170824 226.36731112 26.29548246 219.65045948 10.125 204.25 C9.37109375 202.046875 9.37109375 202.046875 9.125 200.25 C13.26872412 199.05243434 15.11996229 199.39853844 18.875 201.4375 C32.09002895 207.79634458 48.75451687 211.25792584 63 206.6875 C72.5491091 202.61529449 78.74095116 196.65712852 83.125 187.25 C89.42130264 171.15944881 82.41265269 150.46124633 76.125 135.25 C60.63758644 100.88665152 34.22615391 75.35782771 -0.84912109 61.46826172 C-23.96738112 52.73915613 -47.67474526 51.60204774 -71.875 55.25 C-75.33493264 62.49377387 -77.68811523 69.72949673 -79.625 77.5 C-79.83535889 78.33885742 -80.04571777 79.17771484 -80.26245117 80.04199219 C-88.08389115 112.45378353 -82.35321647 148.67603027 -65.17871094 177.20166016 C-57.16996587 189.78468846 -47.56110095 201.91996779 -35.875 211.25 C-35.37677734 211.64944824 -34.87855469 212.04889648 -34.36523438 212.46044922 C-14.26262433 228.38781093 8.77243754 238.30346163 34.125 242.25 C34.90230469 242.38019531 35.67960938 242.51039063 36.48046875 242.64453125 C53.37367683 245.02162432 71.73366414 243.005042 87.93359375 237.80078125 C90.39771371 237.18145698 92.594169 237.15626552 95.125 237.25 C94.55865927 243.27672019 90.75084157 245.91160803 86.40625 249.6328125 C56.37368198 274.1245161 18.80780236 281.59107653 -19.08349609 277.94091797 C-24.81144601 277.15969784 -30.33046211 275.86900506 -35.875 274.25 C-37.01678711 273.92854004 -37.01678711 273.92854004 -38.18164062 273.60058594 C-74.04144015 263.29276909 -104.20715636 239.57785224 -122.6875 207.25 C-140.44845171 174.97747726 -144.41092364 134.3747874 -134.22558594 98.99414062 C-123.59281084 63.67537385 -99.14699935 33.53933003 -66.75 16 C-45.96713523 5.1729859 -23.34184113 0.02030953 0 0 Z " fill="#F0F0F0" transform="translate(150.875,22.75)"/>
<path d="M0 0 C-3.55506022 4.32372188 -7.27144822 8.24854162 -11.3125 12.125 C-21.23089135 21.85336453 -31.71715102 36.20873495 -35 50 C-35.42035357 51.2951749 -35.85592687 52.58548532 -36.3046875 53.87109375 C-48.50174417 89.29044311 -48.86702059 126.15643266 -32.96484375 160.546875 C-24.75851835 177.26374371 -12.57713806 193.36180107 2 205 C2.49822266 205.39944824 2.99644531 205.79889648 3.50976562 206.21044922 C23.61237567 222.13781093 46.64743754 232.05346163 72 236 C72.77730469 236.13019531 73.55460938 236.26039063 74.35546875 236.39453125 C91.24867683 238.77162432 109.60866414 236.755042 125.80859375 231.55078125 C128.27271371 230.93145698 130.469169 230.90626552 133 231 C132.43365927 237.02672019 128.62584157 239.66160803 124.28125 243.3828125 C94.24868198 267.8745161 56.68280236 275.34107653 18.79150391 271.69091797 C13.06355399 270.90969784 7.54453789 269.61900506 2 268 C0.85821289 267.67854004 0.85821289 267.67854004 -0.30664062 267.35058594 C-36.16644015 257.04276909 -66.33215636 233.32785224 -84.8125 201 C-102.57345171 168.72747726 -106.53592364 128.1247874 -96.35058594 92.74414062 C-85.99797961 58.35600722 -62.37419432 28.28400324 -30.88574219 10.92993164 C-9.40312153 -0.52046798 -9.40312153 -0.52046798 0 0 Z " fill="#FEFEFE" transform="translate(113,29)"/>
<path d="M0 0 C4.28361884 0.52859195 7.32191896 1.46932779 11.01171875 3.6953125 C11.92945068 4.24300293 12.84718262 4.79069336 13.79272461 5.35498047 C14.74800049 5.93908691 15.70327637 6.52319336 16.6875 7.125 C17.67049072 7.71812988 18.65348145 8.31125977 19.66625977 8.92236328 C21.59610702 10.09003693 23.52321759 11.26224824 25.44726562 12.43945312 C27.50428723 13.69695906 29.5685976 14.93939698 31.640625 16.171875 C43.66217615 23.4922609 51.44497731 33.21469617 55 47 C55.83576095 50.62067537 56.12736836 53.96127104 56.13371277 57.67497253 C56.13797775 58.80645218 56.14224274 59.93793182 56.14663696 61.10369873 C56.14618378 62.33557922 56.14573059 63.56745972 56.14526367 64.83666992 C56.14862228 66.14116592 56.1519809 67.44566193 56.15544128 68.78968811 C56.16425763 72.3596651 56.16661827 75.92961811 56.16725707 79.49960494 C56.1679684 81.72937185 56.17010419 83.95913269 56.17275429 86.18889809 C56.18199668 93.96537284 56.18609016 101.74183048 56.18530273 109.51831055 C56.18470077 116.77280952 56.19527854 124.02723441 56.2110464 131.28171462 C56.22410138 137.50939955 56.22948756 143.73706018 56.22884732 149.96475869 C56.22859193 153.68490317 56.23146659 157.40498166 56.24202538 161.12511253 C56.25346248 165.26729834 56.24897217 169.40931654 56.24291992 173.55151367 C56.24853943 174.78946686 56.25415894 176.02742004 56.25994873 177.30288696 C56.25575424 178.42590714 56.25155975 179.54892731 56.24723816 180.70597839 C56.24778293 181.68580279 56.24832769 182.66562719 56.24888897 183.67514324 C56 186 56 186 54 188 C50.14840843 187.64807793 47.27470376 186.2575252 43.9375 184.375 C42.50374023 183.56905396 42.50374023 183.56905396 41.04101562 182.74682617 C39.53571289 181.88214722 39.53571289 181.88214722 38 181 C36.97068359 180.41130127 35.94136719 179.82260254 34.88085938 179.21606445 C18.82715879 169.94371203 6.13524308 161.63544277 -0.25 143.4375 C-2.0742425 135.07638853 -2.14859242 126.79502384 -2.14526367 118.27587891 C-2.14862228 117.03092651 -2.1519809 115.78597412 -2.15544128 114.5032959 C-2.16327091 111.1152869 -2.16661609 107.72733919 -2.16725707 104.33932543 C-2.16797071 102.22075548 -2.17011074 100.10219187 -2.17275429 97.9836235 C-2.18197779 90.58852483 -2.18609219 83.19344409 -2.18530273 75.79833984 C-2.18469999 68.90845565 -2.19529789 62.01864925 -2.2110464 55.12878478 C-2.22410744 49.20333635 -2.22948737 43.27791345 -2.22884732 37.35245073 C-2.22859228 33.81733284 -2.23144806 30.28228446 -2.24202538 26.74718094 C-2.25347601 22.81400725 -2.24896846 18.88094158 -2.24291992 14.94775391 C-2.24853943 13.77578461 -2.25415894 12.60381531 -2.25994873 11.39633179 C-2.25575424 10.32820251 -2.25155975 9.26007324 -2.24723816 8.15957642 C-2.24778293 7.23011515 -2.24832769 6.30065388 -2.24888897 5.34302711 C-2 3 -2 3 0 0 Z " fill="#FFFFFF" transform="translate(320,31)"/>
<path d="M0 0 C12.02757658 9.92485341 20.68311369 25.65972019 22.296875 41.15625 C23.64842213 59.22539544 19.23951461 75.79367713 7.4375 89.78125 C-4.4133548 102.92964365 -19.48995687 110.01505222 -37.14453125 111.1171875 C-52.90978914 111.29024192 -66.33948873 106.83017381 -78.703125 97.15625 C-79.734375 96.41375 -80.765625 95.67125 -81.828125 94.90625 C-92.80600456 84.40566955 -100.42956344 69.79722674 -101.13671875 54.5078125 C-101.1600438 52.5991004 -101.16094454 50.68999646 -101.140625 48.78125 C-101.13305176 47.77610352 -101.12547852 46.77095703 -101.11767578 45.73535156 C-100.94438473 37.90057219 -99.95645422 31.3622222 -96.703125 24.15625 C-96.27902344 23.20878906 -95.85492187 22.26132813 -95.41796875 21.28515625 C-87.62332022 5.63072286 -74.22185521 -5.04740509 -57.97265625 -10.8125 C-37.68279388 -16.85747969 -17.14514261 -11.69437473 0 0 Z M-71.703125 18.15625 C-77.13284055 25.62555414 -77.88969333 33.13640135 -76.703125 42.15625 C-72.80287565 58.08369997 -62.64298969 73.16874773 -49.140625 82.65625 C-41.82732163 87.06248269 -34.3830982 90.58309491 -25.703125 89.15625 C-17.31739298 87.03327987 -10.07625849 82.29981268 -5.2890625 75 C-0.95754176 66.64857872 -0.757431 58.79574212 -3.265625 49.78125 C-9.01136043 32.60389514 -21.94037792 19.49477978 -37.703125 11.15625 C-49.91630958 5.96481459 -62.80239104 7.71934876 -71.703125 18.15625 Z " fill="#FFFFFF" transform="translate(659.703125,113.84375)"/>
<path d="M0 0 C3.53745726 2.8135364 6.79681956 5.8138276 10 9 C10.82951172 9.77730469 10.82951172 9.77730469 11.67578125 10.5703125 C15.4632134 14.47004048 17.80399678 19.13508873 20.25 23.9375 C20.5917627 24.60595947 20.93352539 25.27441895 21.28564453 25.96313477 C27.72819292 39.12268987 28.44937104 56.27728572 24.3125 70.3125 C23.59115455 72.22770986 22.82341049 74.12640367 22 76 C21.63777344 76.87398438 21.27554687 77.74796875 20.90234375 78.6484375 C14.07807282 93.68496668 1.99192636 103.65954102 -13 110 C-13.80308594 110.34160156 -14.60617187 110.68320313 -15.43359375 111.03515625 C-30.40523937 116.18540234 -49.10376154 114.19252845 -63.1640625 107.4921875 C-78.92032394 98.91599457 -89.54746309 86.00135101 -94.97265625 68.94140625 C-99.12615772 53.15810067 -97.75586974 36.68556699 -90.25 22.125 C-81.25686808 7.12895252 -68.79953983 -3.65608458 -51.87231445 -8.62451172 C-34.15868368 -12.96910861 -15.15378766 -10.30001808 0 0 Z M-68 22 C-72.62120662 28.65002904 -73.60388254 35.88806407 -72.6640625 43.84375 C-69.65340774 58.38873145 -61.44652231 69.83666655 -51 80 C-50.3709375 80.62648438 -49.741875 81.25296875 -49.09375 81.8984375 C-42.27350026 88.2361224 -33.5843999 92.38491465 -24.20703125 92.2109375 C-15.72716349 91.40047226 -8.80641663 87.32969342 -3.23828125 80.99609375 C1.66769707 74.35579865 3.48665972 67.79551211 2.65234375 59.57421875 C-0.25838989 43.62618712 -9.77951094 30.08263627 -22.6875 20.4375 C-37.65745868 10.32266305 -55.42242888 5.67591833 -68 22 Z " fill="#FFFFFF" transform="translate(1036,110)"/>
<path d="M0 0 C1.98 0 3.96 0 6 0 C6.44642349 0.48699371 6.89284698 0.97398743 7.35279846 1.47573853 C10.13895391 4.05394727 13.74798192 3.41536877 17.35522461 3.38818359 C18.20755173 3.39344055 19.05987885 3.39869751 19.93803406 3.40411377 C22.75965625 3.41733329 25.58071566 3.40856805 28.40234375 3.3984375 C30.36145638 3.40045786 32.32056829 3.40336898 34.27967834 3.40713501 C38.387941 3.41156116 42.4960081 3.40511861 46.60424805 3.39111328 C51.87151907 3.37403255 57.13833116 3.38385375 62.40558529 3.40183067 C66.45218871 3.41267024 70.4986833 3.40922117 74.54528999 3.4014473 C76.487372 3.39944519 78.42946386 3.40190495 80.37153435 3.40888596 C83.08641605 3.41650197 85.80055453 3.40489366 88.51538086 3.38818359 C89.72103699 3.39729263 89.72103699 3.39729263 90.9510498 3.40658569 C95.33172368 3.35661569 97.73901482 2.95481031 101 0 C103.75 -0.1875 103.75 -0.1875 106 0 C106.79197942 5.08464099 107.27793874 10.11328946 107.5625 15.25 C107.6049585 15.98855225 107.64741699 16.72710449 107.69116211 17.48803711 C108.00717867 23.32830285 108.11369027 29.15126723 108 35 C105.69 35 103.38 35 101 35 C100.75765625 34.13117188 100.5153125 33.26234375 100.265625 32.3671875 C97.88732132 22.37719817 97.88732132 22.37719817 91.37890625 15.01953125 C86.00575113 12.7885721 80.3946305 12.69167915 74.6640625 12.42578125 C73.82979736 12.3834436 72.99553223 12.34110596 72.13598633 12.29748535 C70.09085773 12.19427736 68.04545212 12.09658413 66 12 C66.06116273 24.96943843 66.13823407 37.93867482 66.23571491 50.90789413 C66.28047543 56.92979347 66.3197191 62.95162425 66.34643555 68.97363281 C66.3724117 74.78332713 66.41277391 80.59275846 66.46318626 86.40229034 C66.47989348 88.62065616 66.49138368 90.83906751 66.49761391 93.05748749 C66.50721297 96.16067693 66.53522241 99.26318765 66.56762695 102.36621094 C66.56619186 103.28690369 66.56475677 104.20759644 66.5632782 105.15618896 C66.62887688 110.03002397 66.62887688 110.03002397 68.30363464 114.53668213 C71.02453893 116.88378728 74.24465044 117.20351594 77.6875 117.75 C78.38939453 117.87503906 79.09128906 118.00007813 79.81445312 118.12890625 C81.54039881 118.43417555 83.26992084 118.71910154 85 119 C85 120.98 85 122.96 85 125 C64.21 125 43.42 125 22 125 C22 123.02 22 121.04 22 119 C22.81984375 118.87882812 23.6396875 118.75765625 24.484375 118.6328125 C25.56203125 118.46523437 26.6396875 118.29765625 27.75 118.125 C28.81734375 117.96257812 29.8846875 117.80015625 30.984375 117.6328125 C34.73285254 116.84934763 34.73285254 116.84934763 38 115 C40.5674322 110.32989646 40.30638484 105.61941823 40.31884766 100.4362793 C40.33391609 99.00140923 40.33391609 99.00140923 40.34928894 97.53755188 C40.38012184 94.38311348 40.39715653 91.22875997 40.4140625 88.07421875 C40.43277404 85.88417328 40.45234744 83.69413501 40.4727478 81.50410461 C40.52407635 75.74531301 40.56369833 69.98649803 40.60089111 64.2276001 C40.64092612 58.34894016 40.69202079 52.47037753 40.7421875 46.59179688 C40.83895541 35.06126626 40.92335755 23.53068072 41 12 C38.27714321 12.14661681 35.55456864 12.29687485 32.83203125 12.44921875 C31.68257019 12.51054993 31.68257019 12.51054993 30.5098877 12.57312012 C21.18008113 12.96963693 21.18008113 12.96963693 12.6875 16.5 C8.95195859 22.03413542 6.99822636 28.6722832 5 35 C2.69 35 0.38 35 -2 35 C-1.34 23.45 -0.68 11.9 0 0 Z " fill="#FFFFFF" transform="translate(821,100)"/>
<path d="M0 0 C2.8125 -0.1875 2.8125 -0.1875 6 0 C6.38808838 0.4908609 6.77617676 0.9817218 7.17602539 1.48745728 C10.15664381 3.95915435 13.66801071 3.41603674 17.37109375 3.38818359 C18.22502716 3.39344055 19.07896057 3.39869751 19.95877075 3.40411377 C22.78519917 3.4173319 25.61106572 3.40856932 28.4375 3.3984375 C30.39900826 3.40045771 32.3605158 3.40336871 34.32202148 3.40713501 C38.43448024 3.41156082 42.54674362 3.40511901 46.65917969 3.39111328 C51.93551687 3.37402129 57.21139629 3.3838611 62.48771667 3.40183067 C66.53856873 3.41266155 70.58931193 3.40922536 74.64016724 3.4014473 C76.58586684 3.39944336 78.53157627 3.40191131 80.4772644 3.40888596 C83.1947454 3.41648897 85.9114809 3.40491252 88.62890625 3.38818359 C89.43627228 3.39425629 90.24363831 3.40032898 91.07546997 3.40658569 C95.27406986 3.45214912 95.27406986 3.45214912 98.82397461 1.48745728 C99.21206299 0.99659637 99.60015137 0.50573547 100 0 C103.1875 -0.1875 103.1875 -0.1875 106 0 C106.33748053 4.5205337 106.66924739 9.04146945 107 13.5625 C107.09539062 14.83931641 107.19078125 16.11613281 107.2890625 17.43164062 C107.37929688 18.67236328 107.46953125 19.91308594 107.5625 21.19140625 C107.64628906 22.32779541 107.73007812 23.46418457 107.81640625 24.63500977 C108.00528625 28.09688882 108.0308288 31.53368718 108 35 C105.69 35 103.38 35 101 35 C100.75765625 34.21496094 100.5153125 33.42992187 100.265625 32.62109375 C97.47129509 22.5438154 97.47129509 22.5438154 91.125 14.625 C85.40160942 12.94164983 79.54395969 12.72542388 73.625 12.4375 C72.79355469 12.39431641 71.96210937 12.35113281 71.10546875 12.30664062 C69.07046772 12.20138195 67.03525297 12.10026928 65 12 C65.06125463 24.39609644 65.13839262 36.79198309 65.23571491 49.18785191 C65.28041031 54.94398659 65.31966848 60.70005064 65.34643555 66.45629883 C65.3724765 72.01314159 65.41288503 77.56971238 65.46318626 83.12638664 C65.47984952 85.24458364 65.49136716 87.36282768 65.49761391 89.48108101 C65.50726066 92.45195031 65.53532757 95.42212465 65.56762695 98.39282227 C65.56619186 99.26532623 65.56475677 100.1378302 65.5632782 101.03677368 C65.64581224 106.41729688 66.39424319 110.25362478 69 115 C72.41211416 117.27474277 74.6568529 117.56629644 78.6875 118.125 C79.86699219 118.29257813 81.04648437 118.46015625 82.26171875 118.6328125 C83.61716797 118.81457031 83.61716797 118.81457031 85 119 C85 121.31 85 123.62 85 126 C64.21 126 43.42 126 22 126 C22 123.69 22 121.38 22 119 C22.81984375 118.86722656 23.6396875 118.73445313 24.484375 118.59765625 C26.10085938 118.33275391 26.10085938 118.33275391 27.75 118.0625 C29.35101562 117.80146484 29.35101562 117.80146484 30.984375 117.53515625 C33.36623068 117.11246943 35.66101161 116.60239984 38 116 C39.65688983 109.67918166 40.30238862 103.77937455 40.31884766 97.25756836 C40.33391609 95.8657132 40.33391609 95.8657132 40.34928894 94.44573975 C40.37992309 91.41044679 40.3971007 88.37524121 40.4140625 85.33984375 C40.43279007 83.22277586 40.45236465 81.10571531 40.4727478 78.98866272 C40.52390707 73.44036196 40.56361927 67.89203704 40.60089111 62.34362793 C40.64103269 56.67238468 40.69207857 51.00124051 40.7421875 45.33007812 C40.83875477 34.22012185 40.92322063 23.11010942 41 12 C37.28997805 12.25024004 33.58260503 12.52884588 29.875 12.8125 C28.30492187 12.91788086 28.30492187 12.91788086 26.703125 13.02539062 C21.1909744 13.46147849 16.74766638 13.89608012 12 17 C10.57788633 18.62764045 10.57788633 18.62764045 9.8125 20.5625 C9.50441406 21.25472656 9.19632813 21.94695312 8.87890625 22.66015625 C7.35811326 26.70884514 6.12881666 30.82679901 5 35 C2.69 35 0.38 35 -2 35 C-1.85885325 31.22897636 -1.7111987 27.4582328 -1.5625 23.6875 C-1.52318359 22.63498047 -1.48386719 21.58246094 -1.44335938 20.49804688 C-1.16901636 13.63947152 -0.69319348 6.82901897 0 0 Z " fill="#FFFFFF" transform="translate(692,99)"/>
<path d="M0 0 C4.28663998 -0.0995024 8.57265331 -0.1717631 12.86010742 -0.21972656 C14.31595584 -0.23973822 15.77172494 -0.26695677 17.22729492 -0.30175781 C32.6821645 -0.66178903 32.6821645 -0.66178903 38 4 C41.28072628 9.12214345 41.41531096 13.34216071 41.34057617 19.21826172 C41.34123329 20.58019905 41.34123329 20.58019905 41.34190369 21.96965027 C41.3398216 24.9565517 41.31651776 27.94288469 41.29296875 30.9296875 C41.28737074 33.00619195 41.28310161 35.08270037 41.28010559 37.15921021 C41.26867301 42.61400365 41.23921933 48.06855596 41.20599365 53.52325439 C41.16985107 60.07364926 41.15612407 66.62412494 41.13863373 73.17459106 C41.10958121 83.11656155 41.05208264 93.05800334 41 103 C56.18 103 71.36 103 87 103 C87 107.62 87 112.24 87 117 C62.58 117 38.16 117 13 117 C12.95101563 109.74386719 12.90203125 102.48773438 12.8515625 95.01171875 C12.81618878 90.42251184 12.78023599 85.83332422 12.7421875 81.24414062 C12.68181364 73.95551269 12.62361711 66.66691182 12.578125 59.37817383 C12.54132605 53.50369681 12.49498079 47.62936644 12.44193649 41.75501442 C12.42336385 39.51069517 12.40826658 37.26634445 12.39665604 35.02197838 C12.37984273 31.88518541 12.3508195 28.74873042 12.31884766 25.61206055 C12.31668747 24.67842178 12.31452728 23.74478302 12.31230164 22.78285217 C12.29555641 21.50192184 12.29555641 21.50192184 12.2784729 20.19511414 C12.27294214 19.45307078 12.26741138 18.71102743 12.26171303 17.94649792 C12.10149727 15.67679353 12.10149727 15.67679353 10 13 C7.58392583 12.20201782 7.58392583 12.20201782 4.875 11.8125 C3.26625 11.544375 1.6575 11.27625 0 11 C0 7.37 0 3.74 0 0 Z " fill="#FFFFFF" transform="translate(466,104)"/>
<path d="M0 0 C7.34415565 4.98215129 11.09445657 11.19077135 14.3125 19.3125 C16.25782471 29.74651438 15.35106931 39.23679942 9.52734375 48.2890625 C4.37031169 54.79935829 -1.57708801 58.45218755 -9.84765625 59.4765625 C-20.21896296 60.0464551 -27.97178765 57.82776843 -35.8125 50.875 C-43.04651755 42.93981289 -45.21418559 33.52186689 -45 23 C-44.35121954 14.32256141 -39.92896125 7.46734395 -33.625 1.625 C-23.70672439 -6.15403969 -10.82016533 -6.16731177 0 0 Z " fill="#FFFFFF" transform="translate(362,242)"/>
</svg>
