<svg width="228" height="54" viewBox="0 0 228 54" fill="none" xmlns="http://www.w3.org/2000/svg">
<path d="M316.217 60.1746C343.291 64.7406 372.248 60.7374 398.323 48.7202C426.08 35.9346 447.264 15.6258 457.975 -8.48198C468.685 -32.5898 467.65 -57.5958 455.052 -78.9133C442.451 -100.221 419.796 -115.278 391.255 -121.317C362.711 -127.346 331.715 -123.636 303.969 -110.848C276.212 -98.0627 255.028 -77.7539 244.317 -53.6461C233.607 -29.5383 234.642 -4.53232 247.24 16.7852C259.841 38.0931 282.496 53.1497 311.036 59.1886C312.758 59.5505 314.48 59.8817 316.217 60.1746ZM454.931 -78.852L454.81 -78.7906C467.381 -57.5288 468.427 -32.5823 457.738 -8.53202C447.05 15.5182 425.919 35.7848 398.226 48.5302C372.211 60.5167 343.319 64.5104 316.313 59.9559C314.576 59.663 312.866 59.3337 311.144 58.9718C282.68 52.956 260.071 37.9379 247.501 16.676C234.93 -4.58585 233.884 -29.5324 244.573 -53.5826C255.261 -77.6328 276.392 -97.8995 304.085 -110.645C330.1 -122.631 358.992 -126.625 385.998 -122.071C387.735 -121.778 389.445 -121.448 391.167 -121.086C419.631 -115.071 442.24 -100.052 454.81 -78.7906L454.931 -78.852Z" fill="#FFD600"/>
<path d="M313.687 62.8197C341.333 67.482 370.896 63.3871 397.527 51.1265C425.874 38.0726 447.502 17.338 458.446 -7.28211C469.39 -31.9022 468.325 -57.4341 455.46 -79.1952C442.594 -100.956 419.453 -116.33 390.315 -122.49C361.176 -128.65 329.527 -124.856 301.18 -111.802C272.833 -98.7483 251.205 -78.0136 240.273 -53.3916C229.333 -28.7811 230.394 -3.2396 243.259 18.5215C256.124 40.2825 279.265 55.6561 308.404 61.8163C310.145 62.1917 311.916 62.521 313.687 62.8197ZM455.324 -79.1262L455.203 -79.0649C468.041 -57.3595 469.101 -31.8794 458.179 -7.31684C447.261 17.2361 425.686 37.9285 397.411 50.9537C369.14 63.9693 337.54 67.7616 308.493 61.6168C279.423 55.4681 256.339 40.1349 243.501 18.4295C230.663 -3.27589 229.603 -28.756 240.525 -53.3185C251.443 -77.8715 273.018 -98.5639 301.292 -111.589C329.56 -124.626 361.145 -128.41 390.215 -122.262C419.285 -116.113 442.369 -100.78 455.207 -79.0745L455.324 -79.1262Z" fill="#FAD501"/>
<path d="M311.163 65.4715C339.38 70.2302 369.547 66.0531 396.726 53.5377C425.651 40.2136 447.726 19.0436 458.899 -6.07916C470.061 -31.2038 468.983 -57.2693 455.85 -79.4738C442.717 -101.678 419.104 -117.377 389.368 -123.658C359.635 -129.949 327.321 -126.073 298.396 -112.749C269.471 -99.4247 247.397 -78.2547 236.227 -53.1416C225.057 -28.0284 226.143 -1.95147 239.276 20.2531C252.409 42.4576 276.021 58.1558 305.758 64.4374C307.545 64.8204 309.346 65.1651 311.163 65.4715ZM455.718 -79.4144L455.597 -79.3531C468.699 -57.1946 469.776 -31.1906 458.636 -6.12347C447.496 18.9436 425.467 40.0599 396.614 53.3553C367.753 66.6392 335.515 70.5078 305.847 64.2378C276.179 57.9679 252.624 42.31 239.522 20.1515C226.42 -2.00695 225.342 -28.011 236.482 -53.0781C247.622 -78.1452 269.652 -99.2615 298.505 -112.557C327.366 -125.841 359.592 -129.711 389.272 -123.439C418.928 -117.171 442.483 -101.514 455.597 -79.3531L455.718 -79.4144Z" fill="#F5D403"/>
<path d="M308.607 68.11C321.676 70.3141 335.236 70.6397 348.986 69.077C365.218 67.2282 381.012 62.8133 395.927 55.9413C410.841 49.0694 423.979 40.1718 434.986 29.4745C445.622 19.1435 453.811 7.58271 459.351 -4.87411C464.892 -17.3309 467.491 -30.0795 467.089 -42.7417C466.663 -55.8473 463.018 -68.3006 456.242 -79.7599L456.121 -79.6986L456.242 -79.7599C449.474 -91.2078 439.978 -100.971 428.028 -108.778C416.488 -116.321 403.16 -121.715 388.412 -124.836C373.663 -127.956 358.23 -128.628 342.544 -126.841C326.312 -124.992 310.518 -120.577 295.603 -113.705C280.689 -106.833 267.551 -97.9353 256.544 -87.238C245.908 -76.9071 237.719 -65.3463 232.179 -52.8895C226.638 -40.4326 224.039 -27.6841 224.441 -15.0219C224.867 -1.91628 228.512 10.537 235.288 21.9964C242.056 33.4442 251.552 43.207 263.502 51.014C275.042 58.5578 288.37 63.9515 303.118 67.072C304.932 67.4494 306.768 67.7998 308.607 68.11ZM382.816 -125.657C384.655 -125.347 386.491 -124.996 388.316 -124.617C418.59 -118.214 442.62 -102.241 455.989 -79.6392C469.358 -57.0373 470.462 -30.4978 459.092 -4.92801C447.722 20.6418 425.257 42.1953 395.818 55.7494C366.379 69.3035 333.5 73.258 303.214 66.8533C272.94 60.4505 248.91 44.4776 235.541 21.8756C222.171 -0.726332 221.068 -27.2658 232.438 -52.8356C243.808 -78.4053 266.273 -99.9589 295.712 -113.513C323.379 -126.253 354.084 -130.502 382.816 -125.657Z" fill="#F0D304"/>
<path d="M306.071 70.7619C319.403 73.0103 333.229 73.3399 347.244 71.7506C363.807 69.8655 379.904 65.3587 395.114 58.3526C410.323 51.3466 423.725 42.2686 434.946 31.3623C445.781 20.83 454.141 9.04284 459.793 -3.67108C465.441 -16.3754 468.098 -29.3695 467.674 -42.2909C467.241 -55.6632 463.521 -68.3641 456.621 -80.0385L456.5 -79.9772L456.621 -80.0385C449.709 -91.7149 440.033 -101.672 427.849 -109.63C416.082 -117.314 402.484 -122.825 387.442 -126.006C372.389 -129.188 356.655 -129.87 340.666 -128.051C324.103 -126.166 308.006 -121.66 292.797 -114.653C277.588 -107.647 264.186 -98.5695 252.964 -87.6632C242.13 -77.1308 233.769 -65.3437 228.117 -52.6298C222.466 -39.9159 219.812 -26.9313 220.236 -14.01C220.669 -0.63763 224.389 12.0633 231.289 23.7377C238.201 35.414 247.878 45.3707 260.061 53.3295C271.828 61.0135 285.426 66.5244 300.468 69.7047C302.327 70.0897 304.198 70.446 306.071 70.7619ZM381.773 -126.859C383.647 -126.543 385.505 -126.189 387.361 -125.794C402.368 -122.62 415.937 -117.124 427.684 -109.454C439.837 -101.511 449.498 -91.5768 456.383 -79.9255C463.267 -68.2741 466.983 -55.5943 467.42 -42.2623C467.832 -29.3736 465.189 -16.4178 459.549 -3.73263C453.909 8.9525 445.57 20.7128 434.758 31.2183C423.559 42.0977 410.187 51.1603 395.008 58.151C379.83 65.1418 363.762 69.6333 347.238 71.5145C331.287 73.329 315.579 72.6413 300.568 69.4764C285.561 66.3019 271.992 60.8064 260.257 53.1377C248.103 45.1943 238.442 35.2606 231.558 23.6093C224.662 11.956 220.953 -0.712271 220.521 -14.0539C220.108 -26.9426 222.751 -39.8984 228.391 -52.5835C234.032 -65.2687 242.37 -77.029 253.182 -87.5345C264.381 -98.4139 277.753 -107.476 292.932 -114.467C308.111 -121.458 324.178 -125.949 340.703 -127.831C354.673 -129.428 368.476 -129.102 381.773 -126.859Z" fill="#EBD205"/>
<path d="M303.547 73.4047C317.142 75.6974 331.23 76.0406 345.519 74.4054C362.4 72.4821 378.824 67.8872 394.328 60.747C409.832 53.6068 423.497 44.3486 434.933 33.2332C445.982 22.4918 454.503 10.4764 460.258 -2.47543C466.014 -15.4273 468.721 -28.6786 468.294 -41.8456C467.85 -55.4751 464.055 -68.4237 457.023 -80.3246L456.902 -80.2633L457.023 -80.3246C449.98 -92.2275 440.111 -102.38 427.693 -110.491C415.693 -118.326 401.842 -123.941 386.496 -127.183C371.161 -130.423 355.119 -131.126 338.811 -129.27C321.929 -127.347 305.506 -122.752 290.002 -115.611C274.498 -108.471 260.832 -99.2131 249.397 -88.0977C238.348 -77.3563 229.826 -65.3409 224.071 -52.3891C218.316 -39.4372 215.609 -26.1859 216.036 -13.0189C216.479 0.610607 220.275 13.5591 227.307 25.4601C234.339 37.3611 244.219 47.5156 256.637 55.6261C268.637 63.462 282.487 69.0767 297.834 72.3186C299.735 72.7209 301.64 73.0829 303.547 73.4047ZM380.724 -128.054C382.632 -127.733 384.525 -127.372 386.415 -126.972C401.715 -123.738 415.547 -118.137 427.517 -110.316C439.903 -102.221 449.757 -92.0914 456.774 -80.2135C463.801 -68.3336 467.585 -55.4177 468.025 -41.8093C468.451 -28.673 465.747 -15.462 459.999 -2.52933C454.255 10.3937 445.753 22.3919 434.726 33.1064C423.309 44.2046 409.678 53.4378 394.204 60.5627C378.73 67.6875 362.348 72.2691 345.505 74.1885C329.235 76.0412 313.227 75.3436 297.926 72.1094C282.626 68.8753 268.794 63.274 256.825 55.4535C244.438 47.3584 234.584 37.2288 227.568 25.3509C220.54 13.4711 216.756 0.555133 216.316 -13.0533C215.89 -26.1896 218.594 -39.4006 224.342 -52.3332C230.086 -65.2563 238.588 -77.2545 249.615 -87.969C261.032 -99.0671 274.664 -108.3 290.137 -115.425C305.611 -122.55 321.993 -127.132 338.836 -129.051C353.098 -130.681 367.164 -130.341 380.724 -128.054Z" fill="#E7D106"/>
<path d="M301.018 76.0576C314.864 78.3927 329.23 78.7418 343.795 77.0819C360.995 75.1204 377.729 70.4451 393.532 63.1612C409.33 55.8869 423.26 46.4486 434.913 35.1146C446.173 24.1738 454.855 11.9301 460.732 -1.27679C466.594 -14.4761 469.36 -27.9729 468.922 -41.397C468.468 -55.2837 464.609 -68.4778 457.434 -80.6072L457.313 -80.5459L457.434 -80.6072C450.258 -92.7366 440.208 -103.083 427.549 -111.357C415.327 -119.342 401.202 -125.065 385.577 -128.374C369.937 -131.676 353.595 -132.389 336.983 -130.502C319.783 -128.54 303.049 -123.865 287.247 -116.581C271.448 -109.307 257.519 -99.8685 245.865 -88.5345C234.606 -77.5937 225.924 -65.3501 220.047 -52.1431C214.169 -38.9362 211.419 -25.447 211.856 -12.0229C212.311 1.86375 216.17 15.0579 223.345 27.1873C230.52 39.3167 240.57 49.6632 253.229 57.937C265.451 65.9226 279.577 71.645 295.202 74.9541C297.126 75.3603 299.064 75.7282 301.018 76.0576ZM379.661 -129.249C381.603 -128.922 383.542 -128.554 385.466 -128.148C401.06 -124.854 415.151 -119.137 427.354 -111.165C439.986 -102.916 450.021 -92.5928 457.169 -80.4884C464.329 -68.3821 468.187 -55.2186 468.638 -41.3531C469.067 -27.9712 466.324 -14.5012 460.469 -1.3211C454.614 11.859 445.943 24.0739 434.707 34.9878C423.076 46.2949 409.18 55.7083 393.412 62.9673C377.643 70.2263 360.947 74.8978 343.785 76.8554C327.208 78.7482 310.892 78.0292 295.298 74.7354C279.704 71.4416 265.612 65.725 253.409 57.7529C240.777 49.5041 230.743 39.1806 223.595 27.0762C216.435 14.9698 212.576 1.80637 212.126 -12.0592C211.696 -25.4411 214.439 -38.9111 220.294 -52.0912C226.145 -65.2616 234.82 -77.4861 246.057 -88.4C257.688 -99.7071 271.584 -109.121 287.352 -116.38C303.12 -123.639 319.817 -128.31 336.978 -130.268C351.506 -131.924 365.838 -131.58 379.661 -129.249Z" fill="#E2CF08"/>
<path d="M298.482 78.7004C312.59 81.0798 327.222 81.433 342.054 79.7463C359.572 77.7467 376.621 72.9814 392.714 65.5729C408.808 58.1645 422.99 48.544 434.869 37.0029C446.342 25.853 455.185 13.3811 461.166 -0.0637579C467.147 -13.5086 469.951 -27.2645 469.511 -40.9343C469.049 -55.0877 465.112 -68.52 457.808 -80.8855L457.687 -80.8242L457.808 -80.8855C450.501 -93.2414 440.259 -103.784 427.366 -112.209C414.91 -120.347 400.521 -126.175 384.603 -129.544C368.685 -132.913 352.031 -133.638 335.1 -131.712C317.582 -129.713 300.533 -124.947 284.44 -117.539C268.346 -110.131 254.164 -100.51 242.285 -88.9689C230.812 -77.8191 221.969 -65.3472 215.988 -51.9023C210.007 -38.4574 207.203 -24.7015 207.643 -11.0317C208.105 3.12169 212.039 16.5635 219.346 28.9194C226.653 41.2753 236.896 51.8178 249.788 60.2433C262.244 68.3807 276.633 74.2088 292.551 77.5777C294.521 77.9916 296.494 78.3652 298.482 78.7004ZM378.599 -130.444C380.587 -130.109 382.548 -129.737 384.518 -129.323C400.406 -125.97 414.761 -120.147 427.186 -112.025C440.048 -103.615 450.278 -93.1053 457.57 -80.7724C464.862 -68.4395 468.795 -55.0284 469.245 -40.9076C469.685 -27.2686 466.885 -13.5529 460.922 -0.125334C454.964 13.2927 446.128 25.7454 434.678 36.8684C422.832 48.3846 408.673 57.9782 392.609 65.3714C376.546 72.7645 359.536 77.526 342.055 79.5218C325.163 81.4431 308.546 80.7144 292.659 77.3609C276.771 74.0074 262.416 68.1851 249.991 60.0631C237.129 51.6529 226.899 41.1431 219.607 28.8102C212.315 16.4773 208.382 3.0662 207.932 -11.0546C207.492 -24.6937 210.293 -38.4093 216.255 -51.8369C222.217 -65.2645 231.049 -77.7076 242.5 -88.8306C254.345 -100.347 268.504 -109.94 284.568 -117.334C300.631 -124.727 317.642 -129.488 335.122 -131.484C349.919 -133.176 364.513 -132.819 378.599 -130.444Z" fill="#DDCE09"/>
<path d="M295.951 81.3503C310.322 83.774 325.22 84.1312 340.332 82.4102C358.181 80.3743 375.532 75.5171 391.921 67.9745C408.313 60.4223 422.751 50.6408 434.848 38.8811C446.532 27.5318 455.539 14.822 461.627 1.1297C467.716 -12.5626 470.578 -26.5641 470.123 -40.4815C469.662 -54.8901 465.653 -68.5795 458.202 -81.1639C450.763 -93.7463 440.329 -104.485 427.202 -113.062C414.524 -121.349 399.872 -127.283 383.66 -130.712C367.449 -134.14 350.483 -134.877 333.249 -132.921C315.4 -130.885 298.049 -126.028 281.661 -118.485C265.269 -110.933 250.83 -101.152 238.733 -89.3919C227.049 -78.0427 218.042 -65.3329 211.954 -51.6406C205.866 -37.9482 203.004 -23.9467 203.455 -10.0198C203.916 4.38882 207.925 18.0782 215.375 30.6626C222.815 43.2451 233.249 53.9833 246.375 62.5606C259.053 70.8478 273.706 76.7817 289.917 80.2102C291.914 80.6184 293.929 81.0093 295.951 81.3503ZM458.085 -81.1121L457.964 -81.0508C465.388 -68.4914 469.397 -54.8327 469.857 -40.4548C470.312 -26.5681 467.461 -12.5954 461.38 1.07772C455.303 14.7413 446.318 27.4242 434.653 38.7562C422.579 50.4891 408.17 60.2552 391.812 67.7825C375.45 75.3194 358.129 80.1613 340.318 82.1933C323.119 84.1547 306.194 83.4047 290.014 79.9915C273.836 76.5688 259.214 70.6503 246.555 62.3765C233.46 53.8146 223.049 43.1109 215.613 30.5495C208.19 17.9901 204.181 4.33142 203.721 -10.0465C203.266 -23.9331 206.128 -37.9039 212.198 -51.579C218.275 -65.2425 227.26 -77.9254 238.925 -89.2575C250.999 -100.99 265.407 -110.757 281.766 -118.284C298.131 -125.83 315.452 -130.672 333.263 -132.704C350.463 -134.666 367.391 -133.925 383.568 -130.502C399.745 -127.08 414.367 -121.161 427.026 -112.887C440.121 -104.325 450.533 -93.6218 457.968 -81.0604L458.085 -81.1121Z" fill="#D8CD0A"/>
<path d="M293.415 83.9927C308.049 86.4607 323.213 86.8219 338.592 85.0742C356.755 83.0097 374.433 78.0645 391.12 70.3781C407.806 62.6918 422.509 52.73 434.82 40.7612C446.718 29.2029 455.882 16.2744 462.081 2.32498C468.277 -11.6149 471.189 -25.8735 470.731 -40.0365C470.26 -54.7023 466.175 -68.6394 458.593 -81.4503C451.01 -94.2613 440.391 -105.184 427.035 -113.923C414.123 -122.362 399.207 -128.401 382.702 -131.889C366.198 -135.378 348.935 -136.134 331.382 -134.14C313.218 -132.075 295.541 -127.13 278.854 -119.444C262.167 -111.757 247.465 -101.796 235.154 -89.8269C223.256 -78.2685 214.092 -65.3401 207.892 -51.3906C201.697 -37.4508 198.785 -23.1921 199.243 -9.02912C199.714 5.63669 203.798 19.5738 211.381 32.3847C218.963 45.1956 229.579 56.1279 242.939 64.857C255.85 73.2959 270.767 79.3355 287.271 82.8238C289.306 83.2588 291.359 83.6459 293.415 83.9927ZM458.476 -81.3986L458.355 -81.3373C465.922 -68.5494 469.994 -54.645 470.462 -40.0002C470.915 -25.8583 468.018 -11.6381 461.83 2.2826C455.645 16.1937 446.489 29.1029 434.625 40.6364C422.336 52.5783 407.664 62.5247 391.007 70.1957C374.35 77.8667 356.715 82.7986 338.585 84.8688C321.07 86.8588 303.853 86.1105 287.372 82.6261C270.901 79.1437 256.019 73.1099 243.134 64.6959C229.794 55.9803 219.201 45.0826 211.634 32.2947C204.067 19.5067 199.995 5.60234 199.528 -9.04237C199.074 -23.1843 201.971 -37.4045 208.159 -51.3252C214.344 -65.2363 223.501 -78.1456 235.365 -89.679C247.653 -101.621 262.325 -111.567 278.982 -119.238C295.639 -126.909 313.274 -131.841 331.4 -133.902C348.915 -135.892 366.143 -135.142 382.614 -131.659C399.084 -128.177 413.966 -122.143 426.851 -113.729C440.188 -105.034 450.788 -94.1252 458.355 -81.3373L458.476 -81.3986Z" fill="#D3CC0B"/>
<path d="M290.888 86.6364C305.773 89.1468 321.211 89.5236 336.859 87.7396C355.341 85.637 373.333 80.6017 390.314 72.7812C407.296 64.9607 422.263 54.8188 434.788 42.641C446.884 30.8813 456.225 17.7169 462.527 3.52959C468.83 -10.6577 471.804 -25.1716 471.332 -39.5821C470.853 -54.5147 466.69 -68.6897 458.991 -81.7348C451.276 -94.7723 440.476 -105.889 426.875 -114.781C413.741 -123.37 398.561 -129.515 381.752 -133.065C364.954 -136.613 347.38 -137.381 329.523 -135.357C311.04 -133.254 293.049 -128.219 276.067 -120.398C259.085 -112.578 244.119 -102.436 231.594 -90.2579C219.497 -78.4982 210.157 -65.3339 203.854 -51.1465C197.552 -36.9592 194.578 -22.4454 195.05 -8.03481C195.528 6.89775 199.692 21.0728 207.391 34.1179C215.105 47.1554 225.906 58.272 239.507 67.1643C252.644 75.7435 267.82 81.8984 284.63 85.4482C286.71 85.891 288.797 86.2839 290.888 86.6364ZM375.424 -134.04C377.515 -133.688 379.591 -133.297 381.659 -132.856C398.423 -129.314 413.58 -123.173 426.687 -114.609C440.269 -105.73 451.054 -94.6362 458.753 -81.6218C466.44 -68.6093 470.588 -54.4573 471.077 -39.5535C471.545 -25.1641 468.586 -10.6886 462.291 3.47954C455.999 17.6381 446.682 30.7756 434.604 42.5181C422.101 54.669 407.165 64.7956 390.213 72.6008C373.262 80.4059 355.312 85.4278 336.867 87.5265C319.045 89.5567 301.52 88.7871 284.745 85.243C267.981 81.7008 252.824 75.5594 239.717 66.9956C226.143 58.1282 215.359 47.0346 207.66 34.0202C199.961 21.0058 195.813 6.8538 195.335 -8.04806C194.867 -22.4375 197.826 -36.913 204.121 -51.0811C210.417 -65.2493 219.73 -78.3772 231.808 -90.1196C244.311 -102.271 259.247 -112.397 276.199 -120.202C293.15 -128.007 311.1 -133.029 329.545 -135.128C345.169 -136.916 360.573 -136.545 375.424 -134.04Z" fill="#CECB0D"/>
<path d="M288.362 89.2894C303.511 91.844 319.214 92.2248 335.143 90.4064C353.955 88.2676 372.25 83.1405 389.526 75.1858C406.803 67.2312 422.033 56.9091 434.772 44.5223C447.083 32.5536 456.584 19.161 462.994 4.72619C469.415 -9.70665 472.424 -24.4699 471.953 -39.1357C471.464 -54.3254 467.24 -68.7556 459.394 -82.0196L459.273 -81.9583L459.394 -82.0196C451.548 -95.2836 440.555 -106.596 426.721 -115.64C413.349 -124.371 397.91 -130.632 380.822 -134.249C363.731 -137.856 345.86 -138.644 327.681 -136.571C308.868 -134.433 290.574 -129.305 273.297 -121.351C256.021 -113.396 240.791 -103.074 228.051 -90.6873C215.741 -78.7186 206.24 -65.326 199.818 -50.8931C193.408 -36.4583 190.388 -21.697 190.86 -7.03125C191.349 8.15843 195.572 22.5887 203.418 35.8527C211.265 49.1167 222.257 60.4291 236.092 69.4732C249.463 78.2041 264.902 84.4647 281.99 88.0819C284.108 88.5208 286.226 88.9291 288.362 89.2894ZM374.365 -135.236C376.49 -134.877 378.612 -134.479 380.715 -134.032C397.772 -130.43 413.192 -124.183 426.529 -115.458C440.348 -106.437 451.314 -95.1494 459.145 -81.9085C466.975 -68.6675 471.198 -54.268 471.687 -39.109C472.154 -24.4643 469.149 -9.74136 462.746 4.67422C456.347 19.0802 446.869 32.446 434.581 44.3878C421.86 56.7574 406.664 67.0546 389.418 74.9939C372.171 82.9331 353.907 88.045 335.144 90.1819C317.014 92.2521 299.166 91.4689 282.113 87.8575C265.056 84.2556 249.635 78.0085 236.299 69.2833C222.479 60.2623 211.514 48.9748 203.683 35.7339C195.852 22.4929 191.629 8.09338 191.141 -7.0656C190.673 -21.7102 193.679 -36.4332 200.081 -50.8488C206.484 -65.2644 215.958 -78.6206 228.247 -90.5624C240.967 -102.932 256.164 -113.229 273.41 -121.168C290.641 -129.1 308.905 -134.212 327.68 -136.347C343.57 -138.161 359.251 -137.785 374.365 -135.236Z" fill="#C9CA0E"/>
<path d="M285.833 91.9328C301.244 94.5318 317.214 94.9165 333.408 93.0715C352.54 90.8944 371.145 85.6869 388.72 77.5885C406.292 69.4997 421.782 59.0069 434.751 46.4033C447.272 34.2351 456.934 20.6142 463.462 5.93377C469.991 -8.74664 473.05 -23.7671 472.575 -38.6786C472.076 -54.1255 467.777 -68.8034 459.799 -82.294L459.678 -82.2327L459.799 -82.294C451.821 -95.7846 440.636 -107.293 426.556 -116.491C412.963 -125.372 397.248 -131.74 379.867 -135.417C362.486 -139.094 344.3 -139.883 325.817 -137.78C306.685 -135.603 288.08 -130.396 270.505 -122.297C252.934 -114.209 237.443 -103.716 224.475 -91.1121C211.953 -78.9439 202.292 -65.323 195.759 -50.633C189.23 -35.9526 186.172 -20.9321 186.646 -6.02066C187.146 9.42627 191.444 24.1042 199.422 37.5948C207.401 51.0854 218.586 62.5937 232.665 71.7916C246.259 80.6724 261.973 87.0406 279.354 90.7175C281.507 91.1623 283.663 91.5667 285.833 91.9328ZM373.311 -136.431C375.47 -136.066 377.626 -135.662 379.775 -135.208C397.121 -131.537 412.805 -125.184 426.368 -116.318C440.417 -107.136 451.575 -95.6523 459.538 -82.1848C467.501 -68.7173 471.799 -54.07 472.298 -38.6538C472.78 -23.7615 469.725 -8.78135 463.203 5.87987C456.686 20.5315 447.047 34.1256 434.544 46.2765C421.598 58.8532 406.149 69.3327 388.608 77.4061C371.067 85.4796 352.488 90.6814 333.394 92.8546C314.95 94.9534 296.801 94.1604 279.454 90.4892C262.107 86.8181 246.424 80.4652 232.861 71.5998C218.812 62.4173 207.653 50.9339 199.691 37.4664C191.728 23.9989 187.43 9.35161 186.931 -6.0646C186.449 -20.9569 189.504 -35.937 196.026 -50.5983C202.543 -65.2499 212.182 -78.844 224.685 -90.9949C237.631 -103.572 253.08 -114.051 270.621 -122.125C288.162 -130.198 306.741 -135.4 325.835 -137.573C341.987 -139.405 357.934 -139.024 373.311 -136.431Z" fill="#C4C90F"/>
<path d="M283.297 94.586C298.959 97.2274 315.207 97.6181 331.667 95.7464C351.117 93.5312 370.048 88.2356 387.914 80.0126C405.784 71.7801 421.524 61.1146 434.718 48.3039C447.453 35.9266 457.276 22.0774 463.912 7.14945C470.548 -7.7785 473.664 -23.0446 473.168 -38.2152C472.658 -53.9194 468.284 -68.845 460.174 -82.5621L460.053 -82.5008L460.174 -82.5621C452.064 -96.2793 440.686 -107.984 426.373 -117.333C412.546 -126.366 396.579 -132.838 378.905 -136.574C361.23 -140.311 342.735 -141.122 323.945 -138.979C304.495 -136.764 285.564 -131.468 267.697 -123.245C249.828 -115.013 234.088 -104.347 220.894 -91.5364C208.158 -79.1591 198.336 -65.3099 191.7 -50.3819C185.064 -35.454 181.948 -20.1879 182.444 -5.01727C182.954 10.6869 187.328 25.6125 195.438 39.3296C203.548 53.0468 214.926 64.7511 229.239 74.1007C243.066 83.1333 259.033 89.6054 276.707 93.342C278.906 93.7944 281.092 94.2142 283.297 94.586ZM372.253 -137.625C374.458 -137.253 376.644 -136.833 378.816 -136.375C396.456 -132.644 412.403 -126.186 426.2 -117.168C440.483 -107.834 451.833 -96.1547 459.928 -82.4606C468.026 -68.7761 472.4 -53.8812 472.898 -38.2097C473.39 -23.0601 470.277 -7.83433 463.649 7.07443C457.024 21.9736 447.224 35.796 434.507 48.156C421.347 60.9418 405.634 71.6015 387.798 79.8091C369.958 88.0263 351.069 93.3086 331.656 95.5199C312.904 97.6588 294.447 96.8445 276.804 93.1233C259.163 89.3925 243.216 82.9338 229.419 73.9166C215.137 64.5823 203.786 52.903 195.691 39.2089C187.597 25.5148 183.223 10.6199 182.729 -5.06122C182.236 -20.2107 185.35 -35.4365 191.978 -50.3453C198.603 -65.2445 208.403 -79.0668 221.12 -91.4269C234.28 -104.213 249.993 -114.872 267.829 -123.08C285.668 -131.297 304.558 -136.579 323.97 -138.791C340.404 -140.657 356.613 -140.262 372.253 -137.625Z" fill="#C0C810"/>
<path d="M280.764 97.2263C296.689 99.912 313.202 100.307 329.943 98.4007C349.712 96.1473 368.957 90.7617 387.118 82.4046C405.283 74.038 421.286 63.1924 434.698 50.1631C447.644 37.5864 457.627 23.5089 464.374 8.32399C471.121 -6.86096 474.284 -22.3745 473.785 -37.7907C473.267 -53.7615 468.826 -68.9232 460.576 -82.8783C452.323 -96.8239 440.765 -108.722 426.218 -118.223C412.168 -127.406 395.927 -133.986 377.959 -137.782C359.992 -141.578 341.197 -142.398 322.092 -140.227C302.322 -137.974 283.077 -132.588 264.916 -124.231C246.751 -115.864 230.748 -105.019 217.336 -91.9896C204.39 -79.4129 194.408 -65.3354 187.661 -50.1504C180.914 -34.9655 177.751 -19.4519 178.25 -4.03573C178.767 11.9351 183.208 27.0967 191.458 41.0519C199.712 54.9974 211.27 66.8956 225.817 76.3969C239.866 85.5794 256.107 92.159 274.075 95.9553C276.289 96.4308 278.525 96.8487 280.764 97.2263ZM460.452 -82.8074L460.331 -82.7461C468.569 -68.8236 472.995 -53.685 473.512 -37.7449C474.007 -22.3498 470.843 -6.8669 464.108 8.28928C457.375 23.4359 447.415 37.4865 434.488 50.0459C421.11 63.0502 405.141 73.8709 387.006 82.2222C368.872 90.5735 349.668 95.9458 329.937 98.1953C310.87 100.363 292.124 99.5405 274.175 95.7577C256.242 91.9672 240.035 85.3933 226.013 76.2359C211.485 66.748 199.953 54.8748 191.727 40.9542C183.489 27.0317 179.063 11.8931 178.546 -4.04705C178.051 -19.4421 181.214 -34.925 187.95 -50.0812C194.682 -65.2278 204.643 -79.2784 217.57 -91.8378C230.948 -104.842 246.917 -115.663 265.052 -124.014C283.186 -132.365 302.39 -137.738 322.121 -139.987C341.188 -142.155 359.945 -141.331 377.882 -137.55C395.816 -133.759 412.023 -127.185 426.045 -118.028C440.573 -108.54 452.104 -96.6667 460.331 -82.7461L460.452 -82.8074Z" fill="#BBC712"/>
<path d="M278.228 99.8784C294.416 102.608 311.195 103.007 328.201 101.074C348.301 98.7847 367.845 93.3168 386.305 84.816C404.764 76.3153 421.031 65.2895 434.657 52.0512C447.817 39.2655 457.961 24.9599 464.811 9.53706C471.662 -5.88575 474.886 -21.6545 474.376 -37.3278C473.863 -53.5634 469.351 -68.9822 460.965 -83.1543C452.58 -97.3263 440.837 -109.409 426.049 -119.073C411.766 -128.408 395.273 -135.091 377.012 -138.947C358.754 -142.812 339.648 -143.645 320.235 -141.433C300.136 -139.144 280.591 -133.676 262.132 -125.175C243.672 -116.674 227.405 -105.648 213.78 -92.41C200.619 -79.6244 190.476 -65.3187 183.625 -49.8959C176.775 -34.4731 173.55 -18.7044 174.06 -3.03104C174.588 13.1969 179.101 28.6157 187.486 42.7878C195.872 56.9598 207.614 69.0423 222.403 78.7069C236.686 88.041 253.179 94.7245 271.44 98.5804C273.688 99.0617 275.954 99.495 278.228 99.8784ZM460.845 -83.0929L460.724 -83.0316C469.082 -68.8845 473.598 -53.506 474.11 -37.3011C474.62 -21.6585 471.407 -5.91856 464.563 9.48507C457.724 24.8791 447.588 39.1656 434.462 51.9264C420.87 65.1397 404.625 76.1386 386.207 84.626C367.778 93.1114 348.26 98.5736 328.21 100.861C308.836 103.069 289.767 102.233 271.54 98.3828C253.314 94.5327 236.843 87.8531 222.587 78.5439C207.826 68.9043 196.102 56.8352 187.732 42.6862C179.362 28.5372 174.861 13.151 174.334 -3.04621C173.824 -18.6888 177.038 -34.4288 183.881 -49.8324C190.72 -65.2264 200.856 -79.5129 213.983 -92.2737C227.575 -105.487 243.819 -116.486 262.237 -124.973C280.666 -133.459 300.184 -138.921 320.234 -141.209C339.609 -143.416 358.677 -142.58 376.904 -138.73C395.131 -134.88 411.601 -128.2 425.857 -118.891C440.619 -109.252 452.342 -97.1825 460.712 -83.0335L460.845 -83.0929Z" fill="#B6C613"/>
<path d="M275.709 102.524C292.148 105.296 309.19 105.709 326.489 103.743C346.907 101.416 366.766 95.8577 385.52 87.2227C404.274 78.5878 420.805 67.3818 434.645 53.9344C448.004 40.9473 458.324 26.4057 465.293 10.7373C472.262 -4.93111 475.525 -20.9589 475.013 -36.8779C474.474 -53.3631 469.886 -69.0295 461.38 -83.4262L461.259 -83.3649L461.38 -83.4262C452.863 -97.8248 440.928 -110.103 425.906 -119.92C411.401 -129.404 394.632 -136.195 376.082 -140.12C357.531 -144.045 338.124 -144.887 318.396 -142.647C297.978 -140.319 278.119 -134.761 259.365 -126.126C240.611 -117.492 224.08 -106.286 210.24 -92.8382C196.877 -79.8415 186.561 -65.3094 179.592 -49.641C172.623 -33.9726 169.359 -17.9448 169.872 -2.0258C170.411 14.4593 174.999 30.1258 183.505 44.5225C192.022 58.9211 203.957 71.1995 218.979 81.0159C233.484 90.4999 250.252 97.291 268.803 101.216C271.089 101.694 273.39 102.133 275.709 102.524ZM369.072 -141.22C371.38 -140.831 373.68 -140.392 375.966 -139.915C394.486 -136.005 411.221 -129.219 425.706 -119.749C440.698 -109.948 452.618 -97.6926 461.119 -83.317C469.621 -68.9414 474.197 -53.3076 474.735 -36.8532C475.244 -20.9553 471.984 -4.96776 465.034 10.6834C458.087 26.325 447.79 40.8397 434.454 53.8C420.636 67.2205 404.139 78.4016 385.426 87.0231C366.702 95.6427 346.87 101.195 326.493 103.509C306.815 105.747 287.435 104.9 268.915 100.99C250.394 97.08 233.66 90.2946 219.174 80.8241C204.183 71.0231 192.263 58.7678 183.761 44.3922C175.26 30.0166 170.684 14.3827 170.145 -2.0717C169.637 -17.9696 172.897 -33.9571 179.847 -49.6082C186.794 -65.2498 197.09 -79.7646 210.427 -92.7248C224.245 -106.145 240.742 -117.326 259.454 -125.948C278.179 -134.568 298.011 -140.12 318.387 -142.434C335.648 -144.395 352.667 -143.987 369.072 -141.22Z" fill="#B1C514"/>
<path d="M273.174 105.175C289.876 107.992 307.195 108.41 324.751 106.407C345.488 104.041 365.669 98.4046 384.722 89.6259C403.772 80.8568 420.563 69.4802 434.621 55.8142C448.194 42.618 458.67 27.8577 465.75 11.9322C472.827 -3.98369 476.148 -20.2571 475.624 -36.4333C475.079 -53.1852 470.424 -69.0877 461.774 -83.7129L461.653 -83.6516L461.774 -83.7129C453.125 -98.3381 440.998 -110.812 425.742 -120.78C411 -130.407 393.971 -137.313 375.127 -141.298C356.283 -145.283 336.568 -146.146 316.533 -143.866C295.796 -141.5 275.615 -135.864 256.562 -127.085C237.513 -118.316 220.722 -106.939 206.664 -93.2733C193.091 -80.0772 182.615 -65.3169 175.534 -49.3914C168.458 -33.4755 165.137 -17.202 165.66 -1.02589C166.206 15.726 170.861 31.6286 179.51 46.2537C188.16 60.8789 200.287 73.3532 215.543 83.3213C230.285 92.9475 247.313 99.854 266.157 103.839C268.485 104.334 270.82 104.778 273.174 105.175ZM368.015 -142.416C370.357 -142.021 372.692 -141.576 375.008 -141.083C393.818 -137.104 410.816 -130.213 425.527 -120.602C440.764 -110.647 452.865 -98.1981 461.498 -83.596C470.132 -68.9939 474.783 -53.1124 475.328 -36.3912C475.852 -20.2458 472.53 -4.00307 465.472 11.8956C458.407 27.7827 447.949 42.5257 434.399 55.695C420.363 69.3342 403.606 80.6859 384.595 89.4512C365.576 98.2049 345.441 103.849 324.734 106.2C304.737 108.476 285.056 107.618 266.246 103.639C247.436 99.6602 230.439 92.7691 215.727 83.1583C200.49 73.2036 188.39 60.7543 179.756 46.1522C171.122 31.5501 166.471 15.6686 165.926 -1.05257C165.403 -17.198 168.724 -33.4407 175.782 -49.3394C182.847 -65.2265 193.305 -79.9696 206.856 -93.1389C220.891 -106.778 237.648 -118.13 256.66 -126.895C275.679 -135.649 295.814 -141.293 316.521 -143.643C334.062 -145.639 351.347 -145.227 368.015 -142.416Z" fill="#ACC315"/>
<path d="M270.643 107.816C287.607 110.677 305.181 111.097 323.015 109.069C344.082 106.667 364.566 100.939 383.914 92.0257C403.262 83.1129 420.313 71.5657 434.585 57.6907C448.372 44.2855 459.009 29.297 466.193 13.1336C473.377 -3.0298 476.748 -19.5603 476.221 -35.9821C475.665 -52.9912 470.939 -69.1509 462.157 -84.0026L462.037 -83.9412L462.157 -84.0026C453.376 -98.8543 441.056 -111.524 425.567 -121.644C410.603 -131.42 393.311 -138.432 374.173 -142.477C355.036 -146.522 335.021 -147.395 314.671 -145.086C293.604 -142.684 273.12 -136.955 253.772 -128.043C234.424 -119.13 217.373 -107.583 203.101 -93.7076C189.314 -80.3025 178.677 -65.3139 171.493 -49.1506C164.309 -32.9872 160.938 -16.4566 161.464 -0.0348453C162.009 16.9723 166.751 33.1243 175.528 47.9856C184.31 62.8373 196.629 75.5074 212.119 85.6273C227.083 95.4033 244.375 102.415 263.512 106.46C265.886 106.963 268.255 107.413 270.643 107.816ZM366.958 -143.612C369.346 -143.209 371.715 -142.759 374.066 -142.26C393.169 -138.221 410.43 -131.225 425.375 -121.462C440.846 -111.356 453.139 -98.7105 461.904 -83.8818C470.674 -69.0628 475.4 -52.9338 475.944 -35.9574C476.478 -19.5548 473.11 -3.06453 465.934 13.0797C458.761 29.2143 448.143 44.1856 434.378 57.5639C420.129 71.412 403.107 82.9439 383.801 91.8433C364.484 100.741 344.038 106.465 323.013 108.854C302.708 111.17 282.719 110.292 263.616 106.253C244.513 102.214 227.252 95.2173 212.307 85.4547C196.837 75.3483 184.544 62.7031 175.778 47.8745C167.012 33.0458 162.286 16.9168 161.73 -0.0615538C161.196 -16.4641 164.564 -32.9544 171.741 -49.0986C178.917 -65.2428 189.531 -80.2045 203.296 -93.5828C217.546 -107.431 234.567 -118.963 253.873 -127.862C273.198 -136.748 293.644 -142.473 314.67 -144.861C332.48 -146.893 350.028 -146.467 366.958 -143.612Z" fill="#A7C217"/>
<path d="M268.107 110.459C285.323 113.363 303.175 113.789 321.289 111.727C342.671 109.296 363.473 103.468 383.112 94.4305C402.755 85.3836 420.059 73.6542 434.556 59.5721C448.554 45.9675 459.352 30.7506 466.646 14.3302C473.937 -2.0807 477.37 -18.8664 476.829 -35.5358C476.274 -52.8001 471.472 -69.2074 462.548 -84.2876C453.623 -99.3677 441.134 -112.23 425.399 -122.503C410.201 -132.431 392.646 -139.549 373.215 -143.653C353.784 -147.758 333.461 -148.652 312.804 -146.303C291.421 -143.872 270.619 -138.045 250.977 -128.998C231.334 -119.951 214.031 -108.221 199.533 -94.1392C185.535 -80.5346 174.738 -65.3177 167.443 -48.8973C160.152 -32.4864 156.719 -15.7007 157.26 0.968668C157.815 18.233 162.617 34.6403 171.542 49.7205C180.466 64.8006 192.956 77.6628 208.69 87.9363C223.888 97.8641 241.443 104.982 260.874 109.086C263.27 109.593 265.685 110.051 268.107 110.459ZM365.897 -144.806C368.319 -144.397 370.723 -143.941 373.119 -143.435C392.515 -139.336 410.04 -132.234 425.208 -122.321C440.911 -112.063 453.385 -99.2239 462.294 -84.1668C471.192 -69.1116 475.997 -52.7446 476.548 -35.5014C477.085 -18.8532 473.667 -2.10583 466.384 14.2859C459.104 30.6679 448.325 45.8675 434.349 59.4453C419.882 73.512 402.601 85.2146 382.989 94.2462C363.376 103.278 342.62 109.083 321.272 111.519C300.652 113.864 280.363 112.976 260.967 108.877C241.57 104.779 224.046 97.6761 208.878 87.7637C193.174 77.5055 180.7 64.6664 171.791 49.6093C162.882 34.5522 158.092 18.1775 157.537 0.943915C157 -15.7043 160.418 -32.4517 167.702 -48.8434C174.982 -65.2255 185.761 -80.425 199.736 -94.0028C214.204 -108.07 231.485 -119.772 251.097 -128.804C270.709 -137.835 291.47 -143.65 312.814 -146.077C330.879 -148.137 348.704 -147.705 365.897 -144.806Z" fill="#A2C118"/>
<path d="M265.58 113.111C283.059 116.059 301.176 116.489 319.556 114.4C341.257 111.931 362.37 106.022 382.307 96.8413C402.256 87.6622 419.823 75.7526 434.539 61.4519C448.751 47.6383 459.709 32.1933 467.107 15.5349C474.505 -1.12338 477.985 -18.1566 477.445 -35.0811C476.882 -52.6121 472.002 -69.2574 462.945 -84.5641C453.889 -99.8707 441.207 -112.929 425.239 -123.354C409.819 -133.432 392 -140.655 372.276 -144.819C352.567 -148.991 331.928 -149.887 310.964 -147.498C289.263 -145.029 268.15 -139.121 248.213 -129.94C228.276 -120.759 210.708 -108.849 195.997 -94.5583C181.785 -80.7447 170.826 -65.2997 163.428 -48.6414C156.03 -31.9831 152.551 -14.9499 153.091 1.97468C153.653 19.5057 158.534 36.151 167.59 51.4576C176.647 66.7643 189.328 79.8223 205.296 90.2476C220.717 100.325 238.535 107.549 258.259 111.713C260.675 112.232 263.124 112.697 265.58 113.111ZM364.851 -146.01C367.308 -145.596 369.745 -145.134 372.176 -144.622C391.866 -140.463 409.65 -133.246 425.055 -123.191C441 -112.77 453.659 -99.7461 462.699 -84.4625C471.74 -69.1789 476.605 -52.5566 477.171 -35.066C477.722 -18.1702 474.243 -1.16769 466.852 15.4714C459.465 32.101 448.514 47.5268 434.336 61.3155C419.654 75.5913 402.109 87.474 382.202 96.6397C362.295 105.805 341.224 111.7 319.546 114.173C298.619 116.558 278.019 115.658 258.332 111.49C238.643 107.332 220.858 100.114 205.454 90.0596C189.508 79.6382 176.85 66.6147 167.809 51.3311C158.768 36.0475 153.903 19.4252 153.337 1.93454C152.786 -14.9612 156.266 -31.9637 163.657 -48.6029C171.044 -65.2324 181.995 -80.6582 196.173 -94.4469C210.854 -108.723 228.399 -120.605 248.306 -129.771C268.213 -138.937 289.284 -144.832 310.962 -147.305C329.305 -149.39 347.396 -148.954 364.851 -146.01Z" fill="#9DC019"/>
<path d="M263.06 115.755C280.802 118.747 299.182 119.191 317.843 117.067C339.874 114.562 361.301 108.564 381.533 99.2483C401.765 89.9331 419.593 77.8528 434.523 63.343C448.945 49.3299 460.068 33.647 467.573 16.7412C475.09 -0.162749 478.62 -17.4531 478.065 -34.6253C477.492 -52.4135 472.536 -69.3064 463.348 -84.8397C454.16 -100.373 441.282 -113.617 425.076 -124.215C409.422 -134.445 391.34 -141.774 371.326 -146.007C351.301 -150.243 330.377 -151.156 309.105 -148.727C287.074 -146.222 265.647 -140.224 245.415 -130.909C225.183 -121.594 207.355 -109.513 192.425 -95.0035C178.003 -80.9904 166.88 -65.3075 159.375 -48.4017C151.858 -31.4977 148.328 -14.2074 148.883 2.9648C149.456 20.753 154.412 37.646 163.6 53.1792C172.788 68.7124 185.666 81.9567 201.872 92.5549C217.526 102.784 235.608 110.114 255.622 114.347C258.075 114.863 260.559 115.333 263.06 115.755ZM463.219 -84.7899L463.099 -84.7285C472.264 -69.2299 477.204 -52.3599 477.777 -34.6024C478.327 -17.4514 474.812 -0.199404 467.303 16.6853C459.797 33.5605 448.697 49.2166 434.308 63.2047C419.401 77.6877 401.604 89.7526 381.402 99.0525C361.2 108.352 339.814 114.337 317.818 116.848C296.576 119.262 275.686 118.354 255.695 114.124C235.715 109.897 217.664 102.583 202.029 92.367C185.85 81.7938 173 68.5744 163.827 53.0642C154.654 37.554 149.714 20.6841 149.141 2.92659C148.59 -14.2245 152.105 -31.4765 159.615 -48.3612C167.12 -65.2363 178.221 -80.8924 192.609 -94.8806C207.516 -109.364 225.314 -121.428 245.516 -130.728C265.718 -140.028 287.103 -146.013 309.1 -148.524C330.342 -150.938 351.243 -150.028 371.223 -145.8C391.202 -141.573 409.253 -134.259 424.892 -124.052C441.071 -113.479 453.922 -100.26 463.094 -84.7496L463.219 -84.7899Z" fill="#98BF1A"/>
<path d="M260.522 118.407C278.515 121.441 297.172 121.891 316.099 119.741C338.449 117.197 360.19 111.109 380.717 101.66C401.244 92.2104 419.336 79.9499 434.48 65.2311C449.116 51.009 460.396 35.1073 468.024 17.9463C475.652 0.785328 479.224 -16.743 478.659 -34.1723C478.075 -52.2177 473.055 -69.3563 463.739 -85.1257L463.618 -85.0644L463.739 -85.1257C454.419 -100.885 441.348 -114.326 424.909 -125.076C409.033 -135.455 390.676 -142.892 370.369 -147.185C350.062 -151.478 328.814 -152.405 307.239 -149.946C284.889 -147.402 263.147 -141.314 242.62 -131.865C222.093 -122.415 204.002 -110.155 188.858 -95.4361C174.221 -81.214 162.942 -65.3124 155.314 -48.1514C147.69 -30.9999 144.114 -13.462 144.679 3.96728C145.263 22.0127 150.282 39.1513 159.599 54.9207C168.919 70.6804 181.989 84.1206 198.428 94.8706C214.305 105.25 232.662 112.687 252.969 116.98C255.468 117.503 257.986 117.979 260.522 118.407ZM362.723 -148.403C365.248 -147.977 367.766 -147.501 370.261 -146.968C390.534 -142.681 408.86 -135.259 424.706 -124.895C441.118 -114.17 454.162 -100.755 463.466 -85.0184C472.771 -69.2817 477.787 -52.1641 478.37 -34.1495C478.935 -16.7508 475.359 0.756361 467.742 17.8886C460.125 35.0208 448.868 50.8956 434.254 65.0908C419.129 79.7924 401.071 92.0279 380.574 101.462C360.078 110.896 338.378 116.971 316.066 119.51C294.517 121.964 273.307 121.033 253.031 116.755C232.758 112.468 214.432 105.046 198.586 94.6826C182.173 83.9576 169.13 70.5424 159.825 54.8057C150.521 39.0689 145.505 21.9514 144.922 3.93676C144.357 -13.4619 147.933 -30.9691 155.55 -48.1013C163.163 -65.2239 174.424 -81.1083 189.038 -95.3036C204.163 -110.005 222.221 -122.241 242.718 -131.675C263.214 -141.109 284.914 -147.184 307.226 -149.723C326.13 -151.877 344.765 -151.431 362.723 -148.403Z" fill="#94BE1C"/>
<path d="M257.991 121.051C276.247 124.129 295.17 124.583 314.366 122.397C337.035 119.815 359.087 113.646 379.912 104.053C400.738 94.4602 419.089 82.0292 434.451 67.0917C449.286 52.6683 460.742 36.5308 468.473 19.1319C476.205 1.73307 479.842 -16.06 479.263 -33.7369C478.668 -52.0393 473.577 -69.4352 464.125 -85.4214C454.673 -101.408 441.422 -115.042 424.738 -125.945C408.628 -136.476 390.019 -144.017 369.419 -148.37C348.83 -152.72 327.274 -153.669 305.38 -151.172C282.711 -148.59 260.659 -142.421 239.834 -132.828C219.008 -123.235 200.656 -110.804 185.295 -95.8668C170.459 -81.4434 159.004 -65.3059 151.273 -47.907C143.541 -30.5081 139.904 -12.7151 140.483 4.96179C141.078 23.2643 146.169 40.6601 155.621 56.6464C165.073 72.6326 178.324 86.2667 195.008 97.1703C211.118 107.701 229.727 115.242 250.327 119.595C252.869 120.136 255.421 120.617 257.991 121.051ZM361.666 -149.595C364.237 -149.162 366.789 -148.68 369.319 -148.141C389.885 -143.795 408.471 -136.258 424.554 -125.752C441.211 -114.873 454.435 -101.264 463.872 -85.3007C473.309 -69.3375 478.399 -51.9724 478.993 -33.7006C479.557 -16.0468 475.935 1.70794 468.211 19.0876C460.49 36.4577 449.057 52.5683 434.24 66.9745C418.902 81.8851 400.58 94.3009 379.788 103.869C358.993 113.447 336.983 119.602 314.352 122.18C292.484 124.672 270.975 123.73 250.408 119.384C229.842 115.037 211.256 107.5 195.173 96.9939C178.516 86.1152 165.292 72.5061 155.855 56.5429C146.418 40.5797 141.328 23.2145 140.734 4.94274C140.158 -12.713 143.792 -30.4658 151.516 -47.8454C159.237 -65.2155 170.67 -81.3262 185.487 -95.7324C200.826 -110.643 219.147 -123.059 239.939 -132.627C260.734 -142.205 282.744 -148.36 305.375 -150.938C324.548 -153.128 343.445 -152.668 361.666 -149.595Z" fill="#8FBD1D"/>
<path d="M255.452 123.7C273.971 126.823 293.16 127.281 312.633 125.07C335.621 122.45 357.987 116.192 379.107 106.464C400.228 96.7372 418.843 84.1259 434.419 68.9794C449.469 54.3469 461.085 37.9811 468.923 20.3348C476.762 2.68844 480.446 -15.3522 479.867 -33.2843C479.266 -51.8535 474.096 -69.4873 464.512 -85.7001C454.917 -101.915 441.485 -115.743 424.567 -126.798C408.231 -137.469 389.351 -145.127 368.457 -149.54C347.563 -153.952 325.707 -154.911 303.509 -152.383C280.522 -149.763 258.156 -143.504 237.035 -133.777C215.915 -124.05 197.299 -111.439 181.724 -96.2921C166.674 -81.6596 155.058 -65.2938 147.219 -47.6475C139.381 -30.0011 135.697 -11.9605 136.275 5.97157C136.877 24.5408 142.047 42.1746 151.631 58.3875C161.226 74.6022 174.658 88.4302 191.576 99.4856C207.912 110.157 226.792 117.815 247.686 122.227C250.254 122.762 252.848 123.261 255.452 123.7ZM360.606 -150.792C363.21 -150.353 365.797 -149.866 368.372 -149.319C389.232 -144.913 408.081 -137.27 424.386 -126.614C441.278 -115.584 454.694 -101.779 464.274 -85.5871C473.854 -69.3954 479.008 -51.7846 479.613 -33.2556C480.191 -15.3542 476.519 2.65756 468.687 20.2847C460.86 37.9023 449.266 54.2412 434.239 68.8469C418.686 83.9665 400.1 96.5624 379.014 106.265C357.924 115.977 335.599 122.222 312.638 124.836C290.467 127.358 268.657 126.407 247.786 121.999C226.926 117.592 208.077 109.95 191.771 99.2938C174.88 88.2634 161.464 74.4584 151.884 58.2667C142.304 42.075 137.15 24.4642 136.545 5.93529C135.966 -11.9661 139.639 -29.9779 147.482 -47.6032C155.31 -65.2207 166.903 -81.5597 181.931 -96.1653C197.484 -111.285 216.069 -123.881 237.155 -133.583C258.246 -143.295 280.57 -149.54 303.531 -152.154C322.959 -154.373 342.122 -153.91 360.606 -150.792Z" fill="#8ABC1E"/>
<path d="M252.925 126.344C271.695 129.509 291.158 129.983 310.904 127.725C334.222 125.069 356.903 118.721 378.318 108.859C399.733 98.9981 418.598 86.2142 434.402 70.8511C449.662 56.0191 461.439 39.4251 469.385 21.5312C477.343 3.63927 481.077 -14.6585 480.484 -32.8381C479.871 -51.6646 474.638 -69.5441 464.911 -85.9854L464.79 -85.9241L464.911 -85.9854C455.183 -102.427 441.559 -116.451 424.407 -127.658C407.838 -138.481 388.694 -146.244 367.518 -150.715C346.32 -155.188 324.179 -156.164 301.662 -153.598C278.344 -150.942 255.664 -144.594 234.249 -134.732C212.833 -124.871 193.969 -112.087 178.164 -96.7239C162.904 -81.8919 151.127 -65.2979 143.181 -47.404C135.224 -29.5121 131.49 -11.2144 132.083 6.96529C132.695 25.7917 137.929 43.6713 147.656 60.1126C157.383 76.5538 171.008 90.5777 188.159 101.785C204.729 112.608 223.872 120.372 245.048 124.842C247.654 125.404 250.286 125.899 252.925 126.344ZM359.557 -151.996C362.196 -151.551 364.816 -151.058 367.426 -150.505C388.579 -146.039 407.692 -138.291 424.231 -127.483C441.352 -116.291 454.964 -102.3 464.676 -85.8819C474.388 -69.4637 479.618 -51.6052 480.218 -32.8115C480.807 -14.6529 477.076 3.60454 469.138 21.4792C461.203 39.3443 449.448 55.9115 434.207 70.7262C418.425 86.0625 399.59 98.831 378.206 108.677C356.821 118.523 334.182 124.858 310.902 127.51C288.423 130.073 266.293 129.099 245.141 124.633C223.988 120.166 204.875 112.418 188.336 101.61C171.215 90.4186 157.602 76.4273 147.89 60.0091C138.178 43.5908 132.949 25.7324 132.349 6.93862C131.759 -11.22 135.49 -29.4774 143.429 -47.3521C151.364 -65.2172 163.118 -81.7843 178.359 -96.599C194.142 -111.935 212.976 -124.704 234.361 -134.55C255.746 -144.396 278.385 -150.731 301.665 -153.383C321.377 -155.616 340.81 -155.158 359.557 -151.996Z" fill="#85BB1F"/>
<path d="M250.397 128.997C269.429 132.207 289.159 132.684 309.171 130.4C332.807 127.706 355.798 121.277 377.508 111.282C399.218 101.286 418.346 88.3221 434.365 72.7499C449.84 57.7089 461.777 40.8866 469.83 22.7453C477.884 4.604 481.675 -13.9393 481.083 -32.3742C480.46 -51.4577 475.152 -69.5849 465.296 -86.2622L465.175 -86.2009L465.296 -86.2622C455.437 -102.93 441.62 -117.15 424.235 -128.509C407.443 -139.481 388.036 -147.351 366.559 -151.892C345.083 -156.433 322.615 -157.414 299.794 -154.817C276.158 -152.123 253.167 -145.694 231.457 -135.698C209.747 -125.703 190.618 -112.739 174.6 -97.1665C159.125 -82.1255 147.188 -65.3032 139.135 -47.1619C131.07 -29.0225 127.289 -10.4773 127.882 7.95759C128.505 27.0411 133.813 45.1682 143.669 61.8456C153.528 78.5134 167.345 92.7332 184.73 104.092C201.522 115.065 220.929 122.934 242.406 127.476C245.05 128.034 247.712 128.544 250.397 128.997ZM358.495 -153.191C361.168 -152.74 363.831 -152.23 366.475 -151.672C387.917 -147.136 407.294 -139.282 424.066 -128.323C441.424 -116.989 455.214 -102.794 465.058 -86.1492C474.902 -69.5044 480.206 -51.3984 480.817 -32.3475C481.409 -13.9433 477.629 4.57122 469.583 22.6933C461.529 40.8039 449.614 57.5994 434.174 72.6154C418.177 88.1608 399.083 101.1 377.4 111.09C355.72 121.07 332.766 127.495 309.168 130.185C286.374 132.776 263.94 131.802 242.498 127.266C221.056 122.731 201.679 114.877 184.903 103.927C167.537 92.5817 153.747 78.3869 143.9 61.7518C134.056 45.107 128.751 27.001 128.14 7.9501C127.548 -10.4541 131.329 -28.9686 139.375 -47.0907C147.428 -65.2013 159.344 -81.9968 174.784 -97.0128C190.78 -112.558 209.875 -125.497 231.558 -135.487C253.238 -145.467 276.191 -151.892 299.79 -154.583C319.79 -156.868 339.485 -156.397 358.495 -153.191Z" fill="#80BA21"/>
<path d="M247.873 131.64C267.169 134.895 287.164 135.376 307.453 133.067C331.409 130.335 354.714 123.816 376.719 113.686C398.724 103.557 418.116 90.4125 434.349 74.6312C450.034 59.3908 462.132 42.3402 470.308 23.9437C478.48 5.55676 482.322 -13.2437 481.715 -31.9262C481.097 -51.2746 475.713 -69.6494 465.71 -86.5457C455.719 -103.44 441.71 -117.856 424.091 -129.366C407.066 -140.491 387.395 -148.466 365.625 -153.067C343.855 -157.668 321.09 -158.668 297.951 -156.033C273.996 -153.3 250.69 -146.781 228.685 -136.652C206.68 -126.522 187.288 -113.378 171.055 -97.5965C155.37 -82.356 143.272 -65.3054 135.097 -46.9089C126.925 -28.522 123.083 -9.72156 123.689 8.96093C124.308 28.3093 129.692 46.6841 139.694 63.5804C149.685 80.4748 163.687 94.8789 181.313 106.401C198.339 117.526 218.009 125.501 239.779 130.102C242.458 130.666 245.155 131.182 247.873 131.64ZM465.582 -86.4959L465.461 -86.4345C475.436 -69.5632 480.816 -51.2096 481.438 -31.9014C482.041 -13.2401 478.213 5.52205 470.049 23.8898C461.888 42.2479 449.808 59.2812 434.146 74.4948C417.936 90.2492 398.577 103.369 376.599 113.492C354.624 123.607 331.357 130.122 307.439 132.85C284.338 135.482 261.596 134.486 239.86 129.891C218.125 125.296 198.485 117.336 181.49 106.227C163.89 94.7294 149.908 80.3387 139.929 63.4769C129.953 46.6056 124.573 28.252 123.951 8.94384C123.345 -9.70794 127.176 -28.4796 135.341 -46.8474C143.501 -65.2055 155.581 -82.2388 171.232 -97.4543C187.442 -113.209 206.801 -126.328 228.779 -136.452C250.753 -146.566 274.021 -153.082 297.938 -155.81C321.04 -158.441 343.782 -157.445 365.517 -152.85C387.253 -148.255 406.893 -140.295 423.888 -129.186C441.488 -117.689 455.47 -103.298 465.446 -86.4269L465.582 -86.4959Z" fill="#7BB822"/>
<path d="M245.339 134.281C264.886 137.578 285.159 138.065 305.713 135.73C329.995 132.971 353.604 126.36 375.907 116.086C398.21 105.813 417.863 92.4982 434.321 76.5098C450.22 61.0603 462.479 43.7815 470.758 25.1471C479.037 6.51276 482.926 -12.5352 482.32 -31.4729C481.691 -51.0785 476.232 -69.7008 466.097 -86.8236L465.976 -86.7623L466.097 -86.8236C455.978 -103.954 441.784 -118.554 423.924 -130.228C406.677 -141.502 386.742 -149.583 364.679 -154.244C342.616 -158.905 319.539 -159.916 296.096 -157.25C271.815 -154.491 248.206 -147.881 225.903 -137.607C203.599 -127.334 183.947 -114.019 167.5 -98.0286C151.601 -82.5791 139.342 -65.3003 131.063 -46.6659C122.784 -28.0316 118.895 -8.9836 119.501 9.95412C120.13 29.5597 125.589 48.182 135.724 65.3048C145.847 82.4257 160.041 97.0257 177.901 108.7C195.148 119.974 215.082 128.055 237.146 132.716C239.851 133.305 242.586 133.817 245.339 134.281ZM356.375 -155.583C359.128 -155.119 361.847 -154.599 364.571 -154.027C386.601 -149.372 406.504 -141.307 423.732 -130.046C441.566 -118.397 455.74 -103.81 465.848 -86.7125C475.955 -69.6146 481.41 -51.0134 482.039 -31.4385C482.656 -12.5296 478.767 6.48765 470.495 25.1028C462.227 43.7084 449.987 60.97 434.111 76.3926C417.682 92.3656 398.064 105.656 375.791 115.914C353.518 126.172 329.939 132.767 305.696 135.522C282.276 138.192 259.249 137.179 237.208 132.522C215.179 127.867 195.275 119.801 178.047 108.54C160.214 96.8915 146.039 82.3049 135.932 65.2071C125.824 48.1092 120.369 29.508 119.737 9.94277C119.131 -8.96425 123.009 -27.9834 131.28 -46.5986C139.548 -65.2042 151.789 -82.4658 167.665 -97.8884C184.093 -113.861 203.712 -127.151 225.985 -137.409C248.258 -147.667 271.836 -154.263 296.08 -157.018C316.616 -159.367 336.862 -158.874 356.375 -155.583Z" fill="#76B723"/>
<path d="M242.802 136.933C262.611 140.274 283.151 140.765 303.975 138.394C328.575 135.597 352.51 128.898 375.108 118.49C397.706 108.083 417.622 94.5874 434.295 78.39C450.393 62.7391 462.816 45.2224 471.214 26.3424C479.601 7.46045 483.551 -11.8427 482.931 -31.0281C482.279 -50.8928 476.757 -69.7609 466.494 -87.1198C456.227 -104.469 441.853 -119.263 423.747 -131.091C406.266 -142.517 386.069 -150.704 363.712 -155.424C341.359 -160.154 317.982 -161.175 294.217 -158.462C269.616 -155.665 245.682 -148.966 223.083 -138.558C200.485 -128.151 180.569 -114.655 163.896 -98.458C147.787 -82.809 135.363 -65.2923 126.977 -46.4104C118.591 -27.5285 114.641 -8.22525 115.261 10.9601C115.901 30.8229 121.435 49.6928 131.69 67.0403C141.956 84.3897 156.331 99.1837 174.436 111.011C191.917 122.438 212.115 130.624 234.472 135.344C237.249 135.935 240.015 136.463 242.802 136.933ZM466.373 -87.0585L466.252 -86.9972C476.503 -69.6708 482.025 -50.8334 482.661 -30.9918C483.281 -11.8372 479.342 7.43726 470.963 26.3C462.588 45.1531 450.175 62.6411 434.1 78.2651C417.457 94.4472 397.575 107.917 375.007 118.31C352.439 128.702 328.546 135.387 303.984 138.181C280.26 140.881 256.921 139.856 234.587 135.139C212.265 130.425 192.101 122.244 174.647 110.843C156.572 99.0303 142.213 84.2594 131.974 66.935C121.723 49.6086 116.2 30.7712 115.564 10.9296C114.945 -8.22505 118.884 -27.4995 127.263 -46.3622C135.638 -65.2154 148.05 -82.7033 164.126 -98.3273C180.768 -114.509 200.651 -127.98 223.219 -138.372C245.787 -148.764 269.679 -155.45 294.242 -158.243C317.966 -160.943 341.32 -159.926 363.639 -155.201C385.961 -150.487 406.124 -142.306 423.579 -130.905C441.653 -119.093 456.013 -104.322 466.252 -86.9972L466.373 -87.0585Z" fill="#71B624"/>
<path d="M240.268 139.575C260.34 142.96 281.145 143.456 302.246 141.06C327.166 138.224 351.415 131.435 374.308 120.894C397.201 110.352 417.377 96.6861 434.268 80.2701C450.58 64.4102 463.171 46.6767 471.665 27.5473C480.17 8.41984 484.159 -11.1424 483.536 -30.5734C482.885 -50.6933 477.291 -69.8186 466.893 -87.3945C456.487 -104.982 441.916 -119.962 423.589 -131.94C405.882 -143.506 385.413 -151.81 362.774 -156.588C340.139 -161.376 316.439 -162.41 292.37 -159.667C267.451 -156.831 243.202 -150.042 220.309 -139.501C197.416 -128.959 177.239 -115.293 160.349 -98.8772C144.037 -83.0173 131.445 -65.2839 122.951 -46.1545C114.446 -27.027 110.457 -7.46475 111.081 11.9662C111.731 32.0861 117.325 51.2114 127.724 68.7874C138.122 86.3633 152.689 101.353 171.028 113.333C188.735 124.899 209.204 133.203 231.842 137.981C234.631 138.574 237.446 139.1 240.268 139.575ZM466.764 -87.3447L466.643 -87.2834C477.026 -69.7305 482.612 -50.6474 483.27 -30.5467C483.901 -11.1349 479.915 8.38705 471.417 27.4953C462.923 46.594 450.362 64.3122 434.072 80.1452C417.204 96.5344 397.058 110.185 374.207 120.713C351.344 131.239 327.137 138.015 302.255 140.847C278.213 143.585 254.562 142.548 231.95 137.764C209.338 132.98 188.907 124.703 171.219 113.15C152.911 101.186 138.36 86.2195 127.988 68.6686C117.605 51.1157 112.019 32.0326 111.361 11.9318C110.731 -7.47993 114.716 -27.0019 123.214 -46.1102C131.708 -65.2089 144.27 -82.927 160.559 -98.76C177.427 -115.149 197.573 -128.8 220.425 -139.328C243.272 -149.847 267.48 -156.622 292.376 -159.461C316.407 -162.201 340.069 -161.163 362.681 -156.379C385.294 -151.595 405.724 -143.318 423.412 -131.765C441.72 -119.801 456.272 -104.834 466.643 -87.2834L466.764 -87.3447Z" fill="#6CB526"/>
<path d="M237.745 142.228C258.069 145.655 279.148 146.166 300.522 143.724C325.76 140.851 350.319 133.981 373.511 123.296C396.699 112.62 417.128 98.7722 434.247 82.1395C450.77 66.0802 463.514 48.107 472.127 28.7321C480.739 9.35715 484.786 -10.4507 484.14 -30.1407C483.483 -50.5273 477.81 -69.8906 467.28 -87.693C456.749 -105.495 441.99 -120.681 423.418 -132.812C405.477 -144.53 384.756 -152.938 361.816 -157.787C338.877 -162.637 314.892 -163.689 290.504 -160.907C265.266 -158.033 240.706 -151.164 217.515 -140.479C194.327 -129.803 173.898 -115.955 156.778 -99.3222C140.256 -83.2629 127.511 -65.2897 118.899 -45.9148C110.287 -26.5399 106.24 -6.73208 106.885 12.9579C107.543 33.3446 113.216 52.7078 123.746 70.5102C134.276 88.3126 149.035 103.498 167.608 115.629C185.549 127.348 206.27 135.755 229.213 140.595C232.032 141.203 234.878 141.744 237.745 142.228ZM467.155 -87.622L467.034 -87.5607C477.549 -69.7813 483.21 -50.4507 483.867 -30.0948C484.501 -10.4374 480.465 9.34162 471.86 28.6974C463.259 48.0435 450.537 65.9899 434.033 82.0319C416.947 98.6397 396.541 112.461 373.395 123.123C350.237 133.784 325.716 140.649 300.516 143.519C276.169 146.287 252.207 145.239 229.313 140.397C206.408 135.554 185.714 127.171 167.792 115.466C149.25 103.351 134.518 88.19 124.003 70.4106C113.488 52.6312 107.827 33.3006 107.17 12.9447C106.537 -6.7127 110.572 -26.4917 119.177 -45.8475C127.778 -65.1936 140.501 -83.14 157.004 -99.182C174.09 -115.79 194.497 -129.611 217.643 -140.273C240.8 -150.934 265.322 -157.799 290.522 -160.669C314.868 -163.437 338.819 -162.391 361.728 -157.557C384.633 -152.714 405.327 -144.331 423.249 -132.626C441.791 -120.51 456.523 -105.35 467.038 -87.5703L467.155 -87.622Z" fill="#68B427"/>
<path d="M235.217 144.873C255.804 148.345 277.149 148.86 298.8 146.393C324.369 143.483 349.231 136.522 372.714 125.712C396.196 114.902 416.889 100.874 434.223 84.0321C450.96 67.7637 463.862 49.5718 472.596 29.9417C481.316 10.3192 485.413 -9.74575 484.764 -29.6815C484.096 -50.3253 478.348 -69.9362 467.686 -87.9652C457.024 -105.994 442.083 -121.374 423.266 -133.659C405.103 -145.527 384.107 -154.042 360.874 -158.951C337.641 -163.86 313.344 -164.924 288.652 -162.112C263.084 -159.202 238.221 -152.241 214.739 -141.431C191.256 -130.621 170.563 -116.592 153.229 -99.7507C136.493 -83.4823 123.591 -65.2904 114.856 -45.6603C106.137 -26.0378 102.04 -5.97282 102.688 13.9629C103.356 34.6067 109.104 54.2177 119.767 72.2467C130.429 90.2757 145.369 105.655 164.187 117.94C182.35 129.808 203.346 138.324 226.579 143.232C229.436 143.837 232.316 144.384 235.217 144.873ZM467.554 -87.9058L467.433 -87.8445C478.079 -69.8385 483.816 -50.2602 484.48 -29.6375C485.124 -9.72292 481.031 10.3018 472.322 29.8955C463.614 49.4891 450.719 67.6619 434.016 83.9053C416.716 100.722 396.046 114.723 372.605 125.52C349.153 136.315 324.317 143.27 298.786 146.176C274.133 148.985 249.859 147.925 226.671 143.023C203.472 138.12 182.518 129.622 164.375 117.768C145.588 105.498 130.674 90.1434 120.016 72.1355C109.369 54.1296 103.633 34.5513 102.969 13.9285C102.325 -5.98606 106.418 -26.0107 115.127 -45.6044C123.835 -65.1981 136.73 -83.3708 153.432 -99.6143C170.732 -116.431 191.403 -130.432 214.844 -141.229C238.296 -152.024 263.132 -158.979 288.663 -161.885C313.316 -164.694 337.579 -163.636 360.789 -158.73C383.988 -153.827 404.942 -145.329 423.086 -133.475C441.873 -121.205 456.786 -105.85 467.433 -87.8445L467.554 -87.9058Z" fill="#63B328"/>
<path d="M232.678 147.523C253.527 151.039 275.138 151.558 297.055 149.064C322.943 146.116 348.131 139.067 371.908 128.123C395.689 117.169 416.643 102.97 434.191 85.9196C451.138 69.4518 464.204 51.022 473.042 31.154C481.869 11.284 486.024 -9.02656 485.365 -29.2194C484.686 -50.1204 478.874 -69.977 468.072 -88.2441C457.278 -106.5 442.142 -122.066 423.094 -134.512C404.698 -146.532 383.45 -155.151 359.923 -160.119C336.397 -165.088 311.792 -166.173 286.793 -163.321C260.906 -160.373 235.717 -153.324 211.94 -142.379C188.159 -131.426 167.206 -117.227 149.658 -100.176C132.711 -83.7083 119.644 -65.2785 110.806 -45.4105C101.979 -25.5405 97.8246 -5.22995 98.4835 14.9629C99.1623 35.8639 104.974 55.7205 115.776 73.9876C126.57 92.2432 141.706 107.809 160.754 120.255C179.151 132.275 200.399 140.894 223.925 145.863C226.828 146.475 229.742 147.028 232.678 147.523ZM467.944 -88.1943L467.823 -88.133C478.601 -69.9005 484.413 -50.0746 485.088 -29.1947C485.735 -9.03443 481.602 11.2493 472.775 31.0886C463.948 50.9278 450.904 69.3307 433.976 85.7813C416.462 102.807 395.528 116.989 371.792 127.919C348.041 138.858 322.894 145.894 297.045 148.838C272.073 151.685 247.513 150.607 224.021 145.644C200.529 140.681 179.312 132.078 160.934 120.071C141.917 107.64 126.808 92.0994 116.018 73.8649C105.239 55.6324 99.4276 35.8065 98.7529 14.9266C98.1058 -5.23361 102.238 -25.5173 111.054 -45.3585C119.87 -65.1997 132.925 -83.6007 149.853 -100.051C167.367 -117.077 188.301 -131.259 212.041 -142.199C235.792 -153.137 260.938 -160.173 286.788 -163.117C311.76 -165.964 336.331 -164.885 359.812 -159.924C383.304 -154.961 404.521 -146.357 422.898 -134.351C441.927 -121.918 457.044 -106.365 467.823 -88.133L467.944 -88.1943Z" fill="#5EB229"/>
<path d="M230.147 150.166C251.247 153.725 273.136 154.25 295.322 151.72C321.528 148.734 347.027 141.604 371.103 130.516C395.179 119.428 416.392 105.059 434.158 87.7894C451.319 71.1126 464.546 52.4545 473.492 32.339C482.437 12.2235 486.631 -8.34612 485.969 -28.7846C485.283 -49.9524 479.396 -70.0566 468.459 -88.5406L468.338 -88.4793L468.459 -88.5406C457.521 -107.025 442.204 -122.785 422.923 -135.382C404.293 -147.554 382.781 -156.279 358.961 -161.307C335.145 -166.345 310.236 -167.43 284.922 -164.549C258.716 -161.563 233.218 -154.434 209.142 -143.346C185.066 -132.258 163.852 -117.889 146.086 -100.619C128.925 -83.9423 115.698 -65.2842 106.753 -45.1687C97.8074 -25.0532 93.6139 -4.48357 94.2758 15.9549C94.9615 37.1227 100.849 57.2269 111.786 75.7109C122.724 94.1949 138.041 109.955 157.322 122.553C175.952 134.724 197.464 143.449 221.283 148.477C224.228 149.107 227.177 149.665 230.147 150.166ZM350.021 -162.764C352.991 -162.263 355.939 -161.705 358.877 -161.087C382.662 -156.064 404.143 -147.355 422.743 -135.198C441.993 -122.616 457.295 -106.879 468.217 -88.4179C479.139 -69.957 485.014 -49.8854 485.7 -28.7483C486.357 -8.33095 482.167 12.1984 473.244 32.2871C464.321 52.3757 451.105 71.0049 433.967 87.655C416.223 104.898 395.04 119.252 371.006 130.326C346.96 141.399 321.499 148.524 295.331 151.507C270.055 154.384 245.169 153.302 221.399 148.272C197.613 143.25 176.132 134.54 157.533 122.384C138.282 109.801 122.98 94.0646 112.058 75.6036C101.136 57.1427 95.2611 37.0711 94.5757 15.934C93.918 -4.48336 98.1081 -25.0127 107.031 -45.1013C115.954 -65.19 129.17 -83.8193 146.309 -100.469C164.052 -117.712 185.235 -132.066 209.269 -143.14C233.315 -154.213 258.776 -161.339 284.944 -164.321C307.104 -166.845 328.955 -166.317 350.021 -162.764Z" fill="#59B12B"/>
<path d="M227.608 152.817C248.971 156.42 271.125 156.949 293.589 154.394C320.125 151.372 345.927 144.15 370.298 132.928C394.669 121.706 416.146 107.157 434.126 89.6782C451.497 72.8019 464.885 53.9156 473.937 33.5526C482.99 13.1896 487.242 -7.62556 486.569 -28.3212C485.873 -49.7461 479.91 -70.0979 468.852 -88.8065L468.732 -88.7452L468.852 -88.8065C457.783 -107.517 442.274 -123.473 422.759 -136.223C403.906 -148.544 382.116 -157.367 358.018 -162.462C333.92 -167.558 308.692 -168.667 283.071 -165.746C256.535 -162.723 230.733 -155.502 206.362 -144.28C181.991 -133.058 160.514 -118.508 142.534 -101.03C125.163 -84.1534 111.775 -65.2671 102.722 -44.9041C93.6694 -24.5411 89.4181 -3.7259 90.0905 16.9697C90.7869 38.3947 96.7492 58.7464 107.807 77.455C118.877 96.1655 134.386 112.121 153.901 124.871C172.753 137.192 194.54 146.025 218.641 151.111C221.613 151.735 224.603 152.31 227.608 152.817ZM348.959 -163.96C351.964 -163.453 354.946 -162.889 357.914 -162.255C381.99 -157.163 403.745 -148.346 422.571 -136.05C442.066 -123.314 457.549 -107.383 468.603 -88.6954C479.657 -70.0079 485.607 -49.6887 486.303 -28.2945C486.976 -7.62958 482.724 13.1549 473.69 33.5006C464.648 53.8348 451.272 72.6923 433.93 89.5533C415.973 107.005 394.526 121.539 370.185 132.746C345.845 143.952 320.069 151.168 293.587 154.179C267.992 157.095 242.813 155.984 218.745 150.904C194.67 145.812 172.914 136.995 154.089 124.698C134.593 111.962 119.111 96.0314 108.057 77.3439C97.0028 58.6564 91.0523 38.3372 90.3563 16.943C89.6841 -3.7219 93.9358 -24.5064 102.97 -44.8521C112.012 -65.1863 125.388 -84.0438 142.729 -100.905C160.687 -118.356 182.134 -132.891 206.474 -144.097C230.815 -155.304 256.59 -162.52 283.073 -165.531C305.503 -168.091 327.631 -167.557 348.959 -163.96Z" fill="#54B02C"/>
<path d="M225.093 155.463C246.718 159.11 269.135 159.653 291.869 157.062C318.723 154.001 344.839 146.69 369.505 135.333C394.171 123.977 415.912 109.248 434.106 91.5601C451.68 74.4728 465.24 55.3603 474.4 34.7498C483.56 14.1393 487.861 -6.93297 487.186 -27.8742C486.479 -49.5563 480.453 -70.1537 469.251 -89.0908C458.05 -108.028 442.36 -124.178 422.603 -137.091C403.517 -149.564 381.475 -158.49 357.073 -163.648C332.681 -168.803 307.153 -169.921 281.216 -166.972C254.361 -163.911 228.245 -156.6 203.58 -145.243C178.914 -133.887 157.173 -119.158 138.979 -101.47C121.405 -84.3828 107.845 -65.2702 98.6851 -44.6598C89.5251 -24.0493 85.2236 -2.97698 85.8991 17.9643C86.6061 39.6463 92.6321 60.2438 103.833 79.1808C115.035 98.1178 130.725 114.268 150.481 127.181C169.567 139.654 191.609 148.58 216.012 153.738C219.014 154.377 222.042 154.949 225.093 155.463ZM469.134 -89.039L469.013 -88.9777C480.199 -70.0637 486.225 -49.497 486.928 -27.836C487.603 -6.92546 483.312 14.1181 474.163 34.6997C465.014 55.2814 451.477 74.3672 433.922 91.4372C415.75 109.098 394.04 123.812 369.404 135.153C344.769 146.494 318.679 153.8 291.866 156.847C265.968 159.793 240.484 158.682 216.116 153.53C191.748 148.379 169.728 139.456 150.681 127.01C130.951 114.122 115.276 97.9952 104.091 79.0812C92.9048 60.1672 86.8792 39.6005 86.1762 17.9395C85.5011 -2.97105 89.7915 -24.0146 98.9405 -44.5963C108.089 -65.1779 121.627 -84.2637 139.182 -101.334C157.354 -118.994 179.064 -133.709 203.7 -145.05C228.335 -156.39 254.425 -163.696 281.238 -166.743C307.136 -169.689 332.631 -168.577 356.988 -163.427C381.356 -158.275 403.376 -149.353 422.423 -136.906C442.152 -124.018 457.827 -107.892 469.013 -88.9777L469.134 -89.039Z" fill="#4FAF2D"/>
<path d="M222.555 158.114C244.432 161.803 267.127 162.352 290.141 159.726C317.315 156.628 343.753 149.238 368.717 137.738C393.677 126.248 415.671 111.336 434.09 93.4411C451.875 76.1544 465.599 56.804 474.878 35.948C484.156 15.092 488.504 -6.22784 487.818 -27.4263C487.116 -49.3731 480.999 -70.2105 469.67 -89.3837C458.337 -108.547 442.454 -124.893 422.464 -137.958C403.152 -150.571 380.839 -159.615 356.147 -164.841C331.45 -170.058 305.625 -171.196 279.381 -168.206C252.208 -165.108 225.77 -157.718 200.805 -146.218C175.845 -134.728 153.852 -119.816 135.432 -101.921C117.647 -84.6343 103.923 -65.2839 94.6446 -44.4279C85.3774 -23.5699 81.018 -2.25204 81.7041 18.9464C82.4104 40.8837 88.523 61.7306 99.8562 80.8942C111.189 100.058 127.072 116.403 147.062 129.468C166.374 142.081 188.687 151.125 213.379 156.352C216.412 157.006 219.471 157.594 222.555 158.114ZM469.526 -89.3262L469.405 -89.2649C480.723 -70.1243 486.824 -49.31 487.526 -27.3938C488.212 -6.22611 483.863 15.063 474.607 35.8922C465.351 56.7213 451.653 76.0353 433.887 93.3047C415.498 111.184 393.527 126.069 368.597 137.544C343.667 149.019 317.263 156.415 290.131 159.5C263.914 162.484 238.134 161.354 213.472 156.143C188.81 150.932 166.527 141.903 147.25 129.295C127.287 116.256 111.42 99.9332 100.102 80.7927C88.7843 61.6521 82.6835 40.8378 81.9812 18.9216C81.2955 -2.24611 85.6438 -23.5352 94.9 -44.3644C104.156 -65.1935 117.854 -84.5075 135.62 -101.777C154.009 -119.656 175.98 -134.541 200.91 -146.016C225.829 -157.493 252.229 -164.879 279.365 -167.974C305.582 -170.958 331.362 -169.828 356.024 -164.617C380.686 -159.406 402.968 -150.377 422.246 -137.77C442.205 -124.72 458.076 -108.407 469.394 -89.2668L469.526 -89.3262Z" fill="#4AAE2E"/>
<path d="M220.027 160.756C242.166 164.49 265.127 165.043 288.407 162.391C315.899 159.254 342.652 151.774 367.911 140.14C393.17 128.506 415.423 113.423 434.057 95.3196C452.056 77.8238 465.937 58.2547 475.323 37.1512C484.709 16.0477 489.107 -5.5293 488.418 -26.9734C487.704 -49.1774 481.528 -70.2701 470.052 -89.6622C458.586 -109.052 442.511 -125.594 422.276 -138.812C402.731 -151.577 380.166 -160.725 355.18 -166.011C330.194 -171.298 304.065 -172.436 277.502 -169.408C250.01 -166.271 223.257 -158.791 197.998 -147.157C172.739 -135.523 150.486 -120.44 131.852 -102.336C113.853 -84.8407 99.972 -65.2716 90.586 -44.1681C81.2115 -23.0627 76.802 -1.48759 77.491 19.9565C78.2043 42.1605 84.3806 63.2532 95.8572 82.6453C107.334 102.037 123.397 118.577 143.621 131.793C163.166 144.558 185.732 153.706 210.717 158.992C213.815 159.637 216.908 160.23 220.027 160.756ZM469.919 -89.6028L469.798 -89.5414C481.252 -70.1839 487.416 -49.1239 488.141 -26.9486C488.829 -5.53525 484.431 16.011 475.067 37.0877C465.704 58.1643 451.83 77.7143 433.854 95.1832C415.239 113.27 393.019 128.327 367.79 139.946C342.562 151.564 315.851 159.031 288.396 162.164C261.872 165.188 235.772 164.035 210.829 158.766C185.874 153.495 163.331 144.351 143.816 131.602C123.612 118.398 107.56 101.892 96.1103 82.5245C84.6607 63.1574 78.4847 42.0955 77.7718 19.9221C77.0831 -1.49125 81.4816 -23.0375 90.8451 -44.1142C100.209 -65.1908 114.082 -84.7408 132.059 -102.21C150.674 -120.296 172.893 -135.354 198.122 -146.972C223.351 -158.591 250.062 -166.058 277.516 -169.191C304.041 -172.215 330.132 -171.073 355.084 -165.793C380.039 -160.522 402.581 -151.378 422.096 -138.628C442.3 -125.425 458.352 -108.918 469.802 -89.551L469.919 -89.6028Z" fill="#45AC30"/>
<path d="M217.495 163.397C239.897 167.175 263.124 167.731 286.67 165.053C314.488 161.889 341.544 154.317 367.098 142.549C392.651 130.781 415.165 115.528 434.02 97.196C452.23 79.5008 466.275 59.6938 475.768 38.3428C485.262 16.9918 489.721 -4.84035 489.018 -26.532C488.294 -48.9932 482.039 -70.3239 470.445 -89.9501C458.837 -109.569 442.577 -126.295 422.112 -139.674C402.345 -152.589 379.504 -161.845 354.225 -167.191C328.946 -172.536 302.509 -173.696 275.639 -170.628C247.82 -167.464 220.761 -159.883 195.211 -148.124C169.657 -136.356 147.143 -121.103 128.288 -102.771C110.079 -85.0758 96.0332 -65.2688 86.54 -43.9178C77.0468 -22.5668 72.5872 -0.734646 73.2906 20.957C74.0145 43.4182 80.266 64.7585 91.8744 84.377C103.483 103.996 119.743 120.721 140.207 134.101C159.975 147.016 182.815 156.271 208.094 161.617C211.211 162.276 214.342 162.865 217.495 163.397ZM470.313 -89.8907L470.192 -89.8294C481.785 -70.2339 488.025 -48.9262 488.748 -26.4957C489.448 -4.82517 485.003 16.9686 475.521 38.2908C466.039 59.613 452.016 79.3932 433.829 97.0615C414.996 115.367 392.516 130.595 366.993 142.348C341.469 154.1 314.444 161.657 286.671 164.828C259.842 167.883 233.439 166.729 208.194 161.389C182.95 156.049 160.14 146.809 140.403 133.909C119.965 120.555 103.721 103.852 92.1391 84.2582C80.5461 64.6627 74.3064 43.3551 73.5828 20.9246C72.8835 -0.745975 77.3283 -22.5398 86.8105 -43.862C96.2927 -65.1842 110.316 -84.9643 128.502 -102.633C147.335 -120.938 169.815 -136.166 195.339 -147.919C220.862 -159.671 247.876 -167.23 275.661 -170.399C302.489 -173.454 328.892 -172.3 354.137 -166.96C379.382 -161.62 402.191 -152.38 421.928 -139.481C442.366 -126.126 458.611 -109.423 470.192 -89.8294L470.313 -89.8907Z" fill="#41AB31"/>
<path d="M214.96 166.05C237.625 169.872 261.118 170.433 284.944 167.719C313.082 164.518 340.452 156.856 366.3 144.954C392.149 133.051 414.927 117.618 433.996 99.077C452.419 81.1727 466.622 61.1471 476.222 39.5485C485.823 17.95 490.329 -4.12968 489.615 -26.0785C488.88 -48.7969 482.554 -70.3848 470.813 -90.23L470.692 -90.1686L470.813 -90.23C459.073 -110.075 442.621 -126.997 421.922 -140.528C401.921 -153.595 378.817 -162.956 353.256 -168.36C327.695 -173.764 300.946 -174.935 273.761 -171.838C245.623 -168.636 218.253 -160.974 192.405 -149.072C166.556 -137.17 143.778 -121.736 124.709 -103.195C106.285 -85.2912 92.083 -65.2655 82.4825 -43.667C72.882 -22.0685 68.3759 0.0112187 69.0899 21.96C69.8246 44.6784 76.1512 66.2664 87.8802 86.1096C99.6205 105.955 116.073 122.876 136.771 136.408C156.772 149.475 179.876 158.836 205.437 164.239C208.6 164.906 211.772 165.512 214.96 166.05ZM343.672 -169.946C346.859 -169.408 350.021 -168.803 353.171 -168.139C378.71 -162.739 401.783 -153.394 421.753 -140.342C442.425 -126.836 458.862 -109.937 470.575 -90.1169C482.3 -70.2948 488.615 -48.7395 489.345 -26.0422C490.059 -4.1241 485.553 17.9249 475.963 39.4946C466.374 61.0644 452.19 81.0728 433.789 98.9502C414.742 117.464 391.999 132.873 366.18 144.76C340.362 156.647 313.033 164.295 284.919 167.501C257.772 170.594 231.068 169.43 205.533 164.021C179.995 158.621 156.922 149.275 136.951 136.224C116.28 122.717 99.8431 105.819 88.1297 85.9984C76.4048 66.1763 70.0899 44.6211 69.3593 21.9238C68.6457 0.00564938 73.1521 -22.0434 82.7415 -43.6131C92.331 -65.1828 106.515 -85.1912 124.916 -103.069C143.962 -121.583 166.706 -136.991 192.525 -148.878C218.343 -160.765 245.671 -168.414 273.786 -171.619C297.586 -174.327 321.052 -173.76 343.672 -169.946Z" fill="#3CAA32"/>
<path d="M212.441 168.694C235.357 172.559 259.124 173.135 283.219 170.385C311.676 167.146 339.372 159.396 365.515 147.359C391.658 135.323 414.7 119.709 433.983 100.959C452.617 82.8555 466.984 62.592 476.692 40.746C486.4 18.9001 490.967 -3.43482 490.239 -25.6312C489.497 -48.6163 483.103 -70.4403 471.235 -90.5216L471.114 -90.4602L471.235 -90.5216C459.362 -110.593 442.729 -127.709 421.786 -141.394C401.562 -154.611 378.195 -164.077 352.329 -169.543C326.475 -175.006 299.414 -176.189 271.925 -173.062C243.469 -169.822 215.773 -162.072 189.629 -150.035C163.486 -137.999 140.444 -122.385 121.161 -103.636C102.527 -85.5319 88.1603 -65.2683 78.4526 -43.4224C68.7448 -21.5764 64.1772 0.758507 64.9056 22.9549C65.6473 45.94 72.0413 67.764 83.9099 87.8452C95.7822 107.917 112.415 125.033 133.359 138.718C153.582 151.934 176.95 161.401 202.815 166.866C205.997 167.546 209.208 168.149 212.441 168.694ZM342.619 -171.15C345.841 -170.606 349.036 -169.996 352.233 -169.324C378.064 -163.865 401.397 -154.403 421.594 -141.212C442.511 -127.552 459.125 -110.449 470.974 -90.4124C482.83 -70.3637 489.22 -48.5609 489.962 -25.6064C490.675 -3.43309 486.122 18.8634 476.425 40.6806C466.728 62.4978 452.373 82.7325 433.769 100.821C414.508 119.544 391.5 135.133 365.387 147.154C339.274 159.175 311.631 166.913 283.201 170.147C255.751 173.271 228.735 172.096 202.904 166.636C177.072 161.177 153.739 151.716 133.543 138.524C112.626 124.864 96.0122 107.762 84.1631 87.7245C72.3063 67.6759 65.9163 45.873 65.175 22.9186C64.4621 0.745251 69.015 -21.5513 78.7117 -43.3685C88.4083 -65.1857 102.764 -85.4204 121.368 -103.509C140.629 -122.232 163.636 -137.821 189.753 -149.851C215.866 -161.872 243.509 -169.611 271.939 -172.845C296.004 -175.579 319.737 -175.009 342.619 -171.15Z" fill="#37A933"/>
<path d="M209.906 171.346C233.085 175.255 257.118 175.835 281.479 173.059C310.266 169.783 338.261 161.951 364.703 149.771C391.145 137.591 414.446 121.806 433.944 102.847C452.792 84.5347 467.319 64.0429 477.134 41.9494C486.949 19.856 491.563 -2.72642 490.836 -25.178C490.083 -48.4203 483.618 -70.5015 471.614 -90.7997C459.61 -111.098 442.784 -128.409 421.607 -142.246C401.15 -155.615 377.519 -165.187 351.364 -170.722C325.205 -176.247 297.858 -177.447 270.051 -174.282C241.264 -171.006 213.27 -163.173 186.828 -150.993C160.389 -138.823 137.084 -123.029 117.586 -104.07C98.7384 -85.757 84.2109 -65.2653 74.3959 -43.1718C64.5809 -21.0784 59.9668 1.50405 60.6945 23.9557C61.4468 47.1979 67.9123 69.2791 79.9165 89.5773C91.9207 109.875 108.746 127.187 129.923 141.024C150.38 154.392 174.011 163.965 200.166 169.499C203.397 170.177 206.639 170.795 209.906 171.346ZM341.562 -172.344C344.818 -171.795 348.06 -171.177 351.279 -170.501C377.404 -164.982 401 -155.415 421.427 -142.062C442.573 -128.241 459.372 -110.954 471.372 -90.677C483.361 -70.4018 489.826 -48.3514 490.578 -25.1398C491.305 -2.71891 486.702 19.8347 476.887 41.8975C467.083 63.9621 452.566 84.4251 433.752 102.713C414.262 121.653 391.006 137.414 364.594 149.579C338.186 161.734 310.229 169.562 281.48 172.835C253.711 175.996 226.399 174.802 200.274 169.283C174.149 163.763 150.553 154.197 130.126 140.844C108.98 127.022 92.1812 109.736 80.1811 89.4585C68.1924 69.1833 61.7272 47.1329 60.9753 23.9213C60.248 1.50041 64.8511 -21.0532 74.6664 -43.116C84.4704 -65.1806 98.9868 -85.6436 117.801 -103.931C137.291 -122.871 160.547 -138.632 186.959 -150.797C213.367 -162.952 241.324 -170.781 270.073 -174.053C294.407 -176.824 318.417 -176.247 341.562 -172.344Z" fill="#32A835"/>
<path d="M207.368 173.988C230.799 177.94 255.097 178.524 279.751 175.715C308.856 172.401 337.166 164.479 363.902 152.164C390.639 139.85 414.19 123.893 433.916 104.718C452.967 86.194 467.663 65.4854 477.597 43.1464C487.53 20.8074 492.183 -2.03408 491.453 -24.7313C490.69 -48.2308 484.149 -70.5596 472.013 -91.0843C459.877 -111.609 442.859 -129.116 421.448 -143.105C400.769 -156.623 376.875 -166.302 350.426 -171.896C323.973 -177.481 296.315 -178.692 268.204 -175.497C239.099 -172.182 210.79 -164.26 184.053 -151.946C157.316 -139.632 133.766 -123.675 114.039 -104.499C94.9917 -85.9849 80.2921 -65.2668 70.3584 -42.9278C60.4247 -20.5888 55.7719 2.25268 56.5025 24.9499C57.2654 48.4494 63.8062 70.7782 75.9423 91.3029C88.0784 111.828 105.096 129.335 126.507 143.324C147.186 156.842 171.081 166.52 197.529 172.114C200.791 172.807 204.066 173.431 207.368 173.988ZM340.499 -173.539C343.789 -172.984 347.065 -172.361 350.33 -171.677C376.748 -166.098 400.608 -156.426 421.268 -142.921C442.648 -128.948 459.639 -111.465 471.76 -90.9636C483.88 -70.4619 490.421 -48.1638 491.172 -24.697C491.902 -2.03042 487.249 20.7803 477.338 43.0925C467.426 65.4047 452.749 86.0959 433.71 104.591C414.005 123.74 390.485 139.681 363.779 151.98C337.072 164.279 308.804 172.188 279.737 175.498C251.664 178.69 224.028 177.482 197.622 171.905C171.204 166.326 147.347 156.644 126.683 143.149C105.303 129.176 88.3124 111.693 76.1803 91.1899C64.0597 70.6882 57.5193 48.3901 56.7682 24.9232C56.038 2.25668 60.6912 -20.5541 70.6024 -42.8662C80.5136 -65.1784 95.1908 -85.8697 114.23 -104.365C133.935 -123.513 157.455 -139.455 184.161 -151.754C210.868 -164.053 239.136 -171.962 268.203 -175.272C292.815 -178.067 317.091 -177.487 340.499 -173.539Z" fill="#2DA736"/>
</svg>
